 <svg width="100px" height="150px" viewbox="0 0  612 792" 
  version="1.1"  baseProfile="full" 
  xmlns="http://www.w3.org/2000/svg" 
  xmlns:xlink="http://www.w3.org/1999/xlink" 
  xmlns:ev="http://www.w3.org/2001/xml-events"> 
<line x1="70" y1="574" x2="490" y2="574"
 style=" 
       stroke: rgb(0%,0%,0%);
       stroke-width:  0.50;
       fill: none;
       stroke-dasharray: none;
  " />
<line x1="70" y1="518" x2="490" y2="518"
 style=" 
       stroke: rgb(0%,0%,0%);
       stroke-width:  0.50;
       fill: none;
       stroke-dasharray: none;
  " />
<line x1="70" y1="462" x2="490" y2="462"
 style=" 
       stroke: rgb(0%,0%,0%);
       stroke-width:  0.50;
       fill: none;
       stroke-dasharray: none;
  " />
<line x1="70" y1="406" x2="490" y2="406"
 style=" 
       stroke: rgb(0%,0%,0%);
       stroke-width:  0.50;
       fill: none;
       stroke-dasharray: none;
  " />
<line x1="70" y1="350" x2="490" y2="350"
 style=" 
       stroke: rgb(0%,0%,0%);
       stroke-width:  0.50;
       fill: none;
       stroke-dasharray: none;
  " />
<line x1="70" y1="294" x2="490" y2="294"
 style=" 
       stroke: rgb(0%,0%,0%);
       stroke-width:  0.50;
       fill: none;
       stroke-dasharray: none;
  " />
<line x1="70" y1="238" x2="490" y2="238"
 style=" 
       stroke: rgb(0%,0%,0%);
       stroke-width:  0.50;
       fill: none;
       stroke-dasharray: none;
  " />
<line x1="70" y1="182" x2="490" y2="182"
 style=" 
       stroke: rgb(0%,0%,0%);
       stroke-width:  0.50;
       fill: none;
       stroke-dasharray: none;
  " />
<line x1="70" y1="126" x2="490" y2="126"
 style=" 
       stroke: rgb(0%,0%,0%);
       stroke-width:  0.50;
       fill: none;
       stroke-dasharray: none;
  " />
<line x1="175" y1="630" x2="175" y2="70"
 style=" 
       stroke: rgb(0%,0%,0%);
       stroke-width:  0.50;
       fill: none;
       stroke-dasharray: none;
  " />
<line x1="280" y1="630" x2="280" y2="70"
 style=" 
       stroke: rgb(0%,0%,0%);
       stroke-width:  0.50;
       fill: none;
       stroke-dasharray: none;
  " />
<line x1="385" y1="630" x2="385" y2="70"
 style=" 
       stroke: rgb(0%,0%,0%);
       stroke-width:  0.50;
       fill: none;
       stroke-dasharray: none;
  " />
 <polygon points=" 
   70,630
   490,630
   490,70
   70,70
  " 
 style=" 
       stroke: rgb(0%,0%,0%);
       stroke-width:  0.50;
       fill: none;
       stroke-dasharray: none;
  " />
<path d= "M 70,642" />
 <text x="70" y="642"
 style=" 
 font-family: sans-serif; 
 font-weight: normal;
 font-style: normal;
  font-size: 12;
  stroke: none; 
  fill: rgb(0%,0%,0%);
 text-anchor: start; 
  ">
 0.00
 </text>
<path d= "M 175,642" />
 <text x="175" y="642"
 style=" 
 font-family: sans-serif; 
 font-weight: normal;
 font-style: normal;
  font-size: 12;
  stroke: none; 
  fill: rgb(0%,0%,0%);
 text-anchor: middle; 
  ">
 0.05
 </text>
<path d= "M 280,642" />
 <text x="280" y="642"
 style=" 
 font-family: sans-serif; 
 font-weight: normal;
 font-style: normal;
  font-size: 12;
  stroke: none; 
  fill: rgb(0%,0%,0%);
 text-anchor: middle; 
  ">
 0.10
 </text>
<path d= "M 385,642" />
 <text x="385" y="642"
 style=" 
 font-family: sans-serif; 
 font-weight: normal;
 font-style: normal;
  font-size: 12;
  stroke: none; 
  fill: rgb(0%,0%,0%);
 text-anchor: middle; 
  ">
 0.15
 </text>
<path d= "M 490,642" />
 <text x="490" y="642"
 style=" 
 font-family: sans-serif; 
 font-weight: normal;
 font-style: normal;
  font-size: 12;
  stroke: none; 
  fill: rgb(0%,0%,0%);
 text-anchor: middle; 
  ">
 0.20
 </text>
<path d= "M 280,653" />
 <text x="280" y="653"
 style=" 
 font-family: sans-serif; 
 font-weight: normal;
 font-style: normal;
  font-size: 12;
  stroke: none; 
  fill: rgb(0%,0%,0%);
 text-anchor: middle; 
  ">
 Mach
 </text>
<path d= "M 69,636" />
 <text x="69" y="636"
 style=" 
 font-family: sans-serif; 
 font-weight: normal;
 font-style: normal;
  font-size: 12;
  stroke: none; 
  fill: rgb(0%,0%,0%);
 text-anchor: end; 
  ">
 0
 </text>
<path d= "M 69,580" />
 <text x="69" y="580"
 style=" 
 font-family: sans-serif; 
 font-weight: normal;
 font-style: normal;
  font-size: 12;
  stroke: none; 
  fill: rgb(0%,0%,0%);
 text-anchor: end; 
  ">
 10
 </text>
<path d= "M 69,524" />
 <text x="69" y="524"
 style=" 
 font-family: sans-serif; 
 font-weight: normal;
 font-style: normal;
  font-size: 12;
  stroke: none; 
  fill: rgb(0%,0%,0%);
 text-anchor: end; 
  ">
 20
 </text>
<path d= "M 69,468" />
 <text x="69" y="468"
 style=" 
 font-family: sans-serif; 
 font-weight: normal;
 font-style: normal;
  font-size: 12;
  stroke: none; 
  fill: rgb(0%,0%,0%);
 text-anchor: end; 
  ">
 30
 </text>
<path d= "M 69,412" />
 <text x="69" y="412"
 style=" 
 font-family: sans-serif; 
 font-weight: normal;
 font-style: normal;
  font-size: 12;
  stroke: none; 
  fill: rgb(0%,0%,0%);
 text-anchor: end; 
  ">
 40
 </text>
<path d= "M 69,356" />
 <text x="69" y="356"
 style=" 
 font-family: sans-serif; 
 font-weight: normal;
 font-style: normal;
  font-size: 12;
  stroke: none; 
  fill: rgb(0%,0%,0%);
 text-anchor: end; 
  ">
 50
 </text>
<path d= "M 69,300" />
 <text x="69" y="300"
 style=" 
 font-family: sans-serif; 
 font-weight: normal;
 font-style: normal;
  font-size: 12;
  stroke: none; 
  fill: rgb(0%,0%,0%);
 text-anchor: end; 
  ">
 60
 </text>
<path d= "M 69,244" />
 <text x="69" y="244"
 style=" 
 font-family: sans-serif; 
 font-weight: normal;
 font-style: normal;
  font-size: 12;
  stroke: none; 
  fill: rgb(0%,0%,0%);
 text-anchor: end; 
  ">
 70
 </text>
<path d= "M 69,188" />
 <text x="69" y="188"
 style=" 
 font-family: sans-serif; 
 font-weight: normal;
 font-style: normal;
  font-size: 12;
  stroke: none; 
  fill: rgb(0%,0%,0%);
 text-anchor: end; 
  ">
 80
 </text>
<path d= "M 69,132" />
 <text x="69" y="132"
 style=" 
 font-family: sans-serif; 
 font-weight: normal;
 font-style: normal;
  font-size: 12;
  stroke: none; 
  fill: rgb(0%,0%,0%);
 text-anchor: end; 
  ">
 90
 </text>
<path d= "M 69,76" />
 <text x="69" y="76"
 style=" 
 font-family: sans-serif; 
 font-weight: normal;
 font-style: normal;
  font-size: 12;
  stroke: none; 
  fill: rgb(0%,0%,0%);
 text-anchor: end; 
  ">
 100
 </text>
<path d= "M 35,350" />
 <g transform="translate(          35 ,         350 )">
 <g transform="rotate(-90)">
 <text x="0" y="0" 
 style=" 
 font-family: sans-serif; 
 font-weight: normal;
 font-style: normal;
  font-size: 12;
  stroke: none; 
  fill: rgb(0%,0%,0%);
 text-anchor: middle; 
  ">
 altitude
 </text>
 </g></g>
 <polyline points=" 
   70,70
   76,70
   82,71
   88,72
   94,74
   100,77
   106,80
   112,83
   118,87
   123,91
   129,97
   134,102
   140,108
   145,115
   150,122
   155,129
   161,138
   165,146
   170,155
   175,165
   179,174
   183,184
   187,195
   192,206
   195,217
   199,229
   203,241
   206,253
   210,266
   213,279
   216,292
   219,306
   222,320
   225,334
   227,348
   230,362
   232,377
   234,393
   237,408
   239,423
   241,438
   242,454
   244,470
   246,487
   247,503
   249,519
   250,536
   252,552
   253,569
   254,586
   256,603
   257,620
   257,630
  " 
 style=" 
       stroke: rgb(100%,  0%,  0%);
       stroke-width:  2.00;
       fill: none;
       stroke-dasharray: none;
  " />
 <polyline points=" 
   70,70
   76,70
   82,71
   88,72
   94,74
   100,77
   106,80
   112,83
   119,87
   124,92
   130,97
   137,102
   143,109
   149,116
   155,123
   161,132
   167,140
   173,149
   179,158
   185,169
   191,180
   197,191
   203,203
   209,215
   215,228
   221,242
   227,256
   233,270
   239,286
   245,301
   251,318
   256,335
   262,352
   268,370
   274,389
   280,408
   286,427
   292,447
   298,468
   304,489
   309,511
   315,533
   321,556
   327,579
   333,603
   338,627
   339,630
  " 
 style=" 
       stroke: rgb(  0%,100%,  0%);
       stroke-width:  2.00;
       fill: none;
       stroke-dasharray: none;
  " />
 <polyline points=" 
   70,70
   76,70
   82,71
   88,72
   94,74
   100,77
   106,80
   112,83
   118,87
   124,92
   130,97
   136,102
   142,109
   148,116
   154,123
   160,131
   166,139
   172,148
   177,158
   183,168
   189,179
   195,190
   200,202
   206,214
   212,227
   218,240
   224,254
   230,268
   236,283
   242,298
   248,315
   254,331
   260,348
   266,366
   272,384
   277,403
   283,422
   289,442
   295,463
   301,483
   306,505
   312,527
   318,549
   324,572
   329,596
   335,620
   337,630
  " 
 style=" 
       stroke: rgb(  0%,  0%,100%);
       stroke-width:  2.00;
       fill: none;
       stroke-dasharray: none;
  " />
 <polyline points=" 
   70,70
   76,70
   82,71
   87,72
   93,74
   97,76
   101,79
   105,82
   108,85
   111,88
   113,92
   114,96
   116,101
   117,105
   118,109
   119,114
   119,118
   120,123
   120,127
   120,132
   121,137
   121,141
   121,146
   121,151
   121,155
   121,160
   121,165
   121,170
   121,174
   121,179
   121,184
   121,188
   121,193
   121,198
   121,203
   121,207
   121,212
   121,217
   121,222
   121,226
   121,231
   121,236
   121,240
   121,245
   121,250
   121,255
   121,259
   121,264
   121,269
   121,274
   121,278
   121,283
   121,288
   121,292
   121,297
   121,302
   121,307
   121,311
   121,316
   121,321
   121,326
   121,330
   121,335
   121,340
   121,344
   121,349
   121,354
   121,359
   121,363
   121,368
   121,373
   121,378
   121,382
   121,388
   121,392
   121,396
   121,402
   121,406
   121,411
   121,416
   121,421
   121,425
   121,430
   121,435
   121,440
   121,444
   121,449
   121,454
   121,458
   121,463
   121,468
   121,473
   121,477
   121,482
   121,487
   121,491
   121,496
   121,501
   121,506
   121,510
   121,515
   121,520
   121,525
   121,529
   121,534
   121,539
   121,543
   121,548
   121,553
   121,558
   121,562
   121,567
   121,572
   121,576
   121,581
   121,586
   121,591
   121,595
   121,600
   121,605
   121,609
   121,614
   121,619
   121,624
   121,628
   121,630
  " 
 style=" 
       stroke: rgb(100%, 50%,  0%);
       stroke-width:  2.00;
       fill: none;
       stroke-dasharray: none;
  " />
 <polyline points=" 
   70,70
   76,70
   82,71
   88,72
   94,74
   100,77
   105,80
   111,83
   116,87
   121,91
   126,96
   131,101
   136,107
   140,114
   144,120
   148,127
   152,134
   155,142
   159,150
   162,158
   165,167
   167,176
   170,185
   172,194
   174,203
   176,213
   178,223
   180,233
   182,243
   183,254
   184,264
   185,274
   187,285
   188,296
   189,307
   189,318
   190,329
   191,340
   192,351
   192,362
   193,374
   193,385
   194,396
   194,408
   195,419
   195,431
   195,442
   195,454
   196,465
   196,477
   196,489
   196,500
   196,512
   197,524
   197,535
   197,547
   197,559
   197,571
   197,582
   197,594
   197,606
   197,618
   197,629
   197,630
  " 
 style=" 
       stroke: rgb(100%,100%, 50%);
       stroke-width:  2.00;
       fill: none;
       stroke-dasharray: none;
  " />
 <polyline points=" 
   70,70
   76,70
   82,71
   88,72
   94,74
   100,77
   106,80
   112,83
   119,87
   125,92
   130,97
   137,103
   143,110
   149,116
   155,124
   161,132
   167,141
   173,150
   179,159
   185,169
   191,180
   197,191
   203,203
   209,215
   215,228
   221,241
   228,255
   234,270
   239,285
   246,301
   252,317
   258,334
   264,351
   270,369
   276,388
   282,407
   288,426
   294,446
   300,466
   306,488
   312,510
   318,531
   324,554
   330,578
   336,601
   342,626
   348,651
  " 
 style=" 
       stroke: rgb(  0%,  0%,  0%);
       stroke-width:  2.00;
       fill: none;
       stroke-dasharray: none;
  " />
<path d= "M 263,28" />
 <text x="263" y="28"
 style=" 
 font-family: sans-serif; 
 font-weight: bold;
 font-style: normal;
  font-size: 16;
  stroke: none; 
  fill: rgb(  0%,  0%,  0%);
 text-anchor: middle; 
  ">
 ALTITUDE VS. MACH NUMBER
 </text>
<path d= "M 263,56" />
 <text x="263" y="56"
 style=" 
 font-family: sans-serif; 
 font-weight: bold;
 font-style: normal;
  font-size: 14;
  stroke: none; 
  fill: rgb(  0%,  0%,  0%);
 text-anchor: middle; 
  ">
 initial altitude= 100 meters
 </text>
 </svg>
