 <svg width="100px" height="150px" viewbox="0 0  612 792" 
  version="1.1"  baseProfile="full" 
  xmlns="http://www.w3.org/2000/svg" 
  xmlns:xlink="http://www.w3.org/1999/xlink" 
  xmlns:ev="http://www.w3.org/2001/xml-events"> 
<line x1="70" y1="574" x2="490" y2="574"
 style=" 
       stroke: rgb(0%,0%,0%);
       stroke-width:  0.50;
       fill: none;
       stroke-dasharray: none;
  " />
<line x1="70" y1="518" x2="490" y2="518"
 style=" 
       stroke: rgb(0%,0%,0%);
       stroke-width:  0.50;
       fill: none;
       stroke-dasharray: none;
  " />
<line x1="70" y1="462" x2="490" y2="462"
 style=" 
       stroke: rgb(0%,0%,0%);
       stroke-width:  0.50;
       fill: none;
       stroke-dasharray: none;
  " />
<line x1="70" y1="406" x2="490" y2="406"
 style=" 
       stroke: rgb(0%,0%,0%);
       stroke-width:  0.50;
       fill: none;
       stroke-dasharray: none;
  " />
<line x1="70" y1="350" x2="490" y2="350"
 style=" 
       stroke: rgb(0%,0%,0%);
       stroke-width:  0.50;
       fill: none;
       stroke-dasharray: none;
  " />
<line x1="70" y1="294" x2="490" y2="294"
 style=" 
       stroke: rgb(0%,0%,0%);
       stroke-width:  0.50;
       fill: none;
       stroke-dasharray: none;
  " />
<line x1="70" y1="238" x2="490" y2="238"
 style=" 
       stroke: rgb(0%,0%,0%);
       stroke-width:  0.50;
       fill: none;
       stroke-dasharray: none;
  " />
<line x1="70" y1="182" x2="490" y2="182"
 style=" 
       stroke: rgb(0%,0%,0%);
       stroke-width:  0.50;
       fill: none;
       stroke-dasharray: none;
  " />
<line x1="70" y1="126" x2="490" y2="126"
 style=" 
       stroke: rgb(0%,0%,0%);
       stroke-width:  0.50;
       fill: none;
       stroke-dasharray: none;
  " />
<line x1="154" y1="630" x2="154" y2="70"
 style=" 
       stroke: rgb(0%,0%,0%);
       stroke-width:  0.50;
       fill: none;
       stroke-dasharray: none;
  " />
<line x1="238" y1="630" x2="238" y2="70"
 style=" 
       stroke: rgb(0%,0%,0%);
       stroke-width:  0.50;
       fill: none;
       stroke-dasharray: none;
  " />
<line x1="322" y1="630" x2="322" y2="70"
 style=" 
       stroke: rgb(0%,0%,0%);
       stroke-width:  0.50;
       fill: none;
       stroke-dasharray: none;
  " />
<line x1="406" y1="630" x2="406" y2="70"
 style=" 
       stroke: rgb(0%,0%,0%);
       stroke-width:  0.50;
       fill: none;
       stroke-dasharray: none;
  " />
 <polygon points=" 
   70,630
   490,630
   490,70
   70,70
  " 
 style=" 
       stroke: rgb(0%,0%,0%);
       stroke-width:  0.50;
       fill: none;
       stroke-dasharray: none;
  " />
<path d= "M 70,642" />
 <text x="70" y="642"
 style=" 
 font-family: sans-serif; 
 font-weight: normal;
 font-style: normal;
  font-size: 12;
  stroke: none; 
  fill: rgb(0%,0%,0%);
 text-anchor: start; 
  ">
 0
 </text>
<path d= "M 154,642" />
 <text x="154" y="642"
 style=" 
 font-family: sans-serif; 
 font-weight: normal;
 font-style: normal;
  font-size: 12;
  stroke: none; 
  fill: rgb(0%,0%,0%);
 text-anchor: middle; 
  ">
 10
 </text>
<path d= "M 238,642" />
 <text x="238" y="642"
 style=" 
 font-family: sans-serif; 
 font-weight: normal;
 font-style: normal;
  font-size: 12;
  stroke: none; 
  fill: rgb(0%,0%,0%);
 text-anchor: middle; 
  ">
 20
 </text>
<path d= "M 322,642" />
 <text x="322" y="642"
 style=" 
 font-family: sans-serif; 
 font-weight: normal;
 font-style: normal;
  font-size: 12;
  stroke: none; 
  fill: rgb(0%,0%,0%);
 text-anchor: middle; 
  ">
 30
 </text>
<path d= "M 406,642" />
 <text x="406" y="642"
 style=" 
 font-family: sans-serif; 
 font-weight: normal;
 font-style: normal;
  font-size: 12;
  stroke: none; 
  fill: rgb(0%,0%,0%);
 text-anchor: middle; 
  ">
 40
 </text>
<path d= "M 490,642" />
 <text x="490" y="642"
 style=" 
 font-family: sans-serif; 
 font-weight: normal;
 font-style: normal;
  font-size: 12;
  stroke: none; 
  fill: rgb(0%,0%,0%);
 text-anchor: middle; 
  ">
 50
 </text>
<path d= "M 280,653" />
 <text x="280" y="653"
 style=" 
 font-family: sans-serif; 
 font-weight: normal;
 font-style: normal;
  font-size: 12;
  stroke: none; 
  fill: rgb(0%,0%,0%);
 text-anchor: middle; 
  ">
 velocity
 </text>
<path d= "M 69,636" />
 <text x="69" y="636"
 style=" 
 font-family: sans-serif; 
 font-weight: normal;
 font-style: normal;
  font-size: 12;
  stroke: none; 
  fill: rgb(0%,0%,0%);
 text-anchor: end; 
  ">
 0
 </text>
<path d= "M 69,580" />
 <text x="69" y="580"
 style=" 
 font-family: sans-serif; 
 font-weight: normal;
 font-style: normal;
  font-size: 12;
  stroke: none; 
  fill: rgb(0%,0%,0%);
 text-anchor: end; 
  ">
 10
 </text>
<path d= "M 69,524" />
 <text x="69" y="524"
 style=" 
 font-family: sans-serif; 
 font-weight: normal;
 font-style: normal;
  font-size: 12;
  stroke: none; 
  fill: rgb(0%,0%,0%);
 text-anchor: end; 
  ">
 20
 </text>
<path d= "M 69,468" />
 <text x="69" y="468"
 style=" 
 font-family: sans-serif; 
 font-weight: normal;
 font-style: normal;
  font-size: 12;
  stroke: none; 
  fill: rgb(0%,0%,0%);
 text-anchor: end; 
  ">
 30
 </text>
<path d= "M 69,412" />
 <text x="69" y="412"
 style=" 
 font-family: sans-serif; 
 font-weight: normal;
 font-style: normal;
  font-size: 12;
  stroke: none; 
  fill: rgb(0%,0%,0%);
 text-anchor: end; 
  ">
 40
 </text>
<path d= "M 69,356" />
 <text x="69" y="356"
 style=" 
 font-family: sans-serif; 
 font-weight: normal;
 font-style: normal;
  font-size: 12;
  stroke: none; 
  fill: rgb(0%,0%,0%);
 text-anchor: end; 
  ">
 50
 </text>
<path d= "M 69,300" />
 <text x="69" y="300"
 style=" 
 font-family: sans-serif; 
 font-weight: normal;
 font-style: normal;
  font-size: 12;
  stroke: none; 
  fill: rgb(0%,0%,0%);
 text-anchor: end; 
  ">
 60
 </text>
<path d= "M 69,244" />
 <text x="69" y="244"
 style=" 
 font-family: sans-serif; 
 font-weight: normal;
 font-style: normal;
  font-size: 12;
  stroke: none; 
  fill: rgb(0%,0%,0%);
 text-anchor: end; 
  ">
 70
 </text>
<path d= "M 69,188" />
 <text x="69" y="188"
 style=" 
 font-family: sans-serif; 
 font-weight: normal;
 font-style: normal;
  font-size: 12;
  stroke: none; 
  fill: rgb(0%,0%,0%);
 text-anchor: end; 
  ">
 80
 </text>
<path d= "M 69,132" />
 <text x="69" y="132"
 style=" 
 font-family: sans-serif; 
 font-weight: normal;
 font-style: normal;
  font-size: 12;
  stroke: none; 
  fill: rgb(0%,0%,0%);
 text-anchor: end; 
  ">
 90
 </text>
<path d= "M 69,76" />
 <text x="69" y="76"
 style=" 
 font-family: sans-serif; 
 font-weight: normal;
 font-style: normal;
  font-size: 12;
  stroke: none; 
  fill: rgb(0%,0%,0%);
 text-anchor: end; 
  ">
 100
 </text>
<path d= "M 35,350" />
 <g transform="translate(          35 ,         350 )">
 <g transform="rotate(-90)">
 <text x="0" y="0" 
 style=" 
 font-family: sans-serif; 
 font-weight: normal;
 font-style: normal;
  font-size: 12;
  stroke: none; 
  fill: rgb(0%,0%,0%);
 text-anchor: middle; 
  ">
 altitude
 </text>
 </g></g>
 <polyline points=" 
   70,70
   78,70
   86,71
   95,72
   103,74
   111,77
   119,80
   127,83
   135,87
   142,91
   150,97
   158,102
   165,108
   172,115
   179,122
   186,129
   193,138
   200,146
   206,155
   212,165
   218,174
   224,184
   230,195
   235,206
   241,217
   246,229
   251,241
   255,253
   260,266
   264,279
   269,292
   273,306
   276,320
   280,334
   284,348
   287,362
   290,377
   294,393
   296,408
   299,423
   302,438
   305,454
   307,470
   309,487
   312,503
   314,519
   316,536
   317,552
   319,569
   321,586
   323,603
   324,620
   325,630
  " 
 style=" 
       stroke: rgb(100%,  0%,  0%);
       stroke-width:  2.00;
       fill: none;
       stroke-dasharray: none;
  " />
 <polyline points=" 
   70,70
   78,70
   86,71
   95,72
   103,74
   111,77
   119,80
   128,83
   136,87
   144,92
   152,97
   160,102
   169,109
   177,116
   185,123
   193,132
   202,140
   210,149
   218,158
   226,169
   234,180
   243,191
   251,203
   259,215
   267,228
   275,242
   283,256
   291,270
   299,286
   308,301
   316,318
   324,335
   332,352
   340,370
   348,389
   356,408
   364,427
   372,447
   380,468
   388,489
   396,511
   404,533
   412,556
   419,579
   427,603
   435,627
   436,630
  " 
 style=" 
       stroke: rgb(  0%,100%,  0%);
       stroke-width:  2.00;
       fill: none;
       stroke-dasharray: none;
  " />
 <polyline points=" 
   70,70
   78,70
   86,71
   95,72
   103,74
   111,77
   119,80
   128,83
   136,87
   144,92
   152,97
   160,102
   168,109
   176,116
   184,123
   192,131
   200,139
   208,148
   216,158
   224,168
   232,179
   239,190
   247,202
   255,214
   264,227
   272,240
   280,254
   288,268
   296,283
   304,298
   312,315
   320,331
   328,348
   336,366
   344,384
   352,403
   360,422
   368,442
   376,463
   384,483
   392,505
   400,527
   407,549
   415,572
   423,596
   431,620
   434,630
  " 
 style=" 
       stroke: rgb(  0%,  0%,100%);
       stroke-width:  2.00;
       fill: none;
       stroke-dasharray: none;
  " />
 <polyline points=" 
   70,70
   78,70
   86,71
   94,72
   101,74
   107,76
   113,79
   117,82
   121,85
   125,88
   128,92
   130,96
   132,101
   134,105
   135,109
   136,114
   137,118
   137,123
   138,127
   138,132
   139,137
   139,141
   139,146
   139,151
   139,155
   140,160
   140,165
   140,170
   140,174
   140,179
   140,184
   140,188
   140,193
   140,198
   140,203
   140,207
   140,212
   140,217
   140,222
   140,226
   140,231
   140,236
   140,240
   140,245
   140,250
   140,255
   140,259
   140,264
   140,269
   140,274
   140,278
   140,283
   140,288
   140,292
   140,297
   140,302
   140,307
   140,311
   140,316
   140,321
   140,326
   140,330
   140,335
   140,340
   140,344
   140,349
   140,354
   140,359
   140,363
   140,368
   140,373
   140,378
   140,382
   140,388
   140,392
   140,396
   140,402
   140,406
   140,411
   140,416
   140,421
   140,425
   140,430
   140,435
   140,440
   140,444
   140,449
   140,454
   140,458
   140,463
   140,468
   140,473
   140,477
   140,482
   140,487
   140,491
   140,496
   140,501
   140,506
   140,510
   140,515
   140,520
   140,525
   140,529
   140,534
   140,539
   140,543
   140,548
   140,553
   140,558
   140,562
   140,567
   140,572
   140,576
   140,581
   140,586
   140,591
   140,595
   140,600
   140,605
   140,609
   140,614
   140,619
   140,624
   140,628
   140,630
  " 
 style=" 
       stroke: rgb(100%, 50%,  0%);
       stroke-width:  2.00;
       fill: none;
       stroke-dasharray: none;
  " />
 <polyline points=" 
   70,70
   78,70
   86,71
   95,72
   103,74
   110,77
   118,80
   126,83
   133,87
   140,91
   147,96
   153,101
   160,107
   166,114
   171,120
   176,127
   181,134
   186,142
   191,150
   195,158
   199,167
   202,176
   206,185
   209,194
   212,203
   215,213
   217,223
   220,233
   222,243
   224,254
   225,264
   227,274
   229,285
   230,296
   231,307
   232,318
   234,329
   235,340
   235,351
   236,362
   237,374
   238,385
   238,396
   239,408
   239,419
   240,431
   240,442
   241,454
   241,465
   241,477
   242,489
   242,500
   242,512
   242,524
   243,535
   243,547
   243,559
   243,571
   243,582
   243,594
   243,606
   243,618
   244,629
   244,630
  " 
 style=" 
       stroke: rgb(100%,100%, 50%);
       stroke-width:  2.00;
       fill: none;
       stroke-dasharray: none;
  " />
 <polyline points=" 
   70,70
   78,70
   86,71
   95,72
   103,74
   111,77
   119,80
   128,83
   136,87
   144,92
   152,97
   161,103
   169,110
   177,116
   185,124
   194,132
   202,141
   210,150
   218,159
   226,169
   235,180
   243,191
   251,203
   260,215
   268,228
   276,241
   284,255
   292,270
   301,285
   309,301
   317,317
   325,334
   334,351
   342,369
   350,388
   358,407
   367,426
   375,446
   383,466
   391,488
   400,510
   408,531
   416,554
   424,578
   432,601
   441,626
   449,651
  " 
 style=" 
       stroke: rgb(  0%,  0%,  0%);
       stroke-width:  2.00;
       fill: none;
       stroke-dasharray: none;
  " />
 <polyline points=" 
   2929,630
   2929,624
   2929,619
   2929,613
   2929,608
   2929,602
   2929,596
   2929,591
   2929,585
   2929,580
   2929,574
   2929,568
   2928,563
   2928,557
   2928,552
   2928,546
   2928,540
   2928,535
   2928,529
   2928,524
   2928,518
   2928,512
   2928,507
   2928,501
   2928,496
   2928,490
   2928,484
   2928,479
   2928,473
   2928,468
   2928,462
   2928,456
   2928,451
   2928,445
   2928,440
   2928,434
   2928,428
   2928,423
   2927,417
   2927,412
   2927,406
   2927,400
   2927,395
   2927,389
   2927,384
   2927,378
   2927,372
   2927,367
   2927,361
   2927,356
   2927,350
   2927,344
   2927,339
   2927,333
   2927,328
   2927,322
   2927,316
   2927,311
   2927,305
   2927,300
   2927,294
   2927,288
   2927,283
   2927,277
   2926,272
   2926,266
   2926,260
   2926,255
   2926,249
   2926,244
   2926,238
   2926,232
   2926,227
   2926,221
   2926,216
   2926,210
   2926,204
   2926,199
   2926,193
   2926,188
   2926,182
   2926,176
   2926,171
   2926,165
   2926,160
   2926,154
   2926,148
   2926,143
   2926,137
   2926,132
   2925,126
   2925,120
   2925,115
   2925,109
   2925,104
   2925,98
   2925,92
   2925,87
   2925,81
   2925,76
   2925,70
  " 
 style=" 
       stroke: rgb(  0%,  0%,  0%);
       stroke-width:  1.00;
       fill: none;
       stroke-dasharray: none;
  " />
<path d= "M 263,28" />
 <text x="263" y="28"
 style=" 
 font-family: sans-serif; 
 font-weight: bold;
 font-style: normal;
  font-size: 16;
  stroke: none; 
  fill: rgb(  0%,  0%,  0%);
 text-anchor: middle; 
  ">
 ALTITUDE VS. VELOCITY
 </text>
<path d= "M 263,56" />
 <text x="263" y="56"
 style=" 
 font-family: sans-serif; 
 font-weight: bold;
 font-style: normal;
  font-size: 14;
  stroke: none; 
  fill: rgb(  0%,  0%,  0%);
 text-anchor: middle; 
  ">
 initial altitude= 100 meters
 </text>
 </svg>
