 <svg width="100px" height="150px" viewbox="0 0  612 792" 
  version="1.1"  baseProfile="full" 
  xmlns="http://www.w3.org/2000/svg" 
  xmlns:xlink="http://www.w3.org/1999/xlink" 
  xmlns:ev="http://www.w3.org/2001/xml-events"> 
<line x1="70" y1="537" x2="490" y2="537"
 style=" 
       stroke: rgb(0%,0%,0%);
       stroke-width:  0.50;
       fill: none;
       stroke-dasharray: none;
  " />
<line x1="70" y1="443" x2="490" y2="443"
 style=" 
       stroke: rgb(0%,0%,0%);
       stroke-width:  0.50;
       fill: none;
       stroke-dasharray: none;
  " />
<line x1="70" y1="350" x2="490" y2="350"
 style=" 
       stroke: rgb(0%,0%,0%);
       stroke-width:  0.50;
       fill: none;
       stroke-dasharray: none;
  " />
<line x1="70" y1="257" x2="490" y2="257"
 style=" 
       stroke: rgb(0%,0%,0%);
       stroke-width:  0.50;
       fill: none;
       stroke-dasharray: none;
  " />
<line x1="70" y1="163" x2="490" y2="163"
 style=" 
       stroke: rgb(0%,0%,0%);
       stroke-width:  0.50;
       fill: none;
       stroke-dasharray: none;
  " />
<line x1="154" y1="630" x2="154" y2="70"
 style=" 
       stroke: rgb(0%,0%,0%);
       stroke-width:  0.50;
       fill: none;
       stroke-dasharray: none;
  " />
<line x1="238" y1="630" x2="238" y2="70"
 style=" 
       stroke: rgb(0%,0%,0%);
       stroke-width:  0.50;
       fill: none;
       stroke-dasharray: none;
  " />
<line x1="322" y1="630" x2="322" y2="70"
 style=" 
       stroke: rgb(0%,0%,0%);
       stroke-width:  0.50;
       fill: none;
       stroke-dasharray: none;
  " />
<line x1="406" y1="630" x2="406" y2="70"
 style=" 
       stroke: rgb(0%,0%,0%);
       stroke-width:  0.50;
       fill: none;
       stroke-dasharray: none;
  " />
 <polygon points=" 
   70,630
   490,630
   490,70
   70,70
  " 
 style=" 
       stroke: rgb(0%,0%,0%);
       stroke-width:  0.50;
       fill: none;
       stroke-dasharray: none;
  " />
<path d= "M 70,642" />
 <text x="70" y="642"
 style=" 
 font-family: sans-serif; 
 font-weight: normal;
 font-style: normal;
  font-size: 12;
  stroke: none; 
  fill: rgb(0%,0%,0%);
 text-anchor: start; 
  ">
 0
 </text>
<path d= "M 154,642" />
 <text x="154" y="642"
 style=" 
 font-family: sans-serif; 
 font-weight: normal;
 font-style: normal;
  font-size: 12;
  stroke: none; 
  fill: rgb(0%,0%,0%);
 text-anchor: middle; 
  ">
 10
 </text>
<path d= "M 238,642" />
 <text x="238" y="642"
 style=" 
 font-family: sans-serif; 
 font-weight: normal;
 font-style: normal;
  font-size: 12;
  stroke: none; 
  fill: rgb(0%,0%,0%);
 text-anchor: middle; 
  ">
 20
 </text>
<path d= "M 322,642" />
 <text x="322" y="642"
 style=" 
 font-family: sans-serif; 
 font-weight: normal;
 font-style: normal;
  font-size: 12;
  stroke: none; 
  fill: rgb(0%,0%,0%);
 text-anchor: middle; 
  ">
 30
 </text>
<path d= "M 406,642" />
 <text x="406" y="642"
 style=" 
 font-family: sans-serif; 
 font-weight: normal;
 font-style: normal;
  font-size: 12;
  stroke: none; 
  fill: rgb(0%,0%,0%);
 text-anchor: middle; 
  ">
 40
 </text>
<path d= "M 490,642" />
 <text x="490" y="642"
 style=" 
 font-family: sans-serif; 
 font-weight: normal;
 font-style: normal;
  font-size: 12;
  stroke: none; 
  fill: rgb(0%,0%,0%);
 text-anchor: middle; 
  ">
 50
 </text>
<path d= "M 280,653" />
 <text x="280" y="653"
 style=" 
 font-family: sans-serif; 
 font-weight: normal;
 font-style: normal;
  font-size: 12;
  stroke: none; 
  fill: rgb(0%,0%,0%);
 text-anchor: middle; 
  ">
 time
 </text>
<path d= "M 69,636" />
 <text x="69" y="636"
 style=" 
 font-family: sans-serif; 
 font-weight: normal;
 font-style: normal;
  font-size: 12;
  stroke: none; 
  fill: rgb(0%,0%,0%);
 text-anchor: end; 
  ">
 0
 </text>
<path d= "M 69,543" />
 <text x="69" y="543"
 style=" 
 font-family: sans-serif; 
 font-weight: normal;
 font-style: normal;
  font-size: 12;
  stroke: none; 
  fill: rgb(0%,0%,0%);
 text-anchor: end; 
  ">
 25
 </text>
<path d= "M 69,449" />
 <text x="69" y="449"
 style=" 
 font-family: sans-serif; 
 font-weight: normal;
 font-style: normal;
  font-size: 12;
  stroke: none; 
  fill: rgb(0%,0%,0%);
 text-anchor: end; 
  ">
 50
 </text>
<path d= "M 69,356" />
 <text x="69" y="356"
 style=" 
 font-family: sans-serif; 
 font-weight: normal;
 font-style: normal;
  font-size: 12;
  stroke: none; 
  fill: rgb(0%,0%,0%);
 text-anchor: end; 
  ">
 75
 </text>
<path d= "M 69,263" />
 <text x="69" y="263"
 style=" 
 font-family: sans-serif; 
 font-weight: normal;
 font-style: normal;
  font-size: 12;
  stroke: none; 
  fill: rgb(0%,0%,0%);
 text-anchor: end; 
  ">
 100
 </text>
<path d= "M 69,169" />
 <text x="69" y="169"
 style=" 
 font-family: sans-serif; 
 font-weight: normal;
 font-style: normal;
  font-size: 12;
  stroke: none; 
  fill: rgb(0%,0%,0%);
 text-anchor: end; 
  ">
 125
 </text>
<path d= "M 69,76" />
 <text x="69" y="76"
 style=" 
 font-family: sans-serif; 
 font-weight: normal;
 font-style: normal;
  font-size: 12;
  stroke: none; 
  fill: rgb(0%,0%,0%);
 text-anchor: end; 
  ">
 150
 </text>
<path d= "M 35,350" />
 <g transform="translate(          35 ,         350 )">
 <g transform="rotate(-90)">
 <text x="0" y="0" 
 style=" 
 font-family: sans-serif; 
 font-weight: normal;
 font-style: normal;
  font-size: 12;
  stroke: none; 
  fill: rgb(0%,0%,0%);
 text-anchor: middle; 
  ">
 velocity
 </text>
 </g></g>
 <polyline points=" 
   70,630
   71,626
   72,623
   73,619
   73,615
   74,612
   75,608
   76,605
   77,601
   78,598
   78,594
   79,591
   80,588
   81,584
   82,581
   83,578
   83,575
   84,572
   85,569
   86,566
   87,564
   88,561
   88,558
   89,556
   90,553
   91,551
   92,549
   93,546
   94,545
   94,542
   95,540
   96,539
   97,537
   98,535
   99,533
   99,531
   100,530
   101,528
   102,527
   103,526
   104,524
   104,523
   105,522
   106,521
   107,520
   108,519
   109,518
   109,517
   110,516
   111,515
   112,514
   113,514
   114,513
   115,512
   115,512
   116,511
   117,511
   118,510
   119,509
   120,509
   120,508
   121,508
   122,508
   123,507
   124,507
   125,506
   125,506
   126,506
   127,505
   128,505
   129,505
   130,505
   130,504
   131,504
   132,504
   133,504
   134,503
   135,503
   136,503
   136,503
   137,503
   138,503
   139,503
   140,502
   141,502
   141,502
   142,502
   143,502
   144,502
   145,502
   146,502
   146,502
   147,502
   148,502
   149,502
   150,502
   151,502
   151,502
   152,502
   153,502
   154,501
   155,501
   156,501
   157,501
   157,501
   158,501
   159,501
   160,501
   161,501
   162,501
   162,501
   163,501
   164,501
   165,501
   166,501
   167,501
   167,501
   168,501
   169,501
   170,501
   171,501
   172,501
   172,501
   173,501
   174,501
   175,501
   176,501
   177,501
   178,501
   178,501
   179,501
   180,501
   181,501
   182,501
   183,501
   183,501
   184,501
   185,501
   186,501
   187,502
   188,502
   188,502
   189,502
   190,502
   191,502
   192,502
   193,502
   193,502
   194,502
   195,502
   196,502
   197,502
   198,502
   199,502
   199,502
   200,502
   201,502
   202,502
   203,502
   204,502
   204,502
   205,502
   206,502
   207,502
   208,502
   209,502
   209,502
   210,502
   211,502
   212,502
   213,502
   214,502
   214,502
   215,502
   216,502
   217,502
   218,502
   219,502
   220,502
   220,502
   221,502
   222,502
   223,502
   224,502
   225,502
   225,502
   226,502
   227,502
   228,502
   229,502
   230,502
   230,502
   231,502
   232,502
   233,502
   234,503
   235,503
   235,503
   236,503
   237,503
   238,503
   239,503
   240,503
   241,503
   241,503
   242,503
   243,503
   244,503
   245,503
   246,503
   246,503
   247,503
   248,503
   249,503
   250,503
   251,503
   251,503
   252,503
   253,503
   254,503
   255,503
   256,503
   256,503
   257,503
   258,503
   259,503
   260,503
   261,503
   262,503
   262,503
   263,503
   264,503
   265,503
   266,503
   267,503
   267,503
   268,503
   269,503
   270,503
   271,503
   272,503
   272,503
   273,503
   274,503
   275,503
   276,503
   277,503
   277,503
   278,504
   279,504
   280,504
   281,504
   282,504
   283,504
   283,504
   284,504
   285,504
   286,504
   287,504
   288,504
   288,504
   289,504
   290,504
   291,504
   292,504
   293,504
   293,504
   294,504
   295,504
   296,504
   297,504
   298,504
   298,504
   299,504
   300,504
   301,504
   302,504
   303,504
   304,504
   304,504
   305,504
   306,504
   307,504
   308,504
   309,505
   309,505
   310,505
   311,505
   312,505
   313,505
   314,505
   314,505
   315,505
   316,505
   317,505
   318,505
   319,505
   319,505
   320,505
   321,505
   322,505
   323,505
   324,505
   325,505
   325,505
   326,505
   327,505
   328,505
   329,505
   330,505
   330,505
   331,505
   332,505
  " 
 style=" 
       stroke: rgb(100%,  0%,  0%);
       stroke-width:  2.00;
       fill: none;
       stroke-dasharray: none;
  " />
 <polyline points=" 
   70,630
   71,626
   72,623
   73,619
   73,615
   74,612
   75,608
   76,604
   77,601
   78,597
   78,593
   79,590
   80,586
   81,583
   82,579
   83,575
   83,571
   84,568
   85,564
   86,561
   87,557
   88,553
   88,550
   89,546
   90,542
   91,539
   92,535
   93,531
   94,528
   94,524
   95,521
   96,517
   97,514
   98,510
   99,506
   99,503
   100,499
   101,496
   102,492
   103,489
   104,485
   104,481
   105,478
   106,474
   107,471
   108,468
   109,464
   109,461
   110,457
   111,453
   112,450
   113,447
   114,443
   115,440
   115,436
   116,433
   117,430
   118,426
   119,423
   120,419
   120,416
   121,413
   122,409
   123,406
   124,403
   125,399
   125,396
   126,393
   127,390
   128,386
   129,383
   130,380
   130,377
   131,374
   132,370
   133,367
   134,364
   135,360
   136,357
   136,354
   137,351
   138,348
   139,345
   140,342
   141,339
   141,336
   142,332
   143,329
   144,326
   145,323
   146,321
   146,318
   147,315
   148,312
   149,309
   150,306
   151,303
   151,300
   152,297
   153,294
   154,291
   155,288
   156,285
   157,282
   157,280
   158,277
   159,274
   160,272
   161,269
   162,266
   162,263
   163,260
   164,258
   165,255
   166,253
   167,250
   167,247
   168,245
   169,242
   170,239
   171,237
   172,234
   172,232
   173,229
   174,227
   175,224
   176,222
   177,219
   178,217
   178,214
   179,212
   180,210
   181,207
   182,205
   183,202
   183,200
   184,198
   185,195
   186,193
   187,191
   188,188
   188,186
   189,184
   190,182
   191,180
   192,178
   193,175
   193,173
   194,172
  " 
 style=" 
       stroke: rgb(  0%,100%,  0%);
       stroke-width:  2.00;
       fill: none;
       stroke-dasharray: none;
  " />
 <polyline points=" 
   70,630
   71,626
   72,623
   73,619
   73,615
   74,612
   75,608
   76,604
   77,601
   78,597
   78,593
   79,590
   80,586
   81,583
   82,579
   83,575
   83,572
   84,568
   85,565
   86,562
   87,558
   88,555
   88,551
   89,547
   90,544
   91,541
   92,537
   93,533
   94,530
   94,526
   95,522
   96,519
   97,515
   98,512
   99,508
   99,505
   100,501
   101,498
   102,494
   103,491
   104,487
   104,484
   105,480
   106,477
   107,473
   108,469
   109,466
   109,463
   110,459
   111,456
   112,452
   113,449
   114,446
   115,442
   115,439
   116,435
   117,432
   118,429
   119,425
   120,422
   120,419
   121,416
   122,412
   123,409
   124,406
   125,403
   125,400
   126,396
   127,393
   128,390
   129,387
   130,384
   130,381
   131,378
   132,375
   133,372
   134,369
   135,366
   136,363
   136,360
   137,357
   138,354
   139,351
   140,348
   141,345
   141,343
   142,340
   143,337
   144,334
   145,331
   146,328
   146,326
   147,323
   148,321
   149,318
   150,315
   151,313
   151,310
   152,307
   153,305
   154,303
   155,300
   156,297
   157,295
   157,293
   158,290
   159,288
   160,285
   161,283
   162,281
   162,279
   163,276
   164,274
   165,272
   166,270
   167,267
   167,265
   168,263
   169,261
   170,259
   171,257
   172,255
   172,253
   173,251
   174,249
   175,247
   176,245
   177,244
   178,242
   178,240
   179,238
   180,236
   181,235
   182,233
   183,231
   183,229
   184,228
   185,226
   186,225
   187,223
   188,221
   188,220
   189,218
   190,217
   191,215
   192,214
   193,212
   193,211
   194,210
   195,208
   196,207
   197,206
   197,205
  " 
 style=" 
       stroke: rgb(  0%,  0%,100%);
       stroke-width:  2.00;
       fill: none;
       stroke-dasharray: none;
  " />
 <polyline points=" 
   70,630
   71,626
   72,623
   73,620
   73,616
   74,614
   75,611
   76,609
   77,607
   78,605
   78,603
   79,602
   80,602
   81,601
   82,600
   83,600
   83,599
   84,599
   85,599
   86,598
   87,598
   88,598
   88,598
   89,598
   90,598
   91,598
   92,598
   93,598
   94,598
   94,598
   95,598
   96,598
   97,598
   98,598
   99,598
   99,598
   100,598
   101,598
   102,598
   103,598
   104,598
   104,598
   105,598
   106,598
   107,598
   108,598
   109,598
   109,598
   110,598
   111,598
   112,598
   113,598
   114,598
   115,598
   115,598
   116,598
   117,598
   118,598
   119,598
   120,598
   120,598
   121,598
   122,598
   123,598
   124,598
   125,598
   125,598
   126,598
   127,598
   128,598
   129,598
   130,598
   130,598
   131,598
   132,598
   133,598
   134,598
   135,598
   136,598
   136,598
   137,598
   138,598
   139,598
   140,598
   141,598
   141,598
   142,598
   143,598
   144,598
   145,598
   146,598
   146,598
   147,598
   148,598
   149,598
   150,598
   151,598
   151,598
   152,598
   153,598
   154,598
   155,598
   156,598
   157,598
   157,598
   158,598
   159,598
   160,598
   161,598
   162,598
   162,598
   163,598
   164,598
   165,598
   166,598
   167,598
   167,598
   168,598
   169,598
   170,598
   171,598
   172,598
   172,598
   173,598
   174,598
   175,598
   176,598
   177,598
   178,598
   178,598
   179,598
   180,598
   181,598
   182,598
   183,598
   183,598
   184,598
   185,598
   186,598
   187,598
   188,598
   188,598
   189,598
   190,598
   191,598
   192,598
   193,598
   193,598
   194,598
   195,598
   196,598
   197,598
   198,598
   199,598
   199,598
   200,598
   201,598
   202,598
   203,598
   204,598
   204,598
   205,598
   206,598
   207,598
   208,598
   209,598
   209,598
   210,598
   211,598
   212,598
   213,598
   214,598
   214,598
   215,598
   216,598
   217,598
   218,598
   219,598
   220,598
   220,598
   221,598
   222,598
   223,598
   224,598
   225,598
   225,598
   226,598
   227,598
   228,598
   229,598
   230,598
   230,598
   231,598
   232,598
   233,598
   234,598
   235,598
   235,598
   236,598
   237,598
   238,598
   239,598
   240,598
   241,598
   241,598
   242,598
   243,598
   244,598
   245,598
   246,598
   246,598
   247,598
   248,598
   249,598
   250,598
   251,598
   251,598
   252,598
   253,598
   254,598
   255,598
   256,598
   256,598
   257,598
   258,598
   259,598
   260,598
   261,598
   262,598
   262,598
   263,598
   264,598
   265,598
   266,598
   267,598
   267,598
   268,598
   269,598
   270,598
   271,598
   272,598
   272,598
   273,598
   274,598
   275,598
   276,598
   277,598
   277,598
   278,598
   279,598
   280,598
   281,598
   282,598
   283,598
   283,598
   284,598
   285,598
   286,598
   287,598
   288,598
   288,598
   289,598
   290,598
   291,598
   292,598
   293,598
   293,598
   294,598
   295,598
   296,598
   297,598
   298,598
   298,598
   299,598
   300,598
   301,598
   302,598
   303,598
   304,598
   304,598
   305,598
   306,598
   307,598
   308,598
   309,598
   309,598
   310,598
   311,598
   312,598
   313,598
   314,598
   314,598
   315,598
   316,598
   317,598
   318,598
   319,598
   319,598
   320,598
   321,598
   322,598
   323,598
   324,598
   325,598
   325,598
   326,598
   327,598
   328,598
   329,598
   330,598
   330,598
   331,598
   332,598
   333,598
   334,598
   335,598
   335,598
   336,598
   337,598
   338,598
   339,598
   340,598
   340,598
   341,598
   342,598
   343,598
   344,598
   345,598
   346,598
   346,598
   347,598
   348,598
   349,598
   350,598
   351,598
   351,598
   352,598
   353,598
   354,598
   355,598
   356,598
   356,598
   357,598
   358,598
   359,598
   360,598
   361,598
   361,598
   362,598
   363,598
   364,598
   365,598
   366,598
   367,598
   367,598
   368,598
   369,598
   370,598
   371,598
   372,598
   372,598
   373,598
   374,598
   375,598
   376,598
   377,598
   377,598
   378,598
   379,598
   380,598
   381,598
   382,598
   382,598
   383,598
   384,598
   385,598
   386,598
   387,598
   388,598
   388,598
   389,598
   390,598
   391,598
   392,598
   393,598
   393,598
   394,598
   395,598
   396,598
   397,598
   398,598
   398,598
   399,598
   400,598
   401,598
   402,598
   403,598
   403,598
   404,598
   405,598
   406,598
   407,598
   408,598
   409,598
   409,598
   410,598
   411,598
   412,598
   413,598
   414,598
   414,598
   415,598
   416,598
   417,598
   418,598
   419,598
   419,598
   420,598
   421,598
   422,598
   423,598
   424,598
   424,598
   425,598
   426,598
   427,598
   428,598
   429,598
   430,598
   430,598
   431,598
   432,598
   433,598
   434,598
   435,598
   435,598
   436,598
   437,598
   438,598
   439,598
   440,598
   440,598
   441,598
   442,598
   443,598
   444,598
   445,598
   445,598
   446,598
   447,598
   448,598
   449,598
   450,598
   451,598
   451,598
   452,598
   453,598
   454,598
   455,598
   456,598
   456,598
   457,598
   458,598
   459,598
   460,598
   461,598
   461,598
   462,598
   463,598
   464,598
   465,598
   466,598
   466,598
   467,598
   468,598
   469,598
   470,598
   471,598
   472,598
   472,598
   473,598
   474,598
   475,598
   476,598
   477,598
   477,598
   478,598
   479,598
   480,598
   481,598
   482,598
   482,598
   483,598
   484,598
   485,598
   486,598
   487,598
   487,598
   488,598
   489,598
   490,598
   491,598
   492,598
   493,598
   493,598
   494,598
   495,598
   496,598
   497,598
   498,598
   498,598
   499,598
   500,598
   501,598
   502,598
   503,598
   503,598
   504,598
   505,598
   506,598
   507,598
   508,598
   508,598
   509,598
   510,598
   511,598
   512,598
   513,598
   514,598
   514,598
   515,598
   516,598
   517,598
   518,598
   519,598
   519,598
   520,598
   521,598
   522,598
   523,598
   524,598
   524,598
   525,598
   526,598
   527,598
   528,598
   529,598
   529,598
   530,598
   531,598
   532,598
   533,598
   534,598
   535,598
   535,598
   536,598
   537,598
   538,598
   539,598
   540,598
   540,598
   541,598
   542,598
   543,598
   544,598
   545,598
   545,598
   546,598
   547,598
   548,598
   549,598
   550,598
   550,598
   551,598
   552,598
   553,598
   554,598
   555,598
   556,598
   556,598
   557,598
   558,598
   559,598
   560,598
   561,598
   561,598
   562,598
   563,598
   564,598
   565,598
   566,598
   566,598
   567,598
   568,598
   569,598
   570,598
   571,598
   571,598
   572,598
   573,598
   574,598
   575,598
   576,598
   577,598
   577,598
   578,598
   579,598
   580,598
   581,598
   582,598
   582,598
   583,598
   584,598
   585,598
   586,598
   587,598
   587,598
   588,598
   589,598
   590,598
   591,598
   592,598
   592,598
   593,598
   594,598
   595,598
   596,598
   597,598
   598,598
   598,598
   599,598
   600,598
   601,598
   602,598
   603,598
   603,598
   604,598
   605,598
   606,598
   607,598
   608,598
   608,598
   609,598
   610,598
   611,598
   612,598
   613,598
   613,598
   614,598
   615,598
   616,598
   617,598
   618,598
   619,598
   619,598
   620,598
   621,598
   622,598
   623,598
   624,598
   624,598
   625,598
   626,598
   627,598
   628,598
   629,598
   629,598
   630,598
   631,598
   632,598
   633,598
   634,598
   634,598
   635,598
   636,598
   637,598
   638,598
   639,598
   640,598
   640,598
   641,598
   642,598
   643,598
   644,598
   645,598
   645,598
   646,598
   647,598
   648,598
   649,598
   650,598
   650,598
   651,598
   652,598
   653,598
   654,598
   655,598
   655,598
   656,598
   657,598
   658,598
   659,598
   660,598
   661,598
   661,598
   662,598
   663,598
   664,598
   665,598
   666,598
   666,598
   667,598
   668,598
   669,598
   670,598
   671,598
   671,599
   672,599
   673,599
   674,599
   675,599
   676,599
   676,599
   677,599
   678,599
   679,599
   680,599
   681,599
   682,599
   682,599
   683,599
   684,599
   685,599
   686,599
   687,599
   687,599
   688,599
   689,599
   690,599
   691,599
   692,599
   692,599
   693,599
   694,599
   695,599
   696,599
   697,599
   697,599
   698,599
   699,599
   700,599
   701,599
   702,599
   703,599
   703,599
   704,599
   705,599
   706,599
   707,599
   708,599
   708,599
   709,599
   710,599
   711,599
   712,599
   713,599
   713,599
   714,599
   715,599
   716,599
   717,599
   718,599
   718,599
   719,599
   720,599
   721,599
   722,599
   723,599
   724,599
   724,599
   725,599
   726,599
   727,599
   728,599
   729,599
   729,599
   730,599
   731,599
   732,599
   733,599
   734,599
   734,599
   735,599
   736,599
   737,599
   738,599
   739,599
   739,599
   740,599
   741,599
   742,599
   743,599
   744,599
   745,599
   745,599
   746,599
   747,599
   748,599
   749,599
   750,599
   750,599
   751,599
   752,599
   753,599
   754,599
   755,599
   755,599
   756,599
   757,599
   758,599
   759,599
   760,599
   760,599
   761,599
   762,599
   763,599
   764,599
   765,599
   766,599
   766,599
   767,599
   768,599
   769,599
   770,599
   771,599
   771,599
   772,599
   773,599
   774,599
   775,599
   776,599
   776,599
   777,599
   778,599
   779,599
   780,599
   781,599
   781,599
   782,599
   783,599
   784,599
   785,599
   786,599
   787,599
   787,599
   788,599
   789,599
   790,599
   791,599
   792,599
   792,599
   793,599
   794,599
   795,599
   796,599
   797,599
   797,599
   798,599
   799,599
   800,599
   801,599
   802,599
   802,599
   803,599
   804,599
   805,599
   806,599
   807,599
   808,599
   808,599
   809,599
   810,599
   811,599
   812,599
   813,599
   813,599
   814,599
   815,599
   816,599
   817,599
   818,599
   818,599
   819,599
   820,599
   821,599
   822,599
   823,599
   823,599
   824,599
   825,599
   826,599
   827,599
   828,599
   829,599
   829,599
   830,599
   831,599
   832,599
   833,599
   834,599
   834,599
   835,599
   836,599
   837,599
   838,599
   839,599
   839,599
   840,599
   841,599
   842,599
   843,599
   844,599
   844,599
   845,599
   846,599
   847,599
   848,599
   849,599
   850,599
   850,599
   851,599
   852,599
   853,599
   854,599
   855,599
   855,599
   856,599
   857,599
   858,599
   859,599
   860,599
   860,599
   861,599
   862,599
   863,599
   864,599
   865,599
   865,599
   866,599
   867,599
   868,599
   869,599
   870,599
   871,599
   871,599
   872,599
   873,599
   874,599
   875,599
   876,599
   876,599
   877,599
   878,599
   879,599
   880,599
   881,599
   881,599
   882,599
   883,599
   884,599
   885,599
   886,599
   886,599
   887,599
   888,599
   889,599
   890,599
   891,599
   892,599
   892,599
   893,599
   894,599
   895,599
   896,599
   897,599
   897,599
   898,599
   899,599
   900,599
   901,599
   902,599
   902,599
   903,599
   904,599
   905,599
   906,599
   907,599
   907,599
   908,599
   909,599
   910,599
   911,599
   912,599
   913,599
   913,599
   914,599
   915,599
   916,599
   917,599
   918,599
   918,599
   919,599
   920,599
   921,599
   922,599
   923,599
   923,599
   924,599
   925,599
   926,599
   927,599
   928,599
   928,599
   929,599
   930,599
   931,599
   932,599
   933,599
   934,599
   934,599
   935,599
   936,599
   937,599
   938,599
   939,599
   939,599
   940,599
   941,599
   942,599
   943,599
   944,599
   944,599
   945,599
   946,599
   947,599
   948,599
   949,599
   949,599
   950,599
   951,599
   952,599
   953,599
   954,599
   955,599
   955,599
   956,599
   957,599
   958,599
   959,599
   960,599
   960,599
   961,599
   962,599
   963,599
   964,599
   965,599
   965,599
   966,599
   967,599
   968,599
   969,599
   970,599
   970,599
   971,599
   972,599
   973,599
   974,599
   975,599
   976,599
   976,599
   977,599
   978,599
   979,599
   980,599
   981,599
   981,599
   982,599
   983,599
   984,599
   985,599
   986,599
   986,599
   987,599
   988,599
   989,599
   990,599
   991,599
   991,599
   992,599
   993,599
   994,599
   995,599
   996,599
   997,599
   997,599
   998,599
   999,599
   1000,599
   1001,599
   1002,599
   1002,599
   1003,599
   1004,599
   1005,599
   1006,599
   1007,599
   1007,599
   1008,599
   1009,599
   1010,599
   1011,599
   1012,599
   1012,599
   1013,599
   1014,599
   1015,599
   1016,599
   1017,599
   1018,599
   1018,599
   1019,599
   1020,599
   1021,599
   1022,599
   1023,599
   1023,599
   1024,599
   1025,599
   1026,599
   1027,599
   1028,599
   1028,599
   1029,599
   1030,599
   1031,599
   1032,599
   1033,599
   1033,599
   1034,599
   1035,599
   1036,599
   1037,599
   1038,599
   1039,599
   1039,599
   1040,599
   1041,599
   1042,599
   1043,599
   1044,599
   1044,599
   1045,599
   1046,599
   1047,599
   1048,599
  " 
 style=" 
       stroke: rgb(100%, 50%,  0%);
       stroke-width:  2.00;
       fill: none;
       stroke-dasharray: none;
  " />
 <polyline points=" 
   70,630
   71,626
   72,623
   73,619
   73,615
   74,612
   75,609
   76,605
   77,602
   78,599
   78,596
   79,593
   80,590
   81,587
   82,584
   83,582
   83,580
   84,578
   85,575
   86,574
   87,572
   88,570
   88,568
   89,567
   90,565
   91,564
   92,563
   93,562
   94,561
   94,560
   95,559
   96,558
   97,557
   98,557
   99,556
   99,555
   100,555
   101,554
   102,554
   103,553
   104,553
   104,553
   105,552
   106,552
   107,552
   108,552
   109,551
   109,551
   110,551
   111,551
   112,550
   113,550
   114,550
   115,550
   115,550
   116,550
   117,550
   118,550
   119,550
   120,550
   120,550
   121,550
   122,550
   123,549
   124,549
   125,549
   125,549
   126,549
   127,549
   128,549
   129,549
   130,549
   130,549
   131,549
   132,549
   133,549
   134,549
   135,549
   136,549
   136,549
   137,549
   138,549
   139,549
   140,549
   141,549
   141,549
   142,549
   143,549
   144,549
   145,549
   146,549
   146,549
   147,549
   148,549
   149,549
   150,549
   151,549
   151,549
   152,549
   153,549
   154,549
   155,549
   156,549
   157,549
   157,549
   158,549
   159,549
   160,549
   161,549
   162,549
   162,549
   163,549
   164,549
   165,549
   166,549
   167,549
   167,549
   168,549
   169,549
   170,549
   171,549
   172,549
   172,549
   173,549
   174,549
   175,549
   176,549
   177,549
   178,549
   178,549
   179,550
   180,550
   181,550
   182,550
   183,550
   183,550
   184,550
   185,550
   186,550
   187,550
   188,550
   188,550
   189,550
   190,550
   191,550
   192,550
   193,550
   193,550
   194,550
   195,550
   196,550
   197,550
   198,550
   199,550
   199,550
   200,550
   201,550
   202,550
   203,550
   204,550
   204,550
   205,550
   206,550
   207,550
   208,550
   209,550
   209,550
   210,550
   211,550
   212,550
   213,550
   214,550
   214,550
   215,550
   216,550
   217,550
   218,550
   219,550
   220,550
   220,550
   221,550
   222,550
   223,550
   224,550
   225,550
   225,550
   226,550
   227,550
   228,550
   229,550
   230,550
   230,550
   231,550
   232,550
   233,550
   234,550
   235,550
   235,550
   236,550
   237,550
   238,550
   239,550
   240,550
   241,550
   241,550
   242,550
   243,550
   244,550
   245,550
   246,550
   246,550
   247,550
   248,550
   249,550
   250,550
   251,550
   251,550
   252,550
   253,550
   254,550
   255,550
   256,550
   256,550
   257,550
   258,550
   259,550
   260,550
   261,550
   262,550
   262,550
   263,550
   264,550
   265,550
   266,550
   267,550
   267,550
   268,550
   269,550
   270,550
   271,550
   272,550
   272,550
   273,550
   274,550
   275,550
   276,550
   277,550
   277,550
   278,550
   279,550
   280,550
   281,550
   282,550
   283,550
   283,550
   284,550
   285,550
   286,550
   287,550
   288,550
   288,550
   289,550
   290,551
   291,551
   292,551
   293,551
   293,551
   294,551
   295,551
   296,551
   297,551
   298,551
   298,551
   299,551
   300,551
   301,551
   302,551
   303,551
   304,551
   304,551
   305,551
   306,551
   307,551
   308,551
   309,551
   309,551
   310,551
   311,551
   312,551
   313,551
   314,551
   314,551
   315,551
   316,551
   317,551
   318,551
   319,551
   319,551
   320,551
   321,551
   322,551
   323,551
   324,551
   325,551
   325,551
   326,551
   327,551
   328,551
   329,551
   330,551
   330,551
   331,551
   332,551
   333,551
   334,551
   335,551
   335,551
   336,551
   337,551
   338,551
   339,551
   340,551
   340,551
   341,551
   342,551
   343,551
   344,551
   345,551
   346,551
   346,551
   347,551
   348,551
   349,551
   350,551
   351,551
   351,551
   352,551
   353,551
   354,551
   355,551
   356,551
   356,551
   357,551
   358,551
   359,551
   360,551
   361,551
   361,551
   362,551
   363,551
   364,551
   365,551
   366,551
   367,552
   367,552
   368,552
   369,552
   370,552
   371,552
   372,552
   372,552
   373,552
   374,552
   375,552
   376,552
   377,552
   377,552
   378,552
   379,552
   380,552
   381,552
   382,552
   382,552
   383,552
   384,552
   385,552
   386,552
   387,552
   388,552
   388,552
   389,552
   390,552
   391,552
   392,552
   393,552
   393,552
   394,552
   395,552
   396,552
   397,552
   398,552
   398,552
   399,552
   400,552
   401,552
   402,552
   403,552
   403,552
   404,552
   405,552
   406,552
   407,552
   408,552
   409,552
   409,552
   410,552
   411,552
   412,552
   413,552
   414,552
   414,552
   415,552
   416,552
   417,552
   418,552
   419,552
   419,552
   420,552
   421,552
   422,552
   423,552
   424,552
   424,552
   425,552
   426,552
   427,552
   428,552
   429,552
   430,552
   430,552
   431,552
   432,552
   433,552
   434,552
   435,552
   435,552
   436,552
   437,552
   438,552
   439,552
   440,552
   440,552
   441,552
   442,552
   443,552
   444,552
   445,552
   445,552
   446,552
   447,552
   448,552
   449,552
   450,552
   451,552
   451,552
   452,552
   453,552
   454,552
   455,552
   456,552
   456,552
   457,552
   458,552
   459,552
   460,552
   461,552
   461,552
   462,552
   463,552
   464,552
   465,552
   466,552
   466,552
   467,552
   468,552
   469,552
   470,552
   471,552
   471,552
  " 
 style=" 
       stroke: rgb(100%,100%, 50%);
       stroke-width:  2.00;
       fill: none;
       stroke-dasharray: none;
  " />
 <polyline points=" 
   70,630
   71,626
   72,623
   73,619
   73,615
   74,612
   75,608
   76,604
   77,601
   78,597
   78,593
   79,590
   80,586
   81,583
   82,579
   83,575
   83,571
   84,568
   85,564
   86,561
   87,557
   88,553
   88,549
   89,546
   90,542
   91,539
   92,535
   93,531
   94,527
   94,524
   95,520
   96,517
   97,513
   98,509
   99,506
   99,502
   100,498
   101,494
   102,491
   103,487
   104,484
   104,480
   105,476
   106,472
   107,469
   108,465
   109,462
   109,458
   110,454
   111,450
   112,447
   113,443
   114,440
   115,436
   115,432
   116,429
   117,425
   118,421
   119,418
   120,414
   120,410
   121,407
   122,403
   123,399
   124,396
   125,392
   125,388
   126,385
   127,381
   128,377
   129,374
   130,370
   130,366
   131,363
   132,359
   133,356
   134,352
   135,348
   136,344
   136,341
   137,337
   138,334
   139,330
   140,326
   141,322
   141,319
   142,315
   143,312
   144,308
   145,304
   146,300
   146,297
   147,293
   148,290
   149,286
   150,282
   151,279
   151,275
   152,271
   153,267
   154,264
   155,260
   156,257
   157,253
   157,249
   158,245
   159,242
   160,238
   161,235
   162,231
   162,227
   163,223
   164,220
   165,216
   166,213
   167,209
   167,205
   168,202
   169,198
   170,194
   171,191
   172,187
   172,183
   173,180
   174,176
   175,172
   176,169
   177,165
   178,161
   178,158
   179,154
   180,150
   181,147
   182,143
   183,139
   183,136
   184,132
   185,128
   186,125
   187,121
   188,117
   188,114
   189,110
   190,107
  " 
 style=" 
       stroke: rgb(  0%,  0%,  0%);
       stroke-width:  2.00;
       fill: none;
       stroke-dasharray: none;
  " />
<path d= "M 263,28" />
 <text x="263" y="28"
 style=" 
 font-family: sans-serif; 
 font-weight: bold;
 font-style: normal;
  font-size: 16;
  stroke: none; 
  fill: rgb(  0%,  0%,  0%);
 text-anchor: middle; 
  ">
 VELOCITY HISTORY
 </text>
<path d= "M 263,56" />
 <text x="263" y="56"
 style=" 
 font-family: sans-serif; 
 font-weight: bold;
 font-style: normal;
  font-size: 14;
  stroke: none; 
  fill: rgb(  0%,  0%,  0%);
 text-anchor: middle; 
  ">
 initial altitude= 1000 meters
 </text>
 </svg>
