 <svg width="100px" height="150px" viewbox="0 0  612 792" 
  version="1.1"  baseProfile="full" 
  xmlns="http://www.w3.org/2000/svg" 
  xmlns:xlink="http://www.w3.org/1999/xlink" 
  xmlns:ev="http://www.w3.org/2001/xml-events"> 
<line x1="70" y1="574" x2="490" y2="574"
 style=" 
       stroke: rgb(0%,0%,0%);
       stroke-width:  0.50;
       fill: none;
       stroke-dasharray: none;
  " />
<line x1="70" y1="518" x2="490" y2="518"
 style=" 
       stroke: rgb(0%,0%,0%);
       stroke-width:  0.50;
       fill: none;
       stroke-dasharray: none;
  " />
<line x1="70" y1="462" x2="490" y2="462"
 style=" 
       stroke: rgb(0%,0%,0%);
       stroke-width:  0.50;
       fill: none;
       stroke-dasharray: none;
  " />
<line x1="70" y1="406" x2="490" y2="406"
 style=" 
       stroke: rgb(0%,0%,0%);
       stroke-width:  0.50;
       fill: none;
       stroke-dasharray: none;
  " />
<line x1="70" y1="350" x2="490" y2="350"
 style=" 
       stroke: rgb(0%,0%,0%);
       stroke-width:  0.50;
       fill: none;
       stroke-dasharray: none;
  " />
<line x1="70" y1="294" x2="490" y2="294"
 style=" 
       stroke: rgb(0%,0%,0%);
       stroke-width:  0.50;
       fill: none;
       stroke-dasharray: none;
  " />
<line x1="70" y1="238" x2="490" y2="238"
 style=" 
       stroke: rgb(0%,0%,0%);
       stroke-width:  0.50;
       fill: none;
       stroke-dasharray: none;
  " />
<line x1="70" y1="182" x2="490" y2="182"
 style=" 
       stroke: rgb(0%,0%,0%);
       stroke-width:  0.50;
       fill: none;
       stroke-dasharray: none;
  " />
<line x1="70" y1="126" x2="490" y2="126"
 style=" 
       stroke: rgb(0%,0%,0%);
       stroke-width:  0.50;
       fill: none;
       stroke-dasharray: none;
  " />
<line x1="140" y1="630" x2="140" y2="70"
 style=" 
       stroke: rgb(0%,0%,0%);
       stroke-width:  0.50;
       fill: none;
       stroke-dasharray: none;
  " />
<line x1="210" y1="630" x2="210" y2="70"
 style=" 
       stroke: rgb(0%,0%,0%);
       stroke-width:  0.50;
       fill: none;
       stroke-dasharray: none;
  " />
<line x1="280" y1="630" x2="280" y2="70"
 style=" 
       stroke: rgb(0%,0%,0%);
       stroke-width:  0.50;
       fill: none;
       stroke-dasharray: none;
  " />
<line x1="350" y1="630" x2="350" y2="70"
 style=" 
       stroke: rgb(0%,0%,0%);
       stroke-width:  0.50;
       fill: none;
       stroke-dasharray: none;
  " />
<line x1="420" y1="630" x2="420" y2="70"
 style=" 
       stroke: rgb(0%,0%,0%);
       stroke-width:  0.50;
       fill: none;
       stroke-dasharray: none;
  " />
 <polygon points=" 
   70,630
   490,630
   490,70
   70,70
  " 
 style=" 
       stroke: rgb(0%,0%,0%);
       stroke-width:  0.50;
       fill: none;
       stroke-dasharray: none;
  " />
<path d= "M 70,642" />
 <text x="70" y="642"
 style=" 
 font-family: sans-serif; 
 font-weight: normal;
 font-style: normal;
  font-size: 12;
  stroke: none; 
  fill: rgb(0%,0%,0%);
 text-anchor: start; 
  ">
 0.0
 </text>
<path d= "M 140,642" />
 <text x="140" y="642"
 style=" 
 font-family: sans-serif; 
 font-weight: normal;
 font-style: normal;
  font-size: 12;
  stroke: none; 
  fill: rgb(0%,0%,0%);
 text-anchor: middle; 
  ">
 0.1
 </text>
<path d= "M 210,642" />
 <text x="210" y="642"
 style=" 
 font-family: sans-serif; 
 font-weight: normal;
 font-style: normal;
  font-size: 12;
  stroke: none; 
  fill: rgb(0%,0%,0%);
 text-anchor: middle; 
  ">
 0.2
 </text>
<path d= "M 280,642" />
 <text x="280" y="642"
 style=" 
 font-family: sans-serif; 
 font-weight: normal;
 font-style: normal;
  font-size: 12;
  stroke: none; 
  fill: rgb(0%,0%,0%);
 text-anchor: middle; 
  ">
 0.3
 </text>
<path d= "M 350,642" />
 <text x="350" y="642"
 style=" 
 font-family: sans-serif; 
 font-weight: normal;
 font-style: normal;
  font-size: 12;
  stroke: none; 
  fill: rgb(0%,0%,0%);
 text-anchor: middle; 
  ">
 0.4
 </text>
<path d= "M 420,642" />
 <text x="420" y="642"
 style=" 
 font-family: sans-serif; 
 font-weight: normal;
 font-style: normal;
  font-size: 12;
  stroke: none; 
  fill: rgb(0%,0%,0%);
 text-anchor: middle; 
  ">
 0.5
 </text>
<path d= "M 490,642" />
 <text x="490" y="642"
 style=" 
 font-family: sans-serif; 
 font-weight: normal;
 font-style: normal;
  font-size: 12;
  stroke: none; 
  fill: rgb(0%,0%,0%);
 text-anchor: middle; 
  ">
 0.6
 </text>
<path d= "M 280,653" />
 <text x="280" y="653"
 style=" 
 font-family: sans-serif; 
 font-weight: normal;
 font-style: normal;
  font-size: 12;
  stroke: none; 
  fill: rgb(0%,0%,0%);
 text-anchor: middle; 
  ">
 Mach
 </text>
<path d= "M 69,636" />
 <text x="69" y="636"
 style=" 
 font-family: sans-serif; 
 font-weight: normal;
 font-style: normal;
  font-size: 12;
  stroke: none; 
  fill: rgb(0%,0%,0%);
 text-anchor: end; 
  ">
 0
 </text>
<path d= "M 69,580" />
 <text x="69" y="580"
 style=" 
 font-family: sans-serif; 
 font-weight: normal;
 font-style: normal;
  font-size: 12;
  stroke: none; 
  fill: rgb(0%,0%,0%);
 text-anchor: end; 
  ">
 100
 </text>
<path d= "M 69,524" />
 <text x="69" y="524"
 style=" 
 font-family: sans-serif; 
 font-weight: normal;
 font-style: normal;
  font-size: 12;
  stroke: none; 
  fill: rgb(0%,0%,0%);
 text-anchor: end; 
  ">
 200
 </text>
<path d= "M 69,468" />
 <text x="69" y="468"
 style=" 
 font-family: sans-serif; 
 font-weight: normal;
 font-style: normal;
  font-size: 12;
  stroke: none; 
  fill: rgb(0%,0%,0%);
 text-anchor: end; 
  ">
 300
 </text>
<path d= "M 69,412" />
 <text x="69" y="412"
 style=" 
 font-family: sans-serif; 
 font-weight: normal;
 font-style: normal;
  font-size: 12;
  stroke: none; 
  fill: rgb(0%,0%,0%);
 text-anchor: end; 
  ">
 400
 </text>
<path d= "M 69,356" />
 <text x="69" y="356"
 style=" 
 font-family: sans-serif; 
 font-weight: normal;
 font-style: normal;
  font-size: 12;
  stroke: none; 
  fill: rgb(0%,0%,0%);
 text-anchor: end; 
  ">
 500
 </text>
<path d= "M 69,300" />
 <text x="69" y="300"
 style=" 
 font-family: sans-serif; 
 font-weight: normal;
 font-style: normal;
  font-size: 12;
  stroke: none; 
  fill: rgb(0%,0%,0%);
 text-anchor: end; 
  ">
 600
 </text>
<path d= "M 69,244" />
 <text x="69" y="244"
 style=" 
 font-family: sans-serif; 
 font-weight: normal;
 font-style: normal;
  font-size: 12;
  stroke: none; 
  fill: rgb(0%,0%,0%);
 text-anchor: end; 
  ">
 700
 </text>
<path d= "M 69,188" />
 <text x="69" y="188"
 style=" 
 font-family: sans-serif; 
 font-weight: normal;
 font-style: normal;
  font-size: 12;
  stroke: none; 
  fill: rgb(0%,0%,0%);
 text-anchor: end; 
  ">
 800
 </text>
<path d= "M 69,132" />
 <text x="69" y="132"
 style=" 
 font-family: sans-serif; 
 font-weight: normal;
 font-style: normal;
  font-size: 12;
  stroke: none; 
  fill: rgb(0%,0%,0%);
 text-anchor: end; 
  ">
 900
 </text>
<path d= "M 69,76" />
 <text x="69" y="76"
 style=" 
 font-family: sans-serif; 
 font-weight: normal;
 font-style: normal;
  font-size: 12;
  stroke: none; 
  fill: rgb(0%,0%,0%);
 text-anchor: end; 
  ">
 1000
 </text>
<path d= "M 35,350" />
 <g transform="translate(          35 ,         350 )">
 <g transform="rotate(-90)">
 <text x="0" y="0" 
 style=" 
 font-family: sans-serif; 
 font-weight: normal;
 font-style: normal;
  font-size: 12;
  stroke: none; 
  fill: rgb(0%,0%,0%);
 text-anchor: middle; 
  ">
 altitude
 </text>
 </g></g>
 <polyline points=" 
   70,70
   72,70
   74,70
   76,70
   78,70
   80,71
   82,71
   84,71
   86,72
   88,72
   90,73
   92,73
   94,74
   95,74
   97,75
   99,76
   101,77
   102,78
   104,79
   105,79
   107,80
   109,81
   110,83
   111,84
   113,85
   114,86
   115,87
   117,88
   118,90
   119,91
   120,92
   121,94
   122,95
   123,97
   124,98
   125,100
   126,101
   126,103
   127,104
   128,106
   129,107
   129,109
   130,111
   131,112
   131,114
   132,116
   132,117
   133,119
   133,121
   134,122
   134,124
   135,126
   135,128
   136,130
   136,131
   136,133
   137,135
   137,137
   137,139
   137,141
   138,142
   138,144
   138,146
   138,148
   139,150
   139,152
   139,154
   139,155
   139,157
   140,159
   140,161
   140,163
   140,165
   140,167
   140,169
   140,171
   140,173
   140,175
   140,177
   141,178
   141,180
   141,182
   141,184
   141,186
   141,188
   141,190
   141,192
   141,194
   141,196
   141,198
   141,200
   141,202
   141,204
   141,206
   141,208
   141,210
   141,212
   141,214
   141,216
   141,218
   141,219
   141,221
   141,223
   142,225
   142,227
   142,229
   142,231
   142,233
   142,235
   142,237
   142,239
   142,241
   142,243
   142,245
   142,247
   142,249
   142,251
   142,253
   142,255
   142,257
   142,259
   142,261
   142,263
   141,265
   141,267
   141,269
   141,271
   141,272
   141,274
   141,276
   141,278
   141,280
   141,282
   141,284
   141,286
   141,288
   141,290
   141,292
   141,294
   141,296
   141,298
   141,300
   141,302
   141,304
   141,306
   141,308
   141,310
   141,312
   141,314
   141,316
   141,318
   141,320
   141,322
   141,324
   141,325
   141,327
   141,329
   141,331
   141,333
   141,335
   141,337
   141,339
   141,341
   141,343
   141,345
   141,347
   141,349
   141,351
   141,353
   141,355
   141,357
   141,359
   141,361
   141,363
   141,365
   141,366
   141,368
   141,370
   141,372
   141,374
   141,376
   141,378
   141,380
   141,382
   141,384
   141,386
   141,388
   141,390
   141,392
   141,394
   141,396
   141,398
   141,400
   141,402
   141,403
   141,405
   141,407
   141,409
   140,411
   140,413
   140,415
   140,417
   140,419
   140,421
   140,423
   140,425
   140,427
   140,429
   140,431
   140,433
   140,435
   140,437
   140,438
   140,440
   140,442
   140,444
   140,446
   140,448
   140,450
   140,452
   140,454
   140,456
   140,458
   140,460
   140,462
   140,464
   140,466
   140,467
   140,469
   140,471
   140,473
   140,475
   140,477
   140,479
   140,481
   140,483
   140,485
   140,487
   140,489
   140,491
   140,493
   140,495
   140,496
   140,498
   140,500
   140,502
   140,504
   140,506
   140,508
   140,510
   140,512
   140,514
   140,516
   140,518
   140,520
   140,522
   140,523
   140,525
   140,527
   140,529
   140,531
   140,533
   140,535
   140,537
   140,539
   140,541
   140,543
   140,545
   140,547
   140,548
   140,550
   139,552
   139,554
   139,556
   139,558
   139,560
   139,562
   139,564
   139,566
   139,568
   139,570
   139,571
   139,573
   139,575
   139,577
   139,579
   139,581
   139,583
   139,585
   139,587
   139,589
   139,591
   139,593
   139,594
   139,596
   139,598
   139,600
   139,602
   139,604
   139,606
   139,608
   139,610
   139,612
   139,614
   139,615
   139,617
   139,619
   139,621
   139,623
   139,625
   139,627
   139,629
   139,630
  " 
 style=" 
       stroke: rgb(100%,  0%,  0%);
       stroke-width:  2.00;
       fill: none;
       stroke-dasharray: none;
  " />
 <polyline points=" 
   70,70
   72,70
   74,70
   76,70
   78,70
   80,71
   82,71
   84,71
   86,72
   88,72
   90,73
   92,73
   94,74
   96,75
   98,75
   101,76
   103,77
   105,78
   107,79
   109,80
   111,81
   113,82
   115,83
   117,85
   119,86
   121,87
   123,89
   125,90
   127,92
   129,93
   131,95
   133,96
   135,98
   137,100
   139,102
   141,104
   143,106
   145,108
   147,110
   149,112
   151,114
   153,116
   155,119
   157,121
   159,123
   161,126
   162,128
   164,131
   166,133
   168,136
   170,139
   172,142
   174,144
   176,147
   178,150
   180,153
   182,156
   183,159
   185,162
   187,165
   189,169
   191,172
   193,175
   195,179
   196,182
   198,186
   200,189
   202,193
   204,196
   205,200
   207,204
   209,208
   211,211
   213,215
   214,219
   216,223
   218,227
   220,231
   221,235
   223,240
   225,244
   227,248
   228,252
   230,257
   232,261
   233,266
   235,270
   237,275
   238,279
   240,284
   242,289
   243,293
   245,298
   247,303
   248,308
   250,313
   252,318
   253,323
   255,328
   256,333
   258,338
   259,343
   261,348
   263,354
   264,359
   266,364
   267,370
   269,375
   270,381
   272,386
   273,392
   275,397
   276,403
   277,409
   279,414
   280,420
   282,426
   283,432
   285,438
   286,444
   287,450
   289,456
   290,462
   292,468
   293,474
   294,480
   296,486
   297,493
   298,499
   300,505
   301,512
   302,518
   304,524
   305,531
   306,537
   307,544
   309,550
   310,557
   311,564
   312,570
   314,577
   315,584
   316,591
   317,597
   318,604
   319,611
   321,618
   322,625
   323,630
  " 
 style=" 
       stroke: rgb(  0%,100%,  0%);
       stroke-width:  2.00;
       fill: none;
       stroke-dasharray: none;
  " />
 <polyline points=" 
   70,70
   72,70
   74,70
   76,70
   78,70
   80,71
   82,71
   84,71
   86,72
   88,72
   90,73
   92,73
   94,74
   96,75
   98,75
   100,76
   102,77
   104,78
   106,79
   108,80
   110,81
   112,82
   114,83
   116,84
   118,86
   120,87
   122,88
   124,90
   126,91
   128,93
   130,94
   132,96
   134,98
   136,100
   138,101
   140,103
   142,105
   144,107
   146,109
   148,111
   150,113
   152,116
   154,118
   155,120
   157,123
   159,125
   161,127
   163,130
   165,133
   167,135
   169,138
   171,141
   173,143
   174,146
   176,149
   178,152
   180,155
   182,158
   184,161
   186,164
   187,167
   189,171
   191,174
   193,177
   195,181
   196,184
   198,188
   200,191
   202,195
   203,198
   205,202
   207,206
   208,209
   210,213
   212,217
   214,221
   215,225
   217,229
   218,233
   220,237
   222,241
   223,245
   225,250
   227,254
   228,258
   230,263
   231,267
   233,271
   234,276
   236,280
   237,285
   239,290
   240,294
   242,299
   243,304
   245,309
   246,313
   247,318
   249,323
   250,328
   252,333
   253,338
   254,343
   256,348
   257,353
   258,358
   260,364
   261,369
   262,374
   263,379
   265,385
   266,390
   267,395
   268,401
   269,406
   271,412
   272,417
   273,423
   274,429
   275,434
   276,440
   277,446
   278,451
   279,457
   280,463
   282,469
   283,475
   284,480
   285,486
   286,492
   287,498
   287,504
   288,510
   289,516
   290,522
   291,528
   292,535
   293,541
   294,547
   295,553
   296,559
   296,565
   297,572
   298,578
   299,584
   300,591
   300,597
   301,603
   302,610
   303,616
   303,623
   304,629
   304,630
  " 
 style=" 
       stroke: rgb(  0%,  0%,100%);
       stroke-width:  2.00;
       fill: none;
       stroke-dasharray: none;
  " />
 <polyline points=" 
   70,70
   72,70
   74,70
   76,70
   78,70
   79,71
   81,71
   82,71
   83,72
   84,72
   85,72
   85,73
   86,73
   86,74
   87,74
   87,74
   87,75
   87,75
   88,76
   88,76
   88,77
   88,77
   88,78
   88,78
   88,79
   88,79
   88,80
   88,80
   88,81
   88,81
   88,82
   88,82
   88,83
   88,83
   88,84
   88,84
   88,85
   88,85
   88,86
   88,86
   88,87
   88,87
   88,88
   88,88
   88,89
   88,89
   88,90
   88,90
   88,91
   88,91
   88,92
   88,92
   88,93
   88,93
   88,94
   88,94
   88,95
   88,95
   88,96
   88,96
   88,97
   88,97
   88,98
   88,98
   88,99
   88,99
   88,100
   88,100
   88,101
   88,101
   88,102
   88,102
   88,103
   88,103
   88,103
   88,104
   88,104
   88,105
   88,106
   88,106
   88,106
   88,107
   88,107
   88,108
   88,108
   88,109
   88,109
   88,110
   88,110
   88,111
   88,111
   88,112
   88,112
   88,113
   88,113
   88,114
   88,114
   88,115
   88,115
   88,116
   88,116
   88,117
   88,117
   88,118
   88,118
   88,119
   88,119
   88,120
   88,120
   88,121
   88,121
   88,122
   88,122
   88,123
   88,123
   88,124
   88,124
   88,125
   88,125
   88,126
   88,126
   88,127
   88,127
   88,128
   88,128
   88,129
   88,129
   88,130
   88,130
   88,131
   88,131
   88,132
   88,132
   88,133
   88,133
   88,134
   88,134
   88,135
   88,135
   88,136
   88,136
   88,137
   88,137
   88,138
   88,138
   88,139
   88,139
   88,140
   88,140
   88,141
   88,141
   88,142
   88,142
   88,143
   88,143
   88,143
   88,144
   88,144
   88,145
   88,145
   88,146
   88,146
   88,147
   88,147
   88,148
   88,148
   88,149
   88,149
   88,150
   88,150
   88,151
   88,151
   88,152
   88,152
   88,153
   88,153
   88,154
   88,154
   88,155
   88,155
   88,156
   88,156
   88,157
   88,157
   88,158
   88,158
   88,159
   88,159
   88,160
   88,160
   88,161
   88,161
   88,162
   88,162
   88,163
   88,163
   88,164
   88,164
   88,165
   88,165
   88,166
   88,166
   88,167
   88,167
   88,168
   88,168
   88,169
   88,169
   88,170
   88,170
   88,171
   88,171
   88,172
   88,172
   88,173
   88,173
   88,173
   88,174
   88,174
   88,175
   88,175
   88,176
   88,176
   88,177
   88,177
   88,178
   88,178
   88,179
   88,179
   88,180
   88,180
   88,181
   88,181
   88,182
   88,182
   88,183
   88,183
   88,184
   88,184
   88,185
   88,185
   88,186
   88,186
   88,187
   88,187
   88,188
   88,188
   88,189
   88,189
   88,190
   88,190
   88,191
   88,191
   88,192
   88,192
   88,193
   88,193
   88,194
   88,194
   88,195
   88,195
   88,196
   88,196
   88,197
   88,197
   88,198
   88,198
   88,199
   88,199
   88,200
   88,200
   88,200
   88,201
   88,201
   88,202
   88,202
   88,203
   88,203
   88,204
   88,204
   88,205
   88,205
   88,206
   88,206
   88,207
   88,207
   88,208
   88,208
   88,209
   88,209
   88,210
   88,210
   88,211
   88,211
   88,212
   88,212
   88,213
   88,213
   88,214
   88,214
   88,215
   88,215
   88,216
   88,216
   88,217
   88,217
   88,218
   88,218
   88,219
   88,219
   88,220
   88,220
   88,221
   88,221
   88,222
   88,222
   88,223
   88,223
   88,223
   88,224
   88,225
   88,225
   88,225
   88,226
   88,226
   88,227
   88,227
   88,228
   88,228
   88,229
   88,229
   88,230
   88,230
   88,231
   88,231
   88,232
   88,232
   88,233
   88,233
   88,234
   88,234
   88,235
   88,235
   88,236
   88,236
   88,237
   88,237
   88,238
   88,238
   88,239
   88,239
   88,240
   88,240
   88,241
   88,241
   88,242
   88,242
   88,243
   88,243
   88,244
   88,244
   88,244
   88,245
   88,246
   88,246
   88,246
   88,247
   88,247
   88,248
   88,248
   88,249
   88,249
   88,250
   88,250
   88,251
   88,251
   88,252
   88,252
   88,253
   88,253
   88,254
   88,254
   88,255
   88,255
   88,256
   88,256
   88,257
   88,257
   88,258
   88,258
   88,259
   88,259
   88,260
   88,260
   88,261
   88,261
   88,262
   88,262
   88,263
   88,263
   88,264
   88,264
   88,265
   88,265
   88,265
   88,266
   88,267
   88,267
   88,267
   88,268
   88,268
   88,269
   88,269
   88,270
   88,270
   88,271
   88,271
   88,272
   88,272
   88,273
   88,273
   88,274
   88,274
   88,275
   88,275
   88,276
   88,276
   88,277
   88,277
   88,278
   88,278
   88,279
   88,279
   88,280
   88,280
   88,281
   88,281
   88,282
   88,282
   88,283
   88,283
   88,284
   88,284
   88,284
   88,285
   88,285
   88,286
   88,286
   88,287
   88,287
   88,288
   88,288
   88,289
   88,289
   88,290
   88,290
   88,291
   88,291
   88,292
   88,292
   88,293
   88,293
   88,294
   88,294
   88,295
   88,295
   88,296
   88,296
   88,297
   88,297
   88,298
   88,298
   88,299
   88,299
   88,300
   88,300
   88,301
   88,301
   88,302
   88,302
   88,303
   88,303
   88,303
   88,304
   88,304
   88,305
   88,305
   88,306
   88,306
   88,307
   88,307
   88,308
   88,308
   88,309
   88,309
   88,310
   88,310
   88,311
   88,311
   88,312
   88,312
   88,313
   88,313
   88,314
   88,314
   88,315
   88,315
   88,316
   88,316
   88,317
   88,317
   88,318
   88,318
   88,319
   88,319
   88,319
   88,320
   88,320
   88,321
   88,321
   88,322
   88,322
   88,323
   88,323
   88,324
   88,324
   88,325
   88,325
   88,326
   88,326
   88,327
   88,327
   88,328
   88,328
   88,329
   88,329
   88,330
   88,330
   88,331
   88,331
   88,332
   88,332
   88,333
   88,333
   88,334
   88,334
   88,334
   88,335
   88,335
   88,336
   88,336
   88,337
   88,337
   88,338
   88,338
   88,339
   88,339
   88,340
   88,340
   88,341
   88,341
   88,342
   88,342
   88,343
   88,343
   88,344
   88,344
   88,345
   88,345
   88,346
   88,346
   88,347
   88,347
   88,348
   88,348
   88,349
   88,349
   88,349
   88,350
   88,351
   88,351
   88,351
   88,352
   88,352
   88,353
   88,353
   88,354
   88,354
   88,355
   88,355
   88,356
   88,356
   88,357
   88,357
   88,358
   88,358
   88,359
   88,359
   88,360
   88,360
   88,361
   88,361
   88,362
   88,362
   88,363
   88,363
   88,364
   88,364
   88,365
   88,365
   88,365
   88,366
   88,366
   88,367
   88,367
   88,368
   88,368
   88,369
   88,369
   88,370
   88,370
   88,371
   88,371
   88,372
   88,372
   88,373
   88,373
   88,374
   88,374
   88,375
   88,375
   88,376
   88,376
   88,377
   88,377
   88,378
   88,378
   88,379
   88,379
   88,379
   88,380
   88,380
   88,381
   88,381
   88,382
   88,382
   88,383
   88,383
   88,384
   88,384
   88,385
   88,385
   88,386
   88,386
   88,387
   88,387
   88,388
   88,388
   88,389
   88,389
   88,390
   88,390
   88,391
   88,391
   88,392
   88,392
   88,393
   88,393
   88,393
   88,394
   88,394
   88,395
   88,395
   88,396
   88,396
   88,397
   88,397
   88,398
   88,398
   88,399
   88,399
   88,400
   88,400
   88,401
   88,401
   88,402
   88,402
   88,403
   88,403
   88,404
   88,404
   88,405
   88,405
   88,405
   88,406
   88,407
   88,407
   88,407
   88,408
   88,408
   88,409
   88,409
   88,410
   88,410
   88,411
   88,411
   88,412
   88,412
   87,413
   87,413
   87,414
   87,414
   87,415
   87,415
   87,416
   87,416
   87,417
   87,417
   87,418
   87,418
   87,418
   87,419
   87,419
   87,420
   87,420
   87,421
   87,421
   87,422
   87,422
   87,423
   87,423
   87,424
   87,424
   87,425
   87,425
   87,426
   87,426
   87,427
   87,427
   87,428
   87,428
   87,429
   87,429
   87,430
   87,430
   87,431
   87,431
   87,431
   87,432
   87,432
   87,433
   87,433
   87,434
   87,434
   87,435
   87,435
   87,436
   87,436
   87,437
   87,437
   87,438
   87,438
   87,439
   87,439
   87,440
   87,440
   87,441
   87,441
   87,442
   87,442
   87,443
   87,443
   87,444
   87,444
   87,444
   87,445
   87,445
   87,446
   87,446
   87,447
   87,447
   87,448
   87,448
   87,449
   87,449
   87,450
   87,450
   87,451
   87,451
   87,452
   87,452
   87,453
   87,453
   87,454
   87,454
   87,455
   87,455
   87,456
   87,456
   87,456
   87,457
   87,457
   87,458
   87,458
   87,459
   87,459
   87,460
   87,460
   87,461
   87,461
   87,462
   87,462
   87,463
   87,463
   87,464
   87,464
   87,465
   87,465
   87,466
   87,466
   87,467
   87,467
   87,467
   87,468
   87,468
   87,469
   87,469
   87,470
   87,470
   87,471
   87,471
   87,472
   87,472
   87,473
   87,473
   87,474
   87,474
   87,475
   87,475
   87,476
   87,476
   87,477
   87,477
   87,478
   87,478
   87,478
   87,479
   87,479
   87,480
   87,480
   87,481
   87,481
   87,482
   87,482
   87,483
   87,483
   87,484
   87,484
   87,485
   87,485
   87,486
   87,486
   87,487
   87,487
   87,488
   87,488
   87,489
   87,489
   87,489
   87,490
   87,490
   87,491
   87,491
   87,492
   87,492
   87,493
   87,493
   87,494
   87,494
   87,495
   87,495
   87,496
   87,496
   87,497
   87,497
   87,498
   87,498
   87,499
   87,499
   87,500
   87,500
   87,500
   87,501
   87,501
   87,502
   87,502
   87,503
   87,503
   87,504
   87,504
   87,505
   87,505
   87,506
   87,506
   87,507
   87,507
   87,508
   87,508
   87,509
   87,509
   87,510
   87,510
   87,510
   87,511
   87,511
   87,512
   87,512
   87,513
   87,513
   87,514
   87,514
   87,515
   87,515
   87,516
   87,516
   87,517
   87,517
   87,518
   87,518
   87,519
   87,519
   87,520
   87,520
   87,521
   87,521
   87,521
   87,522
   87,522
   87,523
   87,523
   87,524
   87,524
   87,525
   87,525
   87,526
   87,526
   87,527
   87,527
   87,528
   87,528
   87,529
   87,529
   87,530
   87,530
   87,531
   87,531
   87,531
   87,532
   87,532
   87,533
   87,533
   87,534
   87,534
   87,535
   87,535
   87,536
   87,536
   87,537
   87,537
   87,538
   87,538
   87,539
   87,539
   87,540
   87,540
   87,541
   87,541
   87,541
   87,542
   87,542
   87,543
   87,543
   87,544
   87,544
   87,545
   87,545
   87,546
   87,546
   87,547
   87,547
   87,548
   87,548
   87,549
   87,549
   87,550
   87,550
   87,551
   87,551
   87,551
   87,552
   87,552
   87,553
   87,553
   87,554
   87,554
   87,555
   87,555
   87,556
   87,556
   87,557
   87,557
   87,558
   87,558
   87,559
   87,559
   87,560
   87,560
   87,561
   87,561
   87,561
   87,562
   87,562
   87,563
   87,563
   87,564
   87,564
   87,565
   87,565
   87,566
   87,566
   87,567
   87,567
   87,568
   87,568
   87,569
   87,569
   87,570
   87,570
   87,570
   87,571
   87,571
   87,572
   87,572
   87,573
   87,573
   87,574
   87,574
   87,575
   87,575
   87,576
   87,576
   87,577
   87,577
   87,578
   87,578
   87,579
   87,579
   87,579
   87,580
   87,580
   87,581
   87,581
   87,582
   87,582
   87,583
   87,583
   87,584
   87,584
   87,585
   87,585
   87,586
   87,586
   87,587
   87,587
   87,588
   87,588
   87,589
   87,589
   87,589
   87,590
   87,590
   87,591
   87,591
   87,592
   87,592
   87,593
   87,593
   87,594
   87,594
   87,595
   87,595
   87,596
   87,596
   87,597
   87,597
   87,598
   87,598
   87,598
   87,599
   87,599
   87,600
   87,600
   87,601
   87,601
   87,602
   87,602
   87,603
   87,603
   87,604
   87,604
   87,605
   87,605
   87,606
   87,606
   87,606
   87,607
   87,607
   87,608
   87,608
   87,609
   87,609
   87,610
   87,610
   87,611
   87,611
   87,612
   87,612
   87,613
   87,613
   87,614
   87,614
   87,615
   87,615
   87,615
   87,616
   87,616
   87,617
   87,617
   87,618
   87,618
   87,619
   87,619
   87,620
   87,620
   87,621
   87,621
   87,622
   87,622
   87,623
   87,623
   87,624
   87,624
   87,624
   87,625
   87,625
   87,626
   87,626
   87,627
   87,627
   87,628
   87,628
   87,629
   87,629
   87,630
   87,630
  " 
 style=" 
       stroke: rgb(100%, 50%,  0%);
       stroke-width:  2.00;
       fill: none;
       stroke-dasharray: none;
  " />
 <polyline points=" 
   70,70
   72,70
   74,70
   76,70
   78,70
   80,71
   82,71
   84,71
   86,72
   87,72
   89,73
   91,73
   92,74
   94,74
   95,75
   97,76
   98,76
   99,77
   100,78
   101,79
   102,80
   103,81
   104,82
   105,83
   106,83
   107,85
   107,86
   108,87
   109,88
   109,89
   110,90
   110,91
   110,92
   111,93
   111,94
   112,95
   112,96
   112,98
   112,99
   113,100
   113,101
   113,102
   113,103
   113,105
   114,106
   114,107
   114,108
   114,109
   114,111
   114,112
   114,113
   114,114
   114,115
   114,117
   114,118
   115,119
   115,120
   115,122
   115,123
   115,124
   115,125
   115,126
   115,128
   115,129
   115,130
   115,131
   115,133
   115,134
   115,135
   115,136
   115,137
   115,139
   115,140
   115,141
   115,142
   115,144
   115,145
   115,146
   115,147
   115,149
   115,150
   115,151
   115,152
   115,153
   115,155
   115,156
   115,157
   115,158
   115,160
   115,161
   115,162
   115,163
   115,165
   115,166
   115,167
   115,168
   115,169
   115,171
   115,172
   115,173
   115,174
   115,176
   115,177
   115,178
   115,179
   115,181
   115,182
   115,183
   115,184
   115,185
   115,187
   115,188
   115,189
   115,190
   115,192
   115,193
   115,194
   115,195
   115,197
   115,198
   115,199
   115,200
   115,201
   115,203
   115,204
   115,205
   115,206
   115,208
   115,209
   115,210
   115,211
   115,212
   115,214
   115,215
   115,216
   115,217
   115,219
   115,220
   115,221
   115,222
   115,223
   115,225
   115,226
   115,227
   115,228
   115,230
   115,231
   115,232
   115,233
   115,235
   115,236
   115,237
   115,238
   115,239
   115,241
   115,242
   115,243
   115,244
   115,246
   115,247
   115,248
   115,249
   115,250
   115,252
   115,253
   115,254
   115,255
   115,257
   114,258
   114,259
   114,260
   114,261
   114,263
   114,264
   114,265
   114,266
   114,268
   114,269
   114,270
   114,271
   114,272
   114,274
   114,275
   114,276
   114,277
   114,279
   114,280
   114,281
   114,282
   114,283
   114,285
   114,286
   114,287
   114,288
   114,290
   114,291
   114,292
   114,293
   114,294
   114,296
   114,297
   114,298
   114,299
   114,300
   114,302
   114,303
   114,304
   114,305
   114,307
   114,308
   114,309
   114,310
   114,311
   114,313
   114,314
   114,315
   114,316
   114,318
   114,319
   114,320
   114,321
   114,322
   114,324
   114,325
   114,326
   114,327
   114,328
   114,330
   114,331
   114,332
   114,333
   114,334
   114,336
   114,337
   114,338
   114,339
   114,341
   114,342
   114,343
   114,344
   114,345
   114,347
   114,348
   114,349
   114,350
   114,352
   114,353
   114,354
   114,355
   114,356
   114,358
   114,359
   114,360
   114,361
   114,362
   114,364
   114,365
   114,366
   114,367
   114,368
   114,370
   114,371
   114,372
   114,373
   114,374
   114,376
   114,377
   114,378
   114,379
   114,381
   114,382
   114,383
   114,384
   114,385
   114,387
   114,388
   114,389
   114,390
   114,391
   114,393
   114,394
   114,395
   114,396
   114,397
   114,399
   114,400
   114,401
   114,402
   114,403
   114,405
   114,406
   114,407
   114,408
   114,410
   114,411
   114,412
   114,413
   114,414
   114,416
   114,417
   114,418
   114,419
   114,420
   114,422
   114,423
   114,424
   114,425
   114,426
   114,428
   114,429
   114,430
   114,431
   114,432
   114,434
   114,435
   114,436
   114,437
   114,438
   114,440
   114,441
   114,442
   114,443
   114,444
   114,446
   114,447
   114,448
   114,449
   114,450
   114,452
   114,453
   114,454
   114,455
   114,456
   114,458
   114,459
   114,460
   114,461
   114,462
   114,464
   114,465
   113,466
   113,467
   113,468
   113,470
   113,471
   113,472
   113,473
   113,474
   113,476
   113,477
   113,478
   113,479
   113,480
   113,482
   113,483
   113,484
   113,485
   113,486
   113,488
   113,489
   113,490
   113,491
   113,492
   113,494
   113,495
   113,496
   113,497
   113,498
   113,500
   113,501
   113,502
   113,503
   113,504
   113,506
   113,507
   113,508
   113,509
   113,510
   113,512
   113,513
   113,514
   113,515
   113,516
   113,518
   113,519
   113,520
   113,521
   113,522
   113,523
   113,525
   113,526
   113,527
   113,528
   113,529
   113,531
   113,532
   113,533
   113,534
   113,535
   113,537
   113,538
   113,539
   113,540
   113,541
   113,543
   113,544
   113,545
   113,546
   113,547
   113,549
   113,550
   113,551
   113,552
   113,553
   113,555
   113,556
   113,557
   113,558
   113,559
   113,560
   113,562
   113,563
   113,564
   113,565
   113,566
   113,568
   113,569
   113,570
   113,571
   113,572
   113,574
   113,575
   113,576
   113,577
   113,578
   113,579
   113,581
   113,582
   113,583
   113,584
   113,585
   113,587
   113,588
   113,589
   113,590
   113,591
   113,593
   113,594
   113,595
   113,596
   113,597
   113,598
   113,600
   113,601
   113,602
   113,603
   113,604
   113,606
   113,607
   113,608
   113,609
   113,610
   113,612
   113,613
   113,614
   113,615
   113,616
   113,617
   113,619
   113,620
   113,621
   113,622
   113,623
   113,625
   113,626
   113,627
   113,628
   113,629
   113,630
  " 
 style=" 
       stroke: rgb(100%,100%, 50%);
       stroke-width:  2.00;
       fill: none;
       stroke-dasharray: none;
  " />
 <polyline points=" 
   70,70
   72,70
   74,70
   76,70
   78,70
   80,71
   82,71
   84,71
   86,72
   88,72
   90,73
   92,73
   95,74
   97,75
   99,75
   101,76
   103,77
   105,78
   107,79
   109,80
   111,81
   113,82
   115,83
   117,85
   119,86
   121,87
   123,89
   125,90
   127,92
   129,93
   131,95
   133,96
   135,98
   137,100
   139,102
   141,104
   143,106
   145,108
   147,110
   150,112
   152,114
   154,116
   156,118
   158,121
   160,123
   162,126
   164,128
   166,131
   168,133
   170,136
   172,139
   174,141
   176,144
   178,147
   180,150
   182,153
   184,156
   186,159
   188,162
   190,166
   192,169
   194,172
   196,176
   198,179
   200,182
   202,186
   204,190
   206,193
   208,197
   210,201
   212,205
   214,208
   217,212
   218,216
   221,220
   223,224
   225,229
   227,233
   229,237
   231,241
   233,246
   235,250
   237,255
   239,259
   241,264
   243,268
   245,273
   247,278
   249,283
   251,288
   253,292
   255,297
   257,302
   259,307
   261,313
   263,318
   265,323
   267,328
   269,334
   271,339
   273,345
   275,350
   277,356
   279,361
   281,367
   283,373
   285,379
   287,384
   289,390
   291,396
   293,402
   295,408
   297,414
   299,421
   301,427
   303,433
   305,439
   307,446
   309,452
   311,459
   313,465
   315,472
   317,479
   319,485
   321,492
   323,499
   325,506
   327,513
   329,520
   331,527
   333,534
   335,541
   337,548
   339,556
   341,563
   343,570
   345,578
   347,585
   349,593
   351,601
   353,608
   355,616
   357,624
   358,632
  " 
 style=" 
       stroke: rgb(  0%,  0%,  0%);
       stroke-width:  2.00;
       fill: none;
       stroke-dasharray: none;
  " />
<path d= "M 263,28" />
 <text x="263" y="28"
 style=" 
 font-family: sans-serif; 
 font-weight: bold;
 font-style: normal;
  font-size: 16;
  stroke: none; 
  fill: rgb(  0%,  0%,  0%);
 text-anchor: middle; 
  ">
 ALTITUDE VS. MACH NUMBER
 </text>
<path d= "M 263,56" />
 <text x="263" y="56"
 style=" 
 font-family: sans-serif; 
 font-weight: bold;
 font-style: normal;
  font-size: 14;
  stroke: none; 
  fill: rgb(  0%,  0%,  0%);
 text-anchor: middle; 
  ">
 initial altitude= 1000 meters
 </text>
 </svg>
