 <svg width="100px" height="150px" viewbox="0 0  612 792" 
  version="1.1"  baseProfile="full" 
  xmlns="http://www.w3.org/2000/svg" 
  xmlns:xlink="http://www.w3.org/1999/xlink" 
  xmlns:ev="http://www.w3.org/2001/xml-events"> 
<line x1="70" y1="574" x2="490" y2="574"
 style=" 
       stroke: rgb(0%,0%,0%);
       stroke-width:  0.50;
       fill: none;
       stroke-dasharray: none;
  " />
<line x1="70" y1="518" x2="490" y2="518"
 style=" 
       stroke: rgb(0%,0%,0%);
       stroke-width:  0.50;
       fill: none;
       stroke-dasharray: none;
  " />
<line x1="70" y1="462" x2="490" y2="462"
 style=" 
       stroke: rgb(0%,0%,0%);
       stroke-width:  0.50;
       fill: none;
       stroke-dasharray: none;
  " />
<line x1="70" y1="406" x2="490" y2="406"
 style=" 
       stroke: rgb(0%,0%,0%);
       stroke-width:  0.50;
       fill: none;
       stroke-dasharray: none;
  " />
<line x1="70" y1="350" x2="490" y2="350"
 style=" 
       stroke: rgb(0%,0%,0%);
       stroke-width:  0.50;
       fill: none;
       stroke-dasharray: none;
  " />
<line x1="70" y1="294" x2="490" y2="294"
 style=" 
       stroke: rgb(0%,0%,0%);
       stroke-width:  0.50;
       fill: none;
       stroke-dasharray: none;
  " />
<line x1="70" y1="238" x2="490" y2="238"
 style=" 
       stroke: rgb(0%,0%,0%);
       stroke-width:  0.50;
       fill: none;
       stroke-dasharray: none;
  " />
<line x1="70" y1="182" x2="490" y2="182"
 style=" 
       stroke: rgb(0%,0%,0%);
       stroke-width:  0.50;
       fill: none;
       stroke-dasharray: none;
  " />
<line x1="70" y1="126" x2="490" y2="126"
 style=" 
       stroke: rgb(0%,0%,0%);
       stroke-width:  0.50;
       fill: none;
       stroke-dasharray: none;
  " />
<line x1="154" y1="630" x2="154" y2="70"
 style=" 
       stroke: rgb(0%,0%,0%);
       stroke-width:  0.50;
       fill: none;
       stroke-dasharray: none;
  " />
<line x1="238" y1="630" x2="238" y2="70"
 style=" 
       stroke: rgb(0%,0%,0%);
       stroke-width:  0.50;
       fill: none;
       stroke-dasharray: none;
  " />
<line x1="322" y1="630" x2="322" y2="70"
 style=" 
       stroke: rgb(0%,0%,0%);
       stroke-width:  0.50;
       fill: none;
       stroke-dasharray: none;
  " />
<line x1="406" y1="630" x2="406" y2="70"
 style=" 
       stroke: rgb(0%,0%,0%);
       stroke-width:  0.50;
       fill: none;
       stroke-dasharray: none;
  " />
 <polygon points=" 
   70,630
   490,630
   490,70
   70,70
  " 
 style=" 
       stroke: rgb(0%,0%,0%);
       stroke-width:  0.50;
       fill: none;
       stroke-dasharray: none;
  " />
<path d= "M 70,642" />
 <text x="70" y="642"
 style=" 
 font-family: sans-serif; 
 font-weight: normal;
 font-style: normal;
  font-size: 12;
  stroke: none; 
  fill: rgb(0%,0%,0%);
 text-anchor: start; 
  ">
 0
 </text>
<path d= "M 154,642" />
 <text x="154" y="642"
 style=" 
 font-family: sans-serif; 
 font-weight: normal;
 font-style: normal;
  font-size: 12;
  stroke: none; 
  fill: rgb(0%,0%,0%);
 text-anchor: middle; 
  ">
 10
 </text>
<path d= "M 238,642" />
 <text x="238" y="642"
 style=" 
 font-family: sans-serif; 
 font-weight: normal;
 font-style: normal;
  font-size: 12;
  stroke: none; 
  fill: rgb(0%,0%,0%);
 text-anchor: middle; 
  ">
 20
 </text>
<path d= "M 322,642" />
 <text x="322" y="642"
 style=" 
 font-family: sans-serif; 
 font-weight: normal;
 font-style: normal;
  font-size: 12;
  stroke: none; 
  fill: rgb(0%,0%,0%);
 text-anchor: middle; 
  ">
 30
 </text>
<path d= "M 406,642" />
 <text x="406" y="642"
 style=" 
 font-family: sans-serif; 
 font-weight: normal;
 font-style: normal;
  font-size: 12;
  stroke: none; 
  fill: rgb(0%,0%,0%);
 text-anchor: middle; 
  ">
 40
 </text>
<path d= "M 490,642" />
 <text x="490" y="642"
 style=" 
 font-family: sans-serif; 
 font-weight: normal;
 font-style: normal;
  font-size: 12;
  stroke: none; 
  fill: rgb(0%,0%,0%);
 text-anchor: middle; 
  ">
 50
 </text>
<path d= "M 280,653" />
 <text x="280" y="653"
 style=" 
 font-family: sans-serif; 
 font-weight: normal;
 font-style: normal;
  font-size: 12;
  stroke: none; 
  fill: rgb(0%,0%,0%);
 text-anchor: middle; 
  ">
 time
 </text>
<path d= "M 69,636" />
 <text x="69" y="636"
 style=" 
 font-family: sans-serif; 
 font-weight: normal;
 font-style: normal;
  font-size: 12;
  stroke: none; 
  fill: rgb(0%,0%,0%);
 text-anchor: end; 
  ">
 0
 </text>
<path d= "M 69,580" />
 <text x="69" y="580"
 style=" 
 font-family: sans-serif; 
 font-weight: normal;
 font-style: normal;
  font-size: 12;
  stroke: none; 
  fill: rgb(0%,0%,0%);
 text-anchor: end; 
  ">
 100
 </text>
<path d= "M 69,524" />
 <text x="69" y="524"
 style=" 
 font-family: sans-serif; 
 font-weight: normal;
 font-style: normal;
  font-size: 12;
  stroke: none; 
  fill: rgb(0%,0%,0%);
 text-anchor: end; 
  ">
 200
 </text>
<path d= "M 69,468" />
 <text x="69" y="468"
 style=" 
 font-family: sans-serif; 
 font-weight: normal;
 font-style: normal;
  font-size: 12;
  stroke: none; 
  fill: rgb(0%,0%,0%);
 text-anchor: end; 
  ">
 300
 </text>
<path d= "M 69,412" />
 <text x="69" y="412"
 style=" 
 font-family: sans-serif; 
 font-weight: normal;
 font-style: normal;
  font-size: 12;
  stroke: none; 
  fill: rgb(0%,0%,0%);
 text-anchor: end; 
  ">
 400
 </text>
<path d= "M 69,356" />
 <text x="69" y="356"
 style=" 
 font-family: sans-serif; 
 font-weight: normal;
 font-style: normal;
  font-size: 12;
  stroke: none; 
  fill: rgb(0%,0%,0%);
 text-anchor: end; 
  ">
 500
 </text>
<path d= "M 69,300" />
 <text x="69" y="300"
 style=" 
 font-family: sans-serif; 
 font-weight: normal;
 font-style: normal;
  font-size: 12;
  stroke: none; 
  fill: rgb(0%,0%,0%);
 text-anchor: end; 
  ">
 600
 </text>
<path d= "M 69,244" />
 <text x="69" y="244"
 style=" 
 font-family: sans-serif; 
 font-weight: normal;
 font-style: normal;
  font-size: 12;
  stroke: none; 
  fill: rgb(0%,0%,0%);
 text-anchor: end; 
  ">
 700
 </text>
<path d= "M 69,188" />
 <text x="69" y="188"
 style=" 
 font-family: sans-serif; 
 font-weight: normal;
 font-style: normal;
  font-size: 12;
  stroke: none; 
  fill: rgb(0%,0%,0%);
 text-anchor: end; 
  ">
 800
 </text>
<path d= "M 69,132" />
 <text x="69" y="132"
 style=" 
 font-family: sans-serif; 
 font-weight: normal;
 font-style: normal;
  font-size: 12;
  stroke: none; 
  fill: rgb(0%,0%,0%);
 text-anchor: end; 
  ">
 900
 </text>
<path d= "M 69,76" />
 <text x="69" y="76"
 style=" 
 font-family: sans-serif; 
 font-weight: normal;
 font-style: normal;
  font-size: 12;
  stroke: none; 
  fill: rgb(0%,0%,0%);
 text-anchor: end; 
  ">
 1000
 </text>
<path d= "M 35,350" />
 <g transform="translate(          35 ,         350 )">
 <g transform="rotate(-90)">
 <text x="0" y="0" 
 style=" 
 font-family: sans-serif; 
 font-weight: normal;
 font-style: normal;
  font-size: 12;
  stroke: none; 
  fill: rgb(0%,0%,0%);
 text-anchor: middle; 
  ">
 altitude
 </text>
 </g></g>
 <polyline points=" 
   70,70
   71,70
   72,70
   73,70
   73,70
   74,71
   75,71
   76,71
   77,72
   78,72
   78,73
   79,73
   80,74
   81,74
   82,75
   83,76
   83,77
   84,78
   85,79
   86,79
   87,80
   88,81
   88,83
   89,84
   90,85
   91,86
   92,87
   93,88
   94,90
   94,91
   95,92
   96,94
   97,95
   98,97
   99,98
   99,100
   100,101
   101,103
   102,104
   103,106
   104,107
   104,109
   105,111
   106,112
   107,114
   108,116
   109,117
   109,119
   110,121
   111,122
   112,124
   113,126
   114,128
   115,130
   115,131
   116,133
   117,135
   118,137
   119,139
   120,141
   120,142
   121,144
   122,146
   123,148
   124,150
   125,152
   125,154
   126,155
   127,157
   128,159
   129,161
   130,163
   130,165
   131,167
   132,169
   133,171
   134,173
   135,175
   136,177
   136,178
   137,180
   138,182
   139,184
   140,186
   141,188
   141,190
   142,192
   143,194
   144,196
   145,198
   146,200
   146,202
   147,204
   148,206
   149,208
   150,210
   151,212
   151,214
   152,216
   153,218
   154,219
   155,221
   156,223
   157,225
   157,227
   158,229
   159,231
   160,233
   161,235
   162,237
   162,239
   163,241
   164,243
   165,245
   166,247
   167,249
   167,251
   168,253
   169,255
   170,257
   171,259
   172,261
   172,263
   173,265
   174,267
   175,269
   176,271
   177,272
   178,274
   178,276
   179,278
   180,280
   181,282
   182,284
   183,286
   183,288
   184,290
   185,292
   186,294
   187,296
   188,298
   188,300
   189,302
   190,304
   191,306
   192,308
   193,310
   193,312
   194,314
   195,316
   196,318
   197,320
   198,322
   199,324
   199,325
   200,327
   201,329
   202,331
   203,333
   204,335
   204,337
   205,339
   206,341
   207,343
   208,345
   209,347
   209,349
   210,351
   211,353
   212,355
   213,357
   214,359
   214,361
   215,363
   216,365
   217,366
   218,368
   219,370
   220,372
   220,374
   221,376
   222,378
   223,380
   224,382
   225,384
   225,386
   226,388
   227,390
   228,392
   229,394
   230,396
   230,398
   231,400
   232,402
   233,403
   234,405
   235,407
   235,409
   236,411
   237,413
   238,415
   239,417
   240,419
   241,421
   241,423
   242,425
   243,427
   244,429
   245,431
   246,433
   246,435
   247,437
   248,438
   249,440
   250,442
   251,444
   251,446
   252,448
   253,450
   254,452
   255,454
   256,456
   256,458
   257,460
   258,462
   259,464
   260,466
   261,467
   262,469
   262,471
   263,473
   264,475
   265,477
   266,479
   267,481
   267,483
   268,485
   269,487
   270,489
   271,491
   272,493
   272,495
   273,496
   274,498
   275,500
   276,502
   277,504
   277,506
   278,508
   279,510
   280,512
   281,514
   282,516
   283,518
   283,520
   284,522
   285,523
   286,525
   287,527
   288,529
   288,531
   289,533
   290,535
   291,537
   292,539
   293,541
   293,543
   294,545
   295,547
   296,548
   297,550
   298,552
   298,554
   299,556
   300,558
   301,560
   302,562
   303,564
   304,566
   304,568
   305,570
   306,571
   307,573
   308,575
   309,577
   309,579
   310,581
   311,583
   312,585
   313,587
   314,589
   314,591
   315,593
   316,594
   317,596
   318,598
   319,600
   319,602
   320,604
   321,606
   322,608
   323,610
   324,612
   325,614
   325,615
   326,617
   327,619
   328,621
   329,623
   330,625
   330,627
   331,629
   332,630
  " 
 style=" 
       stroke: rgb(100%,  0%,  0%);
       stroke-width:  2.00;
       fill: none;
       stroke-dasharray: none;
  " />
 <polyline points=" 
   70,70
   71,70
   72,70
   73,70
   73,70
   74,71
   75,71
   76,71
   77,72
   78,72
   78,73
   79,73
   80,74
   81,75
   82,75
   83,76
   83,77
   84,78
   85,79
   86,80
   87,81
   88,82
   88,83
   89,85
   90,86
   91,87
   92,89
   93,90
   94,92
   94,93
   95,95
   96,96
   97,98
   98,100
   99,102
   99,104
   100,106
   101,108
   102,110
   103,112
   104,114
   104,116
   105,119
   106,121
   107,123
   108,126
   109,128
   109,131
   110,133
   111,136
   112,139
   113,142
   114,144
   115,147
   115,150
   116,153
   117,156
   118,159
   119,162
   120,165
   120,169
   121,172
   122,175
   123,179
   124,182
   125,186
   125,189
   126,193
   127,196
   128,200
   129,204
   130,208
   130,211
   131,215
   132,219
   133,223
   134,227
   135,231
   136,235
   136,240
   137,244
   138,248
   139,252
   140,257
   141,261
   141,266
   142,270
   143,275
   144,279
   145,284
   146,289
   146,293
   147,298
   148,303
   149,308
   150,313
   151,318
   151,323
   152,328
   153,333
   154,338
   155,343
   156,348
   157,354
   157,359
   158,364
   159,370
   160,375
   161,381
   162,386
   162,392
   163,397
   164,403
   165,409
   166,414
   167,420
   167,426
   168,432
   169,438
   170,444
   171,450
   172,456
   172,462
   173,468
   174,474
   175,480
   176,486
   177,493
   178,499
   178,505
   179,512
   180,518
   181,524
   182,531
   183,537
   183,544
   184,550
   185,557
   186,564
   187,570
   188,577
   188,584
   189,591
   190,597
   191,604
   192,611
   193,618
   193,625
   194,630
  " 
 style=" 
       stroke: rgb(  0%,100%,  0%);
       stroke-width:  2.00;
       fill: none;
       stroke-dasharray: none;
  " />
 <polyline points=" 
   70,70
   71,70
   72,70
   73,70
   73,70
   74,71
   75,71
   76,71
   77,72
   78,72
   78,73
   79,73
   80,74
   81,75
   82,75
   83,76
   83,77
   84,78
   85,79
   86,80
   87,81
   88,82
   88,83
   89,84
   90,86
   91,87
   92,88
   93,90
   94,91
   94,93
   95,94
   96,96
   97,98
   98,100
   99,101
   99,103
   100,105
   101,107
   102,109
   103,111
   104,113
   104,116
   105,118
   106,120
   107,123
   108,125
   109,127
   109,130
   110,133
   111,135
   112,138
   113,141
   114,143
   115,146
   115,149
   116,152
   117,155
   118,158
   119,161
   120,164
   120,167
   121,171
   122,174
   123,177
   124,181
   125,184
   125,188
   126,191
   127,195
   128,198
   129,202
   130,206
   130,209
   131,213
   132,217
   133,221
   134,225
   135,229
   136,233
   136,237
   137,241
   138,245
   139,250
   140,254
   141,258
   141,263
   142,267
   143,271
   144,276
   145,280
   146,285
   146,290
   147,294
   148,299
   149,304
   150,309
   151,313
   151,318
   152,323
   153,328
   154,333
   155,338
   156,343
   157,348
   157,353
   158,358
   159,364
   160,369
   161,374
   162,379
   162,385
   163,390
   164,395
   165,401
   166,406
   167,412
   167,417
   168,423
   169,429
   170,434
   171,440
   172,446
   172,451
   173,457
   174,463
   175,469
   176,475
   177,480
   178,486
   178,492
   179,498
   180,504
   181,510
   182,516
   183,522
   183,528
   184,535
   185,541
   186,547
   187,553
   188,559
   188,565
   189,572
   190,578
   191,584
   192,591
   193,597
   193,603
   194,610
   195,616
   196,623
   197,629
   197,630
  " 
 style=" 
       stroke: rgb(  0%,  0%,100%);
       stroke-width:  2.00;
       fill: none;
       stroke-dasharray: none;
  " />
 <polyline points=" 
   70,70
   71,70
   72,70
   73,70
   73,70
   74,71
   75,71
   76,71
   77,72
   78,72
   78,72
   79,73
   80,73
   81,74
   82,74
   83,74
   83,75
   84,75
   85,76
   86,76
   87,77
   88,77
   88,78
   89,78
   90,79
   91,79
   92,80
   93,80
   94,81
   94,81
   95,82
   96,82
   97,83
   98,83
   99,84
   99,84
   100,85
   101,85
   102,86
   103,86
   104,87
   104,87
   105,88
   106,88
   107,89
   108,89
   109,90
   109,90
   110,91
   111,91
   112,92
   113,92
   114,93
   115,93
   115,94
   116,94
   117,95
   118,95
   119,96
   120,96
   120,97
   121,97
   122,98
   123,98
   124,99
   125,99
   125,100
   126,100
   127,101
   128,101
   129,102
   130,102
   130,103
   131,103
   132,103
   133,104
   134,104
   135,105
   136,106
   136,106
   137,106
   138,107
   139,107
   140,108
   141,108
   141,109
   142,109
   143,110
   144,110
   145,111
   146,111
   146,112
   147,112
   148,113
   149,113
   150,114
   151,114
   151,115
   152,115
   153,116
   154,116
   155,117
   156,117
   157,118
   157,118
   158,119
   159,119
   160,120
   161,120
   162,121
   162,121
   163,122
   164,122
   165,123
   166,123
   167,124
   167,124
   168,125
   169,125
   170,126
   171,126
   172,127
   172,127
   173,128
   174,128
   175,129
   176,129
   177,130
   178,130
   178,131
   179,131
   180,132
   181,132
   182,133
   183,133
   183,134
   184,134
   185,135
   186,135
   187,136
   188,136
   188,137
   189,137
   190,138
   191,138
   192,139
   193,139
   193,140
   194,140
   195,141
   196,141
   197,142
   198,142
   199,143
   199,143
   200,143
   201,144
   202,144
   203,145
   204,145
   204,146
   205,146
   206,147
   207,147
   208,148
   209,148
   209,149
   210,149
   211,150
   212,150
   213,151
   214,151
   214,152
   215,152
   216,153
   217,153
   218,154
   219,154
   220,155
   220,155
   221,156
   222,156
   223,157
   224,157
   225,158
   225,158
   226,159
   227,159
   228,160
   229,160
   230,161
   230,161
   231,162
   232,162
   233,163
   234,163
   235,164
   235,164
   236,165
   237,165
   238,166
   239,166
   240,167
   241,167
   241,168
   242,168
   243,169
   244,169
   245,170
   246,170
   246,171
   247,171
   248,172
   249,172
   250,173
   251,173
   251,173
   252,174
   253,174
   254,175
   255,175
   256,176
   256,176
   257,177
   258,177
   259,178
   260,178
   261,179
   262,179
   262,180
   263,180
   264,181
   265,181
   266,182
   267,182
   267,183
   268,183
   269,184
   270,184
   271,185
   272,185
   272,186
   273,186
   274,187
   275,187
   276,188
   277,188
   277,189
   278,189
   279,190
   280,190
   281,191
   282,191
   283,192
   283,192
   284,193
   285,193
   286,194
   287,194
   288,195
   288,195
   289,196
   290,196
   291,197
   292,197
   293,198
   293,198
   294,199
   295,199
   296,200
   297,200
   298,200
   298,201
   299,201
   300,202
   301,202
   302,203
   303,203
   304,204
   304,204
   305,205
   306,205
   307,206
   308,206
   309,207
   309,207
   310,208
   311,208
   312,209
   313,209
   314,210
   314,210
   315,211
   316,211
   317,212
   318,212
   319,213
   319,213
   320,214
   321,214
   322,215
   323,215
   324,216
   325,216
   325,217
   326,217
   327,218
   328,218
   329,219
   330,219
   330,220
   331,220
   332,221
   333,221
   334,222
   335,222
   335,223
   336,223
   337,223
   338,224
   339,225
   340,225
   340,225
   341,226
   342,226
   343,227
   344,227
   345,228
   346,228
   346,229
   347,229
   348,230
   349,230
   350,231
   351,231
   351,232
   352,232
   353,233
   354,233
   355,234
   356,234
   356,235
   357,235
   358,236
   359,236
   360,237
   361,237
   361,238
   362,238
   363,239
   364,239
   365,240
   366,240
   367,241
   367,241
   368,242
   369,242
   370,243
   371,243
   372,244
   372,244
   373,244
   374,245
   375,246
   376,246
   377,246
   377,247
   378,247
   379,248
   380,248
   381,249
   382,249
   382,250
   383,250
   384,251
   385,251
   386,252
   387,252
   388,253
   388,253
   389,254
   390,254
   391,255
   392,255
   393,256
   393,256
   394,257
   395,257
   396,258
   397,258
   398,259
   398,259
   399,260
   400,260
   401,261
   402,261
   403,262
   403,262
   404,263
   405,263
   406,264
   407,264
   408,265
   409,265
   409,265
   410,266
   411,267
   412,267
   413,267
   414,268
   414,268
   415,269
   416,269
   417,270
   418,270
   419,271
   419,271
   420,272
   421,272
   422,273
   423,273
   424,274
   424,274
   425,275
   426,275
   427,276
   428,276
   429,277
   430,277
   430,278
   431,278
   432,279
   433,279
   434,280
   435,280
   435,281
   436,281
   437,282
   438,282
   439,283
   440,283
   440,284
   441,284
   442,284
   443,285
   444,285
   445,286
   445,286
   446,287
   447,287
   448,288
   449,288
   450,289
   451,289
   451,290
   452,290
   453,291
   454,291
   455,292
   456,292
   456,293
   457,293
   458,294
   459,294
   460,295
   461,295
   461,296
   462,296
   463,297
   464,297
   465,298
   466,298
   466,299
   467,299
   468,300
   469,300
   470,301
   471,301
   472,302
   472,302
   473,303
   474,303
   475,303
   476,304
   477,304
   477,305
   478,305
   479,306
   480,306
   481,307
   482,307
   482,308
   483,308
   484,309
   485,309
   486,310
   487,310
   487,311
   488,311
   489,312
   490,312
   491,313
   492,313
   493,314
   493,314
   494,315
   495,315
   496,316
   497,316
   498,317
   498,317
   499,318
   500,318
   501,319
   502,319
   503,319
   503,320
   504,320
   505,321
   506,321
   507,322
   508,322
   508,323
   509,323
   510,324
   511,324
   512,325
   513,325
   514,326
   514,326
   515,327
   516,327
   517,328
   518,328
   519,329
   519,329
   520,330
   521,330
   522,331
   523,331
   524,332
   524,332
   525,333
   526,333
   527,334
   528,334
   529,334
   529,335
   530,335
   531,336
   532,336
   533,337
   534,337
   535,338
   535,338
   536,339
   537,339
   538,340
   539,340
   540,341
   540,341
   541,342
   542,342
   543,343
   544,343
   545,344
   545,344
   546,345
   547,345
   548,346
   549,346
   550,347
   550,347
   551,348
   552,348
   553,349
   554,349
   555,349
   556,350
   556,351
   557,351
   558,351
   559,352
   560,352
   561,353
   561,353
   562,354
   563,354
   564,355
   565,355
   566,356
   566,356
   567,357
   568,357
   569,358
   570,358
   571,359
   571,359
   572,360
   573,360
   574,361
   575,361
   576,362
   577,362
   577,363
   578,363
   579,364
   580,364
   581,365
   582,365
   582,365
   583,366
   584,366
   585,367
   586,367
   587,368
   587,368
   588,369
   589,369
   590,370
   591,370
   592,371
   592,371
   593,372
   594,372
   595,373
   596,373
   597,374
   598,374
   598,375
   599,375
   600,376
   601,376
   602,377
   603,377
   603,378
   604,378
   605,379
   606,379
   607,379
   608,380
   608,380
   609,381
   610,381
   611,382
   612,382
   613,383
   613,383
   614,384
   615,384
   616,385
   617,385
   618,386
   619,386
   619,387
   620,387
   621,388
   622,388
   623,389
   624,389
   624,390
   625,390
   626,391
   627,391
   628,392
   629,392
   629,393
   630,393
   631,393
   632,394
   633,394
   634,395
   634,395
   635,396
   636,396
   637,397
   638,397
   639,398
   640,398
   640,399
   641,399
   642,400
   643,400
   644,401
   645,401
   645,402
   646,402
   647,403
   648,403
   649,404
   650,404
   650,405
   651,405
   652,405
   653,406
   654,407
   655,407
   655,407
   656,408
   657,408
   658,409
   659,409
   660,410
   661,410
   661,411
   662,411
   663,412
   664,412
   665,413
   666,413
   666,414
   667,414
   668,415
   669,415
   670,416
   671,416
   671,417
   672,417
   673,418
   674,418
   675,418
   676,419
   676,419
   677,420
   678,420
   679,421
   680,421
   681,422
   682,422
   682,423
   683,423
   684,424
   685,424
   686,425
   687,425
   687,426
   688,426
   689,427
   690,427
   691,428
   692,428
   692,429
   693,429
   694,430
   695,430
   696,431
   697,431
   697,431
   698,432
   699,432
   700,433
   701,433
   702,434
   703,434
   703,435
   704,435
   705,436
   706,436
   707,437
   708,437
   708,438
   709,438
   710,439
   711,439
   712,440
   713,440
   713,441
   714,441
   715,442
   716,442
   717,443
   718,443
   718,444
   719,444
   720,444
   721,445
   722,445
   723,446
   724,446
   724,447
   725,447
   726,448
   727,448
   728,449
   729,449
   729,450
   730,450
   731,451
   732,451
   733,452
   734,452
   734,453
   735,453
   736,454
   737,454
   738,455
   739,455
   739,456
   740,456
   741,456
   742,457
   743,457
   744,458
   745,458
   745,459
   746,459
   747,460
   748,460
   749,461
   750,461
   750,462
   751,462
   752,463
   753,463
   754,464
   755,464
   755,465
   756,465
   757,466
   758,466
   759,467
   760,467
   760,467
   761,468
   762,468
   763,469
   764,469
   765,470
   766,470
   766,471
   767,471
   768,472
   769,472
   770,473
   771,473
   771,474
   772,474
   773,475
   774,475
   775,476
   776,476
   776,477
   777,477
   778,478
   779,478
   780,478
   781,479
   781,479
   782,480
   783,480
   784,481
   785,481
   786,482
   787,482
   787,483
   788,483
   789,484
   790,484
   791,485
   792,485
   792,486
   793,486
   794,487
   795,487
   796,488
   797,488
   797,489
   798,489
   799,489
   800,490
   801,490
   802,491
   802,491
   803,492
   804,492
   805,493
   806,493
   807,494
   808,494
   808,495
   809,495
   810,496
   811,496
   812,497
   813,497
   813,498
   814,498
   815,499
   816,499
   817,500
   818,500
   818,500
   819,501
   820,501
   821,502
   822,502
   823,503
   823,503
   824,504
   825,504
   826,505
   827,505
   828,506
   829,506
   829,507
   830,507
   831,508
   832,508
   833,509
   834,509
   834,510
   835,510
   836,510
   837,511
   838,511
   839,512
   839,512
   840,513
   841,513
   842,514
   843,514
   844,515
   844,515
   845,516
   846,516
   847,517
   848,517
   849,518
   850,518
   850,519
   851,519
   852,520
   853,520
   854,521
   855,521
   855,521
   856,522
   857,522
   858,523
   859,523
   860,524
   860,524
   861,525
   862,525
   863,526
   864,526
   865,527
   865,527
   866,528
   867,528
   868,529
   869,529
   870,530
   871,530
   871,531
   872,531
   873,531
   874,532
   875,532
   876,533
   876,533
   877,534
   878,534
   879,535
   880,535
   881,536
   881,536
   882,537
   883,537
   884,538
   885,538
   886,539
   886,539
   887,540
   888,540
   889,541
   890,541
   891,541
   892,542
   892,542
   893,543
   894,543
   895,544
   896,544
   897,545
   897,545
   898,546
   899,546
   900,547
   901,547
   902,548
   902,548
   903,549
   904,549
   905,550
   906,550
   907,551
   907,551
   908,551
   909,552
   910,552
   911,553
   912,553
   913,554
   913,554
   914,555
   915,555
   916,556
   917,556
   918,557
   918,557
   919,558
   920,558
   921,559
   922,559
   923,560
   923,560
   924,561
   925,561
   926,561
   927,562
   928,562
   928,563
   929,563
   930,564
   931,564
   932,565
   933,565
   934,566
   934,566
   935,567
   936,567
   937,568
   938,568
   939,569
   939,569
   940,570
   941,570
   942,570
   943,571
   944,571
   944,572
   945,572
   946,573
   947,573
   948,574
   949,574
   949,575
   950,575
   951,576
   952,576
   953,577
   954,577
   955,578
   955,578
   956,579
   957,579
   958,579
   959,580
   960,580
   960,581
   961,581
   962,582
   963,582
   964,583
   965,583
   965,584
   966,584
   967,585
   968,585
   969,586
   970,586
   970,587
   971,587
   972,588
   973,588
   974,589
   975,589
   976,589
   976,590
   977,590
   978,591
   979,591
   980,592
   981,592
   981,593
   982,593
   983,594
   984,594
   985,595
   986,595
   986,596
   987,596
   988,597
   989,597
   990,598
   991,598
   991,598
   992,599
   993,599
   994,600
   995,600
   996,601
   997,601
   997,602
   998,602
   999,603
   1000,603
   1001,604
   1002,604
   1002,605
   1003,605
   1004,606
   1005,606
   1006,606
   1007,607
   1007,607
   1008,608
   1009,608
   1010,609
   1011,609
   1012,610
   1012,610
   1013,611
   1014,611
   1015,612
   1016,612
   1017,613
   1018,613
   1018,614
   1019,614
   1020,615
   1021,615
   1022,615
   1023,616
   1023,616
   1024,617
   1025,617
   1026,618
   1027,618
   1028,619
   1028,619
   1029,620
   1030,620
   1031,621
   1032,621
   1033,622
   1033,622
   1034,623
   1035,623
   1036,624
   1037,624
   1038,624
   1039,625
   1039,625
   1040,626
   1041,626
   1042,627
   1043,627
   1044,628
   1044,628
   1045,629
   1046,629
   1047,630
   1048,630
  " 
 style=" 
       stroke: rgb(100%, 50%,  0%);
       stroke-width:  2.00;
       fill: none;
       stroke-dasharray: none;
  " />
 <polyline points=" 
   70,70
   71,70
   72,70
   73,70
   73,70
   74,71
   75,71
   76,71
   77,72
   78,72
   78,73
   79,73
   80,74
   81,74
   82,75
   83,76
   83,76
   84,77
   85,78
   86,79
   87,80
   88,81
   88,82
   89,83
   90,83
   91,85
   92,86
   93,87
   94,88
   94,89
   95,90
   96,91
   97,92
   98,93
   99,94
   99,95
   100,96
   101,98
   102,99
   103,100
   104,101
   104,102
   105,103
   106,105
   107,106
   108,107
   109,108
   109,109
   110,111
   111,112
   112,113
   113,114
   114,115
   115,117
   115,118
   116,119
   117,120
   118,122
   119,123
   120,124
   120,125
   121,126
   122,128
   123,129
   124,130
   125,131
   125,133
   126,134
   127,135
   128,136
   129,137
   130,139
   130,140
   131,141
   132,142
   133,144
   134,145
   135,146
   136,147
   136,149
   137,150
   138,151
   139,152
   140,153
   141,155
   141,156
   142,157
   143,158
   144,160
   145,161
   146,162
   146,163
   147,165
   148,166
   149,167
   150,168
   151,169
   151,171
   152,172
   153,173
   154,174
   155,176
   156,177
   157,178
   157,179
   158,181
   159,182
   160,183
   161,184
   162,185
   162,187
   163,188
   164,189
   165,190
   166,192
   167,193
   167,194
   168,195
   169,197
   170,198
   171,199
   172,200
   172,201
   173,203
   174,204
   175,205
   176,206
   177,208
   178,209
   178,210
   179,211
   180,212
   181,214
   182,215
   183,216
   183,217
   184,219
   185,220
   186,221
   187,222
   188,223
   188,225
   189,226
   190,227
   191,228
   192,230
   193,231
   193,232
   194,233
   195,235
   196,236
   197,237
   198,238
   199,239
   199,241
   200,242
   201,243
   202,244
   203,246
   204,247
   204,248
   205,249
   206,250
   207,252
   208,253
   209,254
   209,255
   210,257
   211,258
   212,259
   213,260
   214,261
   214,263
   215,264
   216,265
   217,266
   218,268
   219,269
   220,270
   220,271
   221,272
   222,274
   223,275
   224,276
   225,277
   225,279
   226,280
   227,281
   228,282
   229,283
   230,285
   230,286
   231,287
   232,288
   233,290
   234,291
   235,292
   235,293
   236,294
   237,296
   238,297
   239,298
   240,299
   241,300
   241,302
   242,303
   243,304
   244,305
   245,307
   246,308
   246,309
   247,310
   248,311
   249,313
   250,314
   251,315
   251,316
   252,318
   253,319
   254,320
   255,321
   256,322
   256,324
   257,325
   258,326
   259,327
   260,328
   261,330
   262,331
   262,332
   263,333
   264,334
   265,336
   266,337
   267,338
   267,339
   268,341
   269,342
   270,343
   271,344
   272,345
   272,347
   273,348
   274,349
   275,350
   276,352
   277,353
   277,354
   278,355
   279,356
   280,358
   281,359
   282,360
   283,361
   283,362
   284,364
   285,365
   286,366
   287,367
   288,368
   288,370
   289,371
   290,372
   291,373
   292,374
   293,376
   293,377
   294,378
   295,379
   296,381
   297,382
   298,383
   298,384
   299,385
   300,387
   301,388
   302,389
   303,390
   304,391
   304,393
   305,394
   306,395
   307,396
   308,397
   309,399
   309,400
   310,401
   311,402
   312,403
   313,405
   314,406
   314,407
   315,408
   316,410
   317,411
   318,412
   319,413
   319,414
   320,416
   321,417
   322,418
   323,419
   324,420
   325,422
   325,423
   326,424
   327,425
   328,426
   329,428
   330,429
   330,430
   331,431
   332,432
   333,434
   334,435
   335,436
   335,437
   336,438
   337,440
   338,441
   339,442
   340,443
   340,444
   341,446
   342,447
   343,448
   344,449
   345,450
   346,452
   346,453
   347,454
   348,455
   349,456
   350,458
   351,459
   351,460
   352,461
   353,462
   354,464
   355,465
   356,466
   356,467
   357,468
   358,470
   359,471
   360,472
   361,473
   361,474
   362,476
   363,477
   364,478
   365,479
   366,480
   367,482
   367,483
   368,484
   369,485
   370,486
   371,488
   372,489
   372,490
   373,491
   374,492
   375,494
   376,495
   377,496
   377,497
   378,498
   379,500
   380,501
   381,502
   382,503
   382,504
   383,506
   384,507
   385,508
   386,509
   387,510
   388,512
   388,513
   389,514
   390,515
   391,516
   392,518
   393,519
   393,520
   394,521
   395,522
   396,523
   397,525
   398,526
   398,527
   399,528
   400,529
   401,531
   402,532
   403,533
   403,534
   404,535
   405,537
   406,538
   407,539
   408,540
   409,541
   409,543
   410,544
   411,545
   412,546
   413,547
   414,549
   414,550
   415,551
   416,552
   417,553
   418,555
   419,556
   419,557
   420,558
   421,559
   422,560
   423,562
   424,563
   424,564
   425,565
   426,566
   427,568
   428,569
   429,570
   430,571
   430,572
   431,574
   432,575
   433,576
   434,577
   435,578
   435,579
   436,581
   437,582
   438,583
   439,584
   440,585
   440,587
   441,588
   442,589
   443,590
   444,591
   445,593
   445,594
   446,595
   447,596
   448,597
   449,598
   450,600
   451,601
   451,602
   452,603
   453,604
   454,606
   455,607
   456,608
   456,609
   457,610
   458,612
   459,613
   460,614
   461,615
   461,616
   462,617
   463,619
   464,620
   465,621
   466,622
   466,623
   467,625
   468,626
   469,627
   470,628
   471,629
   471,630
  " 
 style=" 
       stroke: rgb(100%,100%, 50%);
       stroke-width:  2.00;
       fill: none;
       stroke-dasharray: none;
  " />
 <polyline points=" 
   70,70
   71,70
   72,70
   73,70
   73,70
   74,71
   75,71
   76,71
   77,72
   78,72
   78,73
   79,73
   80,74
   81,75
   82,75
   83,76
   83,77
   84,78
   85,79
   86,80
   87,81
   88,82
   88,83
   89,85
   90,86
   91,87
   92,89
   93,90
   94,92
   94,93
   95,95
   96,96
   97,98
   98,100
   99,102
   99,104
   100,106
   101,108
   102,110
   103,112
   104,114
   104,116
   105,118
   106,121
   107,123
   108,126
   109,128
   109,131
   110,133
   111,136
   112,139
   113,141
   114,144
   115,147
   115,150
   116,153
   117,156
   118,159
   119,162
   120,166
   120,169
   121,172
   122,176
   123,179
   124,182
   125,186
   125,190
   126,193
   127,197
   128,201
   129,205
   130,208
   130,212
   131,216
   132,220
   133,224
   134,229
   135,233
   136,237
   136,241
   137,246
   138,250
   139,255
   140,259
   141,264
   141,268
   142,273
   143,278
   144,283
   145,288
   146,292
   146,297
   147,302
   148,307
   149,313
   150,318
   151,323
   151,328
   152,334
   153,339
   154,345
   155,350
   156,356
   157,361
   157,367
   158,373
   159,379
   160,384
   161,390
   162,396
   162,402
   163,408
   164,414
   165,421
   166,427
   167,433
   167,439
   168,446
   169,452
   170,459
   171,465
   172,472
   172,479
   173,485
   174,492
   175,499
   176,506
   177,513
   178,520
   178,527
   179,534
   180,541
   181,548
   182,556
   183,563
   183,570
   184,578
   185,585
   186,593
   187,601
   188,608
   188,616
   189,624
   190,632
  " 
 style=" 
       stroke: rgb(  0%,  0%,  0%);
       stroke-width:  2.00;
       fill: none;
       stroke-dasharray: none;
  " />
<path d= "M 263,28" />
 <text x="263" y="28"
 style=" 
 font-family: sans-serif; 
 font-weight: bold;
 font-style: normal;
  font-size: 16;
  stroke: none; 
  fill: rgb(  0%,  0%,  0%);
 text-anchor: middle; 
  ">
 ALTITUDE HISTORY
 </text>
<path d= "M 263,56" />
 <text x="263" y="56"
 style=" 
 font-family: sans-serif; 
 font-weight: bold;
 font-style: normal;
  font-size: 14;
  stroke: none; 
  fill: rgb(  0%,  0%,  0%);
 text-anchor: middle; 
  ">
 initial altitude= 1000 meters
 </text>
 </svg>
