 <svg width="100px" height="150px" viewbox="0 0  612 792" 
  version="1.1"  baseProfile="full" 
  xmlns="http://www.w3.org/2000/svg" 
  xmlns:xlink="http://www.w3.org/1999/xlink" 
  xmlns:ev="http://www.w3.org/2001/xml-events"> 
<line x1="70" y1="574" x2="490" y2="574"
 style=" 
       stroke: rgb(0%,0%,0%);
       stroke-width:  0.50;
       fill: none;
       stroke-dasharray: none;
  " />
<line x1="70" y1="518" x2="490" y2="518"
 style=" 
       stroke: rgb(0%,0%,0%);
       stroke-width:  0.50;
       fill: none;
       stroke-dasharray: none;
  " />
<line x1="70" y1="462" x2="490" y2="462"
 style=" 
       stroke: rgb(0%,0%,0%);
       stroke-width:  0.50;
       fill: none;
       stroke-dasharray: none;
  " />
<line x1="70" y1="406" x2="490" y2="406"
 style=" 
       stroke: rgb(0%,0%,0%);
       stroke-width:  0.50;
       fill: none;
       stroke-dasharray: none;
  " />
<line x1="70" y1="350" x2="490" y2="350"
 style=" 
       stroke: rgb(0%,0%,0%);
       stroke-width:  0.50;
       fill: none;
       stroke-dasharray: none;
  " />
<line x1="70" y1="294" x2="490" y2="294"
 style=" 
       stroke: rgb(0%,0%,0%);
       stroke-width:  0.50;
       fill: none;
       stroke-dasharray: none;
  " />
<line x1="70" y1="238" x2="490" y2="238"
 style=" 
       stroke: rgb(0%,0%,0%);
       stroke-width:  0.50;
       fill: none;
       stroke-dasharray: none;
  " />
<line x1="70" y1="182" x2="490" y2="182"
 style=" 
       stroke: rgb(0%,0%,0%);
       stroke-width:  0.50;
       fill: none;
       stroke-dasharray: none;
  " />
<line x1="70" y1="126" x2="490" y2="126"
 style=" 
       stroke: rgb(0%,0%,0%);
       stroke-width:  0.50;
       fill: none;
       stroke-dasharray: none;
  " />
<line x1="140" y1="630" x2="140" y2="70"
 style=" 
       stroke: rgb(0%,0%,0%);
       stroke-width:  0.50;
       fill: none;
       stroke-dasharray: none;
  " />
<line x1="210" y1="630" x2="210" y2="70"
 style=" 
       stroke: rgb(0%,0%,0%);
       stroke-width:  0.50;
       fill: none;
       stroke-dasharray: none;
  " />
<line x1="280" y1="630" x2="280" y2="70"
 style=" 
       stroke: rgb(0%,0%,0%);
       stroke-width:  0.50;
       fill: none;
       stroke-dasharray: none;
  " />
<line x1="350" y1="630" x2="350" y2="70"
 style=" 
       stroke: rgb(0%,0%,0%);
       stroke-width:  0.50;
       fill: none;
       stroke-dasharray: none;
  " />
<line x1="420" y1="630" x2="420" y2="70"
 style=" 
       stroke: rgb(0%,0%,0%);
       stroke-width:  0.50;
       fill: none;
       stroke-dasharray: none;
  " />
 <polygon points=" 
   70,630
   490,630
   490,70
   70,70
  " 
 style=" 
       stroke: rgb(0%,0%,0%);
       stroke-width:  0.50;
       fill: none;
       stroke-dasharray: none;
  " />
<path d= "M 70,642" />
 <text x="70" y="642"
 style=" 
 font-family: sans-serif; 
 font-weight: normal;
 font-style: normal;
  font-size: 12;
  stroke: none; 
  fill: rgb(0%,0%,0%);
 text-anchor: start; 
  ">
 0
 </text>
<path d= "M 140,642" />
 <text x="140" y="642"
 style=" 
 font-family: sans-serif; 
 font-weight: normal;
 font-style: normal;
  font-size: 12;
  stroke: none; 
  fill: rgb(0%,0%,0%);
 text-anchor: middle; 
  ">
 25
 </text>
<path d= "M 210,642" />
 <text x="210" y="642"
 style=" 
 font-family: sans-serif; 
 font-weight: normal;
 font-style: normal;
  font-size: 12;
  stroke: none; 
  fill: rgb(0%,0%,0%);
 text-anchor: middle; 
  ">
 50
 </text>
<path d= "M 280,642" />
 <text x="280" y="642"
 style=" 
 font-family: sans-serif; 
 font-weight: normal;
 font-style: normal;
  font-size: 12;
  stroke: none; 
  fill: rgb(0%,0%,0%);
 text-anchor: middle; 
  ">
 75
 </text>
<path d= "M 350,642" />
 <text x="350" y="642"
 style=" 
 font-family: sans-serif; 
 font-weight: normal;
 font-style: normal;
  font-size: 12;
  stroke: none; 
  fill: rgb(0%,0%,0%);
 text-anchor: middle; 
  ">
 100
 </text>
<path d= "M 420,642" />
 <text x="420" y="642"
 style=" 
 font-family: sans-serif; 
 font-weight: normal;
 font-style: normal;
  font-size: 12;
  stroke: none; 
  fill: rgb(0%,0%,0%);
 text-anchor: middle; 
  ">
 125
 </text>
<path d= "M 490,642" />
 <text x="490" y="642"
 style=" 
 font-family: sans-serif; 
 font-weight: normal;
 font-style: normal;
  font-size: 12;
  stroke: none; 
  fill: rgb(0%,0%,0%);
 text-anchor: middle; 
  ">
 150
 </text>
<path d= "M 280,653" />
 <text x="280" y="653"
 style=" 
 font-family: sans-serif; 
 font-weight: normal;
 font-style: normal;
  font-size: 12;
  stroke: none; 
  fill: rgb(0%,0%,0%);
 text-anchor: middle; 
  ">
 velocity
 </text>
<path d= "M 69,636" />
 <text x="69" y="636"
 style=" 
 font-family: sans-serif; 
 font-weight: normal;
 font-style: normal;
  font-size: 12;
  stroke: none; 
  fill: rgb(0%,0%,0%);
 text-anchor: end; 
  ">
 0
 </text>
<path d= "M 69,580" />
 <text x="69" y="580"
 style=" 
 font-family: sans-serif; 
 font-weight: normal;
 font-style: normal;
  font-size: 12;
  stroke: none; 
  fill: rgb(0%,0%,0%);
 text-anchor: end; 
  ">
 100
 </text>
<path d= "M 69,524" />
 <text x="69" y="524"
 style=" 
 font-family: sans-serif; 
 font-weight: normal;
 font-style: normal;
  font-size: 12;
  stroke: none; 
  fill: rgb(0%,0%,0%);
 text-anchor: end; 
  ">
 200
 </text>
<path d= "M 69,468" />
 <text x="69" y="468"
 style=" 
 font-family: sans-serif; 
 font-weight: normal;
 font-style: normal;
  font-size: 12;
  stroke: none; 
  fill: rgb(0%,0%,0%);
 text-anchor: end; 
  ">
 300
 </text>
<path d= "M 69,412" />
 <text x="69" y="412"
 style=" 
 font-family: sans-serif; 
 font-weight: normal;
 font-style: normal;
  font-size: 12;
  stroke: none; 
  fill: rgb(0%,0%,0%);
 text-anchor: end; 
  ">
 400
 </text>
<path d= "M 69,356" />
 <text x="69" y="356"
 style=" 
 font-family: sans-serif; 
 font-weight: normal;
 font-style: normal;
  font-size: 12;
  stroke: none; 
  fill: rgb(0%,0%,0%);
 text-anchor: end; 
  ">
 500
 </text>
<path d= "M 69,300" />
 <text x="69" y="300"
 style=" 
 font-family: sans-serif; 
 font-weight: normal;
 font-style: normal;
  font-size: 12;
  stroke: none; 
  fill: rgb(0%,0%,0%);
 text-anchor: end; 
  ">
 600
 </text>
<path d= "M 69,244" />
 <text x="69" y="244"
 style=" 
 font-family: sans-serif; 
 font-weight: normal;
 font-style: normal;
  font-size: 12;
  stroke: none; 
  fill: rgb(0%,0%,0%);
 text-anchor: end; 
  ">
 700
 </text>
<path d= "M 69,188" />
 <text x="69" y="188"
 style=" 
 font-family: sans-serif; 
 font-weight: normal;
 font-style: normal;
  font-size: 12;
  stroke: none; 
  fill: rgb(0%,0%,0%);
 text-anchor: end; 
  ">
 800
 </text>
<path d= "M 69,132" />
 <text x="69" y="132"
 style=" 
 font-family: sans-serif; 
 font-weight: normal;
 font-style: normal;
  font-size: 12;
  stroke: none; 
  fill: rgb(0%,0%,0%);
 text-anchor: end; 
  ">
 900
 </text>
<path d= "M 69,76" />
 <text x="69" y="76"
 style=" 
 font-family: sans-serif; 
 font-weight: normal;
 font-style: normal;
  font-size: 12;
  stroke: none; 
  fill: rgb(0%,0%,0%);
 text-anchor: end; 
  ">
 1000
 </text>
<path d= "M 35,350" />
 <g transform="translate(          35 ,         350 )">
 <g transform="rotate(-90)">
 <text x="0" y="0" 
 style=" 
 font-family: sans-serif; 
 font-weight: normal;
 font-style: normal;
  font-size: 12;
  stroke: none; 
  fill: rgb(0%,0%,0%);
 text-anchor: middle; 
  ">
 altitude
 </text>
 </g></g>
 <polyline points=" 
   70,70
   73,70
   75,70
   78,70
   81,70
   84,71
   86,71
   89,71
   92,72
   94,72
   97,73
   99,73
   102,74
   104,74
   107,75
   109,76
   111,77
   113,78
   116,79
   118,79
   120,80
   122,81
   124,83
   126,84
   128,85
   129,86
   131,87
   133,88
   134,90
   136,91
   137,92
   139,94
   140,95
   141,97
   143,98
   144,100
   145,101
   146,103
   147,104
   148,106
   149,107
   150,109
   151,111
   152,112
   153,114
   153,116
   154,117
   155,119
   155,121
   156,122
   157,124
   157,126
   158,128
   158,130
   159,131
   159,133
   160,135
   160,137
   161,139
   161,141
   161,142
   162,144
   162,146
   162,148
   162,150
   163,152
   163,154
   163,155
   163,157
   164,159
   164,161
   164,163
   164,165
   164,167
   165,169
   165,171
   165,173
   165,175
   165,177
   165,178
   165,180
   165,182
   166,184
   166,186
   166,188
   166,190
   166,192
   166,194
   166,196
   166,198
   166,200
   166,202
   166,204
   166,206
   166,208
   166,210
   166,212
   166,214
   166,216
   166,218
   166,219
   166,221
   167,223
   167,225
   167,227
   167,229
   167,231
   167,233
   167,235
   167,237
   167,239
   167,241
   167,243
   167,245
   167,247
   167,249
   167,251
   167,253
   167,255
   167,257
   167,259
   167,261
   167,263
   167,265
   167,267
   167,269
   167,271
   167,272
   167,274
   167,276
   167,278
   167,280
   167,282
   167,284
   167,286
   167,288
   166,290
   166,292
   166,294
   166,296
   166,298
   166,300
   166,302
   166,304
   166,306
   166,308
   166,310
   166,312
   166,314
   166,316
   166,318
   166,320
   166,322
   166,324
   166,325
   166,327
   166,329
   166,331
   166,333
   166,335
   166,337
   166,339
   166,341
   166,343
   166,345
   166,347
   166,349
   166,351
   166,353
   166,355
   166,357
   166,359
   166,361
   166,363
   166,365
   166,366
   166,368
   166,370
   166,372
   166,374
   166,376
   166,378
   166,380
   166,382
   166,384
   166,386
   166,388
   166,390
   166,392
   166,394
   166,396
   166,398
   166,400
   166,402
   166,403
   166,405
   166,407
   166,409
   166,411
   166,413
   166,415
   166,417
   166,419
   165,421
   165,423
   165,425
   165,427
   165,429
   165,431
   165,433
   165,435
   165,437
   165,438
   165,440
   165,442
   165,444
   165,446
   165,448
   165,450
   165,452
   165,454
   165,456
   165,458
   165,460
   165,462
   165,464
   165,466
   165,467
   165,469
   165,471
   165,473
   165,475
   165,477
   165,479
   165,481
   165,483
   165,485
   165,487
   165,489
   165,491
   165,493
   165,495
   165,496
   165,498
   165,500
   165,502
   165,504
   165,506
   165,508
   165,510
   165,512
   165,514
   165,516
   165,518
   165,520
   165,522
   165,523
   165,525
   165,527
   165,529
   165,531
   165,533
   165,535
   165,537
   165,539
   165,541
   165,543
   164,545
   164,547
   164,548
   164,550
   164,552
   164,554
   164,556
   164,558
   164,560
   164,562
   164,564
   164,566
   164,568
   164,570
   164,571
   164,573
   164,575
   164,577
   164,579
   164,581
   164,583
   164,585
   164,587
   164,589
   164,591
   164,593
   164,594
   164,596
   164,598
   164,600
   164,602
   164,604
   164,606
   164,608
   164,610
   164,612
   164,614
   164,615
   164,617
   164,619
   164,621
   164,623
   164,625
   164,627
   164,629
   164,630
  " 
 style=" 
       stroke: rgb(100%,  0%,  0%);
       stroke-width:  2.00;
       fill: none;
       stroke-dasharray: none;
  " />
 <polyline points=" 
   70,70
   73,70
   75,70
   78,70
   81,70
   84,71
   86,71
   89,71
   92,72
   95,72
   97,73
   100,73
   103,74
   106,75
   108,75
   111,76
   114,77
   117,78
   119,79
   122,80
   125,81
   128,82
   130,83
   133,85
   136,86
   138,87
   141,89
   144,90
   147,92
   149,93
   152,95
   155,96
   157,98
   160,100
   163,102
   165,104
   168,106
   171,108
   173,110
   176,112
   179,114
   181,116
   184,119
   187,121
   189,123
   192,126
   195,128
   197,131
   200,133
   202,136
   205,139
   208,142
   210,144
   213,147
   215,150
   218,153
   220,156
   223,159
   225,162
   228,165
   230,169
   233,172
   235,175
   238,179
   240,182
   243,186
   245,189
   248,193
   250,196
   253,200
   255,204
   258,208
   260,211
   262,215
   265,219
   267,223
   270,227
   272,231
   274,235
   277,240
   279,244
   281,248
   284,252
   286,257
   288,261
   291,266
   293,270
   295,275
   298,279
   300,284
   302,289
   304,293
   307,298
   309,303
   311,308
   313,313
   315,318
   318,323
   320,328
   322,333
   324,338
   326,343
   328,348
   331,354
   333,359
   335,364
   337,370
   339,375
   341,381
   343,386
   345,392
   347,397
   349,403
   351,409
   353,414
   355,420
   357,426
   359,432
   361,438
   363,444
   365,450
   367,456
   369,462
   371,468
   373,474
   374,480
   376,486
   378,493
   380,499
   382,505
   384,512
   385,518
   387,524
   389,531
   391,537
   393,544
   394,550
   396,557
   398,564
   399,570
   401,577
   403,584
   404,591
   406,597
   408,604
   409,611
   411,618
   413,625
   414,630
  " 
 style=" 
       stroke: rgb(  0%,100%,  0%);
       stroke-width:  2.00;
       fill: none;
       stroke-dasharray: none;
  " />
 <polyline points=" 
   70,70
   73,70
   75,70
   78,70
   81,70
   84,71
   86,71
   89,71
   92,72
   95,72
   97,73
   100,73
   103,74
   105,75
   108,75
   111,76
   113,77
   116,78
   119,79
   121,80
   124,81
   127,82
   129,83
   132,84
   134,86
   137,87
   140,88
   142,90
   145,91
   148,93
   151,94
   153,96
   156,98
   159,100
   161,101
   164,103
   167,105
   169,107
   172,109
   175,111
   177,113
   180,116
   182,118
   185,120
   188,123
   190,125
   193,127
   195,130
   198,133
   201,135
   203,138
   206,141
   208,143
   211,146
   213,149
   216,152
   218,155
   221,158
   223,161
   226,164
   228,167
   231,171
   233,174
   236,177
   238,181
   240,184
   243,188
   245,191
   248,195
   250,198
   252,202
   255,206
   257,209
   259,213
   261,217
   264,221
   266,225
   268,229
   271,233
   273,237
   275,241
   277,245
   279,250
   281,254
   284,258
   286,263
   288,267
   290,271
   292,276
   294,280
   296,285
   298,290
   300,294
   302,299
   304,304
   306,309
   308,313
   310,318
   312,323
   314,328
   316,333
   318,338
   319,343
   321,348
   323,353
   325,358
   327,364
   328,369
   330,374
   332,379
   334,385
   335,390
   337,395
   339,401
   340,406
   342,412
   343,417
   345,423
   347,429
   348,434
   350,440
   351,446
   353,451
   354,457
   356,463
   357,469
   358,475
   360,480
   361,486
   363,492
   364,498
   365,504
   367,510
   368,516
   369,522
   370,528
   372,535
   373,541
   374,547
   375,553
   377,559
   378,565
   379,572
   380,578
   381,584
   382,591
   383,597
   384,603
   385,610
   386,616
   387,623
   388,629
   389,630
  " 
 style=" 
       stroke: rgb(  0%,  0%,100%);
       stroke-width:  2.00;
       fill: none;
       stroke-dasharray: none;
  " />
 <polyline points=" 
   70,70
   73,70
   75,70
   78,70
   80,70
   82,71
   84,71
   86,71
   87,72
   89,72
   90,72
   91,73
   91,73
   92,74
   92,74
   93,74
   93,75
   93,75
   94,76
   94,76
   94,77
   94,77
   94,78
   94,78
   94,79
   94,79
   94,80
   94,80
   94,81
   94,81
   94,82
   94,82
   94,83
   94,83
   94,84
   94,84
   94,85
   94,85
   94,86
   94,86
   94,87
   94,87
   94,88
   94,88
   94,89
   94,89
   94,90
   94,90
   94,91
   94,91
   94,92
   94,92
   94,93
   94,93
   94,94
   94,94
   94,95
   94,95
   94,96
   94,96
   94,97
   94,97
   94,98
   94,98
   94,99
   94,99
   94,100
   94,100
   94,101
   94,101
   94,102
   94,102
   94,103
   94,103
   94,103
   94,104
   94,104
   94,105
   94,106
   94,106
   94,106
   94,107
   94,107
   94,108
   94,108
   94,109
   94,109
   94,110
   94,110
   94,111
   94,111
   94,112
   94,112
   94,113
   94,113
   94,114
   94,114
   94,115
   94,115
   94,116
   94,116
   94,117
   94,117
   94,118
   94,118
   94,119
   94,119
   94,120
   94,120
   94,121
   94,121
   94,122
   94,122
   94,123
   94,123
   94,124
   94,124
   94,125
   94,125
   94,126
   94,126
   94,127
   94,127
   94,128
   94,128
   94,129
   94,129
   94,130
   94,130
   94,131
   94,131
   94,132
   94,132
   94,133
   94,133
   94,134
   94,134
   94,135
   94,135
   94,136
   94,136
   94,137
   94,137
   94,138
   94,138
   94,139
   94,139
   94,140
   94,140
   94,141
   94,141
   94,142
   94,142
   94,143
   94,143
   94,143
   94,144
   94,144
   94,145
   94,145
   94,146
   94,146
   94,147
   94,147
   94,148
   94,148
   94,149
   94,149
   94,150
   94,150
   94,151
   94,151
   94,152
   94,152
   94,153
   94,153
   94,154
   94,154
   94,155
   94,155
   94,156
   94,156
   94,157
   94,157
   94,158
   94,158
   94,159
   94,159
   94,160
   94,160
   94,161
   94,161
   94,162
   94,162
   94,163
   94,163
   94,164
   94,164
   94,165
   94,165
   94,166
   94,166
   94,167
   94,167
   94,168
   94,168
   94,169
   94,169
   94,170
   94,170
   94,171
   94,171
   94,172
   94,172
   94,173
   94,173
   94,173
   94,174
   94,174
   94,175
   94,175
   94,176
   94,176
   94,177
   94,177
   94,178
   94,178
   94,179
   94,179
   94,180
   94,180
   94,181
   94,181
   94,182
   94,182
   94,183
   94,183
   94,184
   94,184
   94,185
   94,185
   94,186
   94,186
   94,187
   94,187
   94,188
   94,188
   94,189
   94,189
   94,190
   94,190
   94,191
   94,191
   94,192
   94,192
   94,193
   94,193
   94,194
   94,194
   94,195
   94,195
   94,196
   94,196
   94,197
   94,197
   94,198
   94,198
   94,199
   94,199
   94,200
   94,200
   94,200
   94,201
   94,201
   94,202
   94,202
   94,203
   94,203
   94,204
   94,204
   94,205
   94,205
   94,206
   94,206
   94,207
   94,207
   94,208
   94,208
   94,209
   94,209
   94,210
   94,210
   94,211
   94,211
   94,212
   94,212
   94,213
   94,213
   94,214
   94,214
   94,215
   94,215
   94,216
   94,216
   94,217
   94,217
   94,218
   94,218
   94,219
   94,219
   94,220
   94,220
   94,221
   94,221
   94,222
   94,222
   94,223
   94,223
   94,223
   94,224
   94,225
   94,225
   94,225
   94,226
   94,226
   94,227
   94,227
   94,228
   94,228
   94,229
   94,229
   94,230
   94,230
   94,231
   94,231
   94,232
   94,232
   94,233
   94,233
   94,234
   94,234
   94,235
   94,235
   94,236
   94,236
   94,237
   94,237
   94,238
   94,238
   94,239
   94,239
   94,240
   94,240
   94,241
   94,241
   94,242
   94,242
   94,243
   94,243
   94,244
   94,244
   94,244
   94,245
   94,246
   94,246
   94,246
   94,247
   94,247
   94,248
   94,248
   94,249
   94,249
   94,250
   94,250
   94,251
   94,251
   94,252
   94,252
   94,253
   94,253
   94,254
   94,254
   94,255
   94,255
   94,256
   94,256
   94,257
   94,257
   94,258
   94,258
   94,259
   94,259
   94,260
   94,260
   94,261
   94,261
   94,262
   94,262
   94,263
   94,263
   94,264
   94,264
   94,265
   94,265
   94,265
   94,266
   94,267
   94,267
   94,267
   94,268
   94,268
   94,269
   94,269
   94,270
   94,270
   94,271
   94,271
   94,272
   94,272
   94,273
   94,273
   94,274
   94,274
   94,275
   94,275
   94,276
   94,276
   94,277
   94,277
   94,278
   94,278
   94,279
   94,279
   94,280
   94,280
   94,281
   94,281
   94,282
   94,282
   94,283
   94,283
   94,284
   94,284
   94,284
   94,285
   94,285
   94,286
   94,286
   94,287
   94,287
   94,288
   94,288
   94,289
   94,289
   94,290
   94,290
   94,291
   94,291
   94,292
   94,292
   94,293
   94,293
   94,294
   94,294
   94,295
   94,295
   94,296
   94,296
   94,297
   94,297
   94,298
   94,298
   94,299
   94,299
   94,300
   94,300
   94,301
   94,301
   94,302
   94,302
   94,303
   94,303
   94,303
   94,304
   94,304
   94,305
   94,305
   94,306
   94,306
   94,307
   94,307
   94,308
   94,308
   94,309
   94,309
   94,310
   94,310
   94,311
   94,311
   94,312
   94,312
   94,313
   94,313
   94,314
   94,314
   94,315
   94,315
   94,316
   94,316
   94,317
   94,317
   94,318
   94,318
   94,319
   94,319
   94,319
   94,320
   94,320
   94,321
   94,321
   94,322
   94,322
   94,323
   94,323
   94,324
   94,324
   94,325
   94,325
   94,326
   94,326
   94,327
   94,327
   94,328
   94,328
   94,329
   94,329
   94,330
   94,330
   94,331
   94,331
   94,332
   94,332
   94,333
   94,333
   94,334
   94,334
   94,334
   94,335
   94,335
   94,336
   94,336
   94,337
   94,337
   94,338
   94,338
   94,339
   94,339
   94,340
   94,340
   94,341
   94,341
   94,342
   94,342
   94,343
   94,343
   94,344
   94,344
   94,345
   94,345
   94,346
   94,346
   94,347
   94,347
   94,348
   94,348
   94,349
   94,349
   94,349
   94,350
   94,351
   94,351
   94,351
   94,352
   94,352
   94,353
   94,353
   94,354
   94,354
   94,355
   94,355
   94,356
   94,356
   94,357
   94,357
   94,358
   94,358
   94,359
   94,359
   94,360
   94,360
   94,361
   94,361
   94,362
   94,362
   94,363
   94,363
   94,364
   94,364
   94,365
   94,365
   94,365
   94,366
   94,366
   94,367
   94,367
   94,368
   94,368
   94,369
   94,369
   94,370
   94,370
   94,371
   94,371
   94,372
   94,372
   94,373
   94,373
   94,374
   94,374
   94,375
   94,375
   94,376
   94,376
   94,377
   94,377
   94,378
   94,378
   94,379
   94,379
   94,379
   94,380
   94,380
   94,381
   94,381
   94,382
   94,382
   94,383
   94,383
   94,384
   94,384
   94,385
   94,385
   94,386
   94,386
   94,387
   94,387
   94,388
   94,388
   94,389
   94,389
   94,390
   94,390
   94,391
   94,391
   94,392
   94,392
   94,393
   94,393
   94,393
   94,394
   94,394
   94,395
   94,395
   94,396
   94,396
   94,397
   94,397
   94,398
   94,398
   94,399
   94,399
   94,400
   94,400
   94,401
   94,401
   94,402
   94,402
   94,403
   94,403
   94,404
   94,404
   94,405
   94,405
   94,405
   94,406
   94,407
   94,407
   94,407
   94,408
   94,408
   94,409
   94,409
   94,410
   94,410
   94,411
   94,411
   94,412
   94,412
   94,413
   94,413
   94,414
   94,414
   94,415
   94,415
   94,416
   94,416
   94,417
   94,417
   94,418
   94,418
   94,418
   94,419
   94,419
   94,420
   94,420
   94,421
   94,421
   94,422
   94,422
   94,423
   94,423
   94,424
   94,424
   94,425
   94,425
   94,426
   94,426
   94,427
   94,427
   94,428
   94,428
   94,429
   94,429
   94,430
   94,430
   94,431
   94,431
   94,431
   94,432
   94,432
   94,433
   94,433
   94,434
   94,434
   94,435
   94,435
   94,436
   94,436
   94,437
   94,437
   94,438
   94,438
   94,439
   94,439
   94,440
   94,440
   94,441
   94,441
   94,442
   94,442
   94,443
   94,443
   94,444
   94,444
   94,444
   94,445
   94,445
   94,446
   94,446
   94,447
   94,447
   94,448
   94,448
   94,449
   94,449
   94,450
   94,450
   94,451
   94,451
   94,452
   94,452
   94,453
   94,453
   94,454
   94,454
   94,455
   94,455
   94,456
   94,456
   94,456
   94,457
   94,457
   94,458
   94,458
   94,459
   94,459
   94,460
   94,460
   94,461
   94,461
   94,462
   94,462
   94,463
   94,463
   94,464
   94,464
   94,465
   94,465
   94,466
   94,466
   94,467
   94,467
   94,467
   94,468
   94,468
   94,469
   94,469
   94,470
   94,470
   94,471
   94,471
   94,472
   94,472
   94,473
   94,473
   94,474
   94,474
   94,475
   94,475
   94,476
   94,476
   94,477
   94,477
   94,478
   94,478
   94,478
   94,479
   94,479
   94,480
   94,480
   94,481
   94,481
   94,482
   94,482
   94,483
   94,483
   94,484
   94,484
   94,485
   94,485
   94,486
   94,486
   94,487
   94,487
   94,488
   94,488
   94,489
   94,489
   94,489
   94,490
   94,490
   94,491
   94,491
   94,492
   93,492
   93,493
   93,493
   93,494
   93,494
   93,495
   93,495
   93,496
   93,496
   93,497
   93,497
   93,498
   93,498
   93,499
   93,499
   93,500
   93,500
   93,500
   93,501
   93,501
   93,502
   93,502
   93,503
   93,503
   93,504
   93,504
   93,505
   93,505
   93,506
   93,506
   93,507
   93,507
   93,508
   93,508
   93,509
   93,509
   93,510
   93,510
   93,510
   93,511
   93,511
   93,512
   93,512
   93,513
   93,513
   93,514
   93,514
   93,515
   93,515
   93,516
   93,516
   93,517
   93,517
   93,518
   93,518
   93,519
   93,519
   93,520
   93,520
   93,521
   93,521
   93,521
   93,522
   93,522
   93,523
   93,523
   93,524
   93,524
   93,525
   93,525
   93,526
   93,526
   93,527
   93,527
   93,528
   93,528
   93,529
   93,529
   93,530
   93,530
   93,531
   93,531
   93,531
   93,532
   93,532
   93,533
   93,533
   93,534
   93,534
   93,535
   93,535
   93,536
   93,536
   93,537
   93,537
   93,538
   93,538
   93,539
   93,539
   93,540
   93,540
   93,541
   93,541
   93,541
   93,542
   93,542
   93,543
   93,543
   93,544
   93,544
   93,545
   93,545
   93,546
   93,546
   93,547
   93,547
   93,548
   93,548
   93,549
   93,549
   93,550
   93,550
   93,551
   93,551
   93,551
   93,552
   93,552
   93,553
   93,553
   93,554
   93,554
   93,555
   93,555
   93,556
   93,556
   93,557
   93,557
   93,558
   93,558
   93,559
   93,559
   93,560
   93,560
   93,561
   93,561
   93,561
   93,562
   93,562
   93,563
   93,563
   93,564
   93,564
   93,565
   93,565
   93,566
   93,566
   93,567
   93,567
   93,568
   93,568
   93,569
   93,569
   93,570
   93,570
   93,570
   93,571
   93,571
   93,572
   93,572
   93,573
   93,573
   93,574
   93,574
   93,575
   93,575
   93,576
   93,576
   93,577
   93,577
   93,578
   93,578
   93,579
   93,579
   93,579
   93,580
   93,580
   93,581
   93,581
   93,582
   93,582
   93,583
   93,583
   93,584
   93,584
   93,585
   93,585
   93,586
   93,586
   93,587
   93,587
   93,588
   93,588
   93,589
   93,589
   93,589
   93,590
   93,590
   93,591
   93,591
   93,592
   93,592
   93,593
   93,593
   93,594
   93,594
   93,595
   93,595
   93,596
   93,596
   93,597
   93,597
   93,598
   93,598
   93,598
   93,599
   93,599
   93,600
   93,600
   93,601
   93,601
   93,602
   93,602
   93,603
   93,603
   93,604
   93,604
   93,605
   93,605
   93,606
   93,606
   93,606
   93,607
   93,607
   93,608
   93,608
   93,609
   93,609
   93,610
   93,610
   93,611
   93,611
   93,612
   93,612
   93,613
   93,613
   93,614
   93,614
   93,615
   93,615
   93,615
   93,616
   93,616
   93,617
   93,617
   93,618
   93,618
   93,619
   93,619
   93,620
   93,620
   93,621
   93,621
   93,622
   93,622
   93,623
   93,623
   93,624
   93,624
   93,624
   93,625
   93,625
   93,626
   93,626
   93,627
   93,627
   93,628
   93,628
   93,629
   93,629
   93,630
   93,630
  " 
 style=" 
       stroke: rgb(100%, 50%,  0%);
       stroke-width:  2.00;
       fill: none;
       stroke-dasharray: none;
  " />
 <polyline points=" 
   70,70
   73,70
   75,70
   78,70
   81,70
   83,71
   86,71
   89,71
   91,72
   93,72
   96,73
   98,73
   100,74
   102,74
   104,75
   106,76
   108,76
   109,77
   111,78
   112,79
   114,80
   115,81
   116,82
   117,83
   118,83
   119,85
   120,86
   121,87
   122,88
   123,89
   123,90
   124,91
   124,92
   125,93
   125,94
   126,95
   126,96
   127,98
   127,99
   127,100
   128,101
   128,102
   128,103
   128,105
   129,106
   129,107
   129,108
   129,109
   129,111
   129,112
   130,113
   130,114
   130,115
   130,117
   130,118
   130,119
   130,120
   130,122
   130,123
   130,124
   130,125
   130,126
   130,128
   130,129
   130,130
   130,131
   130,133
   130,134
   130,135
   131,136
   131,137
   131,139
   131,140
   131,141
   131,142
   131,144
   131,145
   131,146
   131,147
   131,149
   131,150
   131,151
   131,152
   131,153
   131,155
   131,156
   131,157
   131,158
   131,160
   131,161
   131,162
   131,163
   131,165
   131,166
   131,167
   131,168
   131,169
   131,171
   131,172
   131,173
   131,174
   131,176
   131,177
   131,178
   131,179
   130,181
   130,182
   130,183
   130,184
   130,185
   130,187
   130,188
   130,189
   130,190
   130,192
   130,193
   130,194
   130,195
   130,197
   130,198
   130,199
   130,200
   130,201
   130,203
   130,204
   130,205
   130,206
   130,208
   130,209
   130,210
   130,211
   130,212
   130,214
   130,215
   130,216
   130,217
   130,219
   130,220
   130,221
   130,222
   130,223
   130,225
   130,226
   130,227
   130,228
   130,230
   130,231
   130,232
   130,233
   130,235
   130,236
   130,237
   130,238
   130,239
   130,241
   130,242
   130,243
   130,244
   130,246
   130,247
   130,248
   130,249
   130,250
   130,252
   130,253
   130,254
   130,255
   130,257
   130,258
   130,259
   130,260
   130,261
   130,263
   130,264
   130,265
   130,266
   130,268
   130,269
   130,270
   130,271
   130,272
   130,274
   130,275
   130,276
   130,277
   130,279
   130,280
   130,281
   130,282
   130,283
   130,285
   130,286
   130,287
   130,288
   130,290
   130,291
   130,292
   130,293
   130,294
   130,296
   130,297
   130,298
   130,299
   130,300
   130,302
   130,303
   130,304
   130,305
   130,307
   130,308
   130,309
   130,310
   130,311
   130,313
   130,314
   130,315
   130,316
   130,318
   130,319
   130,320
   130,321
   130,322
   130,324
   130,325
   130,326
   130,327
   130,328
   130,330
   130,331
   130,332
   130,333
   130,334
   130,336
   130,337
   130,338
   130,339
   130,341
   130,342
   130,343
   130,344
   130,345
   130,347
   130,348
   130,349
   130,350
   130,352
   130,353
   130,354
   130,355
   130,356
   130,358
   130,359
   130,360
   130,361
   130,362
   130,364
   130,365
   130,366
   130,367
   130,368
   130,370
   130,371
   130,372
   130,373
   130,374
   129,376
   129,377
   129,378
   129,379
   129,381
   129,382
   129,383
   129,384
   129,385
   129,387
   129,388
   129,389
   129,390
   129,391
   129,393
   129,394
   129,395
   129,396
   129,397
   129,399
   129,400
   129,401
   129,402
   129,403
   129,405
   129,406
   129,407
   129,408
   129,410
   129,411
   129,412
   129,413
   129,414
   129,416
   129,417
   129,418
   129,419
   129,420
   129,422
   129,423
   129,424
   129,425
   129,426
   129,428
   129,429
   129,430
   129,431
   129,432
   129,434
   129,435
   129,436
   129,437
   129,438
   129,440
   129,441
   129,442
   129,443
   129,444
   129,446
   129,447
   129,448
   129,449
   129,450
   129,452
   129,453
   129,454
   129,455
   129,456
   129,458
   129,459
   129,460
   129,461
   129,462
   129,464
   129,465
   129,466
   129,467
   129,468
   129,470
   129,471
   129,472
   129,473
   129,474
   129,476
   129,477
   129,478
   129,479
   129,480
   129,482
   129,483
   129,484
   129,485
   129,486
   129,488
   129,489
   129,490
   129,491
   129,492
   129,494
   129,495
   129,496
   129,497
   129,498
   129,500
   129,501
   129,502
   129,503
   129,504
   129,506
   129,507
   129,508
   129,509
   129,510
   129,512
   129,513
   129,514
   129,515
   129,516
   129,518
   129,519
   129,520
   129,521
   129,522
   129,523
   129,525
   129,526
   129,527
   129,528
   129,529
   129,531
   129,532
   129,533
   129,534
   129,535
   129,537
   129,538
   129,539
   129,540
   129,541
   129,543
   129,544
   129,545
   129,546
   129,547
   129,549
   129,550
   129,551
   129,552
   129,553
   129,555
   129,556
   129,557
   129,558
   129,559
   129,560
   129,562
   129,563
   129,564
   129,565
   129,566
   128,568
   128,569
   128,570
   128,571
   128,572
   128,574
   128,575
   128,576
   128,577
   128,578
   128,579
   128,581
   128,582
   128,583
   128,584
   128,585
   128,587
   128,588
   128,589
   128,590
   128,591
   128,593
   128,594
   128,595
   128,596
   128,597
   128,598
   128,600
   128,601
   128,602
   128,603
   128,604
   128,606
   128,607
   128,608
   128,609
   128,610
   128,612
   128,613
   128,614
   128,615
   128,616
   128,617
   128,619
   128,620
   128,621
   128,622
   128,623
   128,625
   128,626
   128,627
   128,628
   128,629
   128,630
  " 
 style=" 
       stroke: rgb(100%,100%, 50%);
       stroke-width:  2.00;
       fill: none;
       stroke-dasharray: none;
  " />
 <polyline points=" 
   70,70
   73,70
   75,70
   78,70
   81,70
   84,71
   86,71
   89,71
   92,72
   95,72
   97,73
   100,73
   103,74
   106,75
   108,75
   111,76
   114,77
   117,78
   119,79
   122,80
   125,81
   128,82
   130,83
   133,85
   136,86
   139,87
   141,89
   144,90
   147,92
   150,93
   152,95
   155,96
   158,98
   161,100
   163,102
   166,104
   169,106
   172,108
   174,110
   177,112
   180,114
   183,116
   185,118
   188,121
   191,123
   194,126
   196,128
   199,131
   202,133
   205,136
   207,139
   210,141
   213,144
   216,147
   218,150
   221,153
   224,156
   227,159
   229,162
   232,166
   235,169
   237,172
   240,176
   243,179
   246,182
   248,186
   251,190
   254,193
   257,197
   259,201
   262,205
   265,208
   268,212
   270,216
   273,220
   276,224
   279,229
   281,233
   284,237
   287,241
   290,246
   292,250
   295,255
   298,259
   301,264
   303,268
   306,273
   309,278
   312,283
   314,288
   317,292
   320,297
   323,302
   325,307
   328,313
   331,318
   334,323
   336,328
   339,334
   342,339
   345,345
   347,350
   350,356
   353,361
   356,367
   358,373
   361,379
   364,384
   367,390
   369,396
   372,402
   375,408
   378,414
   380,421
   383,427
   386,433
   389,439
   391,446
   394,452
   397,459
   400,465
   402,472
   405,479
   408,485
   410,492
   413,499
   416,506
   419,513
   421,520
   424,527
   427,534
   430,541
   432,548
   435,556
   438,563
   441,570
   443,578
   446,585
   449,593
   452,601
   454,608
   457,616
   460,624
   463,632
  " 
 style=" 
       stroke: rgb(  0%,  0%,  0%);
       stroke-width:  2.00;
       fill: none;
       stroke-dasharray: none;
  " />
 <polyline points=" 
   1023,630
   1023,624
   1023,619
   1023,613
   1022,608
   1022,602
   1022,596
   1022,591
   1022,585
   1022,580
   1022,574
   1022,568
   1021,563
   1021,557
   1021,552
   1021,546
   1021,540
   1021,535
   1021,529
   1021,524
   1021,518
   1021,512
   1020,507
   1020,501
   1020,496
   1020,490
   1020,484
   1020,479
   1020,473
   1020,468
   1019,462
   1019,456
   1019,451
   1019,445
   1019,440
   1019,434
   1019,428
   1019,423
   1019,417
   1019,412
   1019,406
   1018,400
   1018,395
   1018,389
   1018,384
   1018,378
   1018,372
   1018,367
   1018,361
   1018,356
   1018,350
   1017,344
   1017,339
   1017,333
   1017,328
   1017,322
   1017,316
   1017,311
   1017,305
   1016,300
   1016,294
   1016,288
   1016,283
   1016,277
   1016,272
   1016,266
   1016,260
   1016,255
   1016,249
   1015,244
   1015,238
   1015,232
   1015,227
   1015,221
   1015,216
   1015,210
   1015,204
   1014,199
   1014,193
   1014,188
   1014,182
   1014,176
   1014,171
   1014,165
   1014,160
   1014,154
   1014,148
   1013,143
   1013,137
   1013,132
   1013,126
   1013,120
   1013,115
   1013,109
   1013,104
   1012,98
   1012,92
   1012,87
   1012,81
   1012,76
   1012,70
  " 
 style=" 
       stroke: rgb(  0%,  0%,  0%);
       stroke-width:  1.00;
       fill: none;
       stroke-dasharray: none;
  " />
<path d= "M 263,28" />
 <text x="263" y="28"
 style=" 
 font-family: sans-serif; 
 font-weight: bold;
 font-style: normal;
  font-size: 16;
  stroke: none; 
  fill: rgb(  0%,  0%,  0%);
 text-anchor: middle; 
  ">
 ALTITUDE VS. VELOCITY
 </text>
<path d= "M 263,56" />
 <text x="263" y="56"
 style=" 
 font-family: sans-serif; 
 font-weight: bold;
 font-style: normal;
  font-size: 14;
  stroke: none; 
  fill: rgb(  0%,  0%,  0%);
 text-anchor: middle; 
  ">
 initial altitude= 1000 meters
 </text>
 </svg>
