 <svg width="100px" height="150px" viewbox="0 0  612 792" 
  version="1.1"  baseProfile="full" 
  xmlns="http://www.w3.org/2000/svg" 
  xmlns:xlink="http://www.w3.org/1999/xlink" 
  xmlns:ev="http://www.w3.org/2001/xml-events"> 
<line x1="70" y1="574" x2="490" y2="574"
 style=" 
       stroke: rgb(0%,0%,0%);
       stroke-width:  0.50;
       fill: none;
       stroke-dasharray: none;
  " />
<line x1="70" y1="518" x2="490" y2="518"
 style=" 
       stroke: rgb(0%,0%,0%);
       stroke-width:  0.50;
       fill: none;
       stroke-dasharray: none;
  " />
<line x1="70" y1="462" x2="490" y2="462"
 style=" 
       stroke: rgb(0%,0%,0%);
       stroke-width:  0.50;
       fill: none;
       stroke-dasharray: none;
  " />
<line x1="70" y1="406" x2="490" y2="406"
 style=" 
       stroke: rgb(0%,0%,0%);
       stroke-width:  0.50;
       fill: none;
       stroke-dasharray: none;
  " />
<line x1="70" y1="350" x2="490" y2="350"
 style=" 
       stroke: rgb(0%,0%,0%);
       stroke-width:  0.50;
       fill: none;
       stroke-dasharray: none;
  " />
<line x1="70" y1="294" x2="490" y2="294"
 style=" 
       stroke: rgb(0%,0%,0%);
       stroke-width:  0.50;
       fill: none;
       stroke-dasharray: none;
  " />
<line x1="70" y1="238" x2="490" y2="238"
 style=" 
       stroke: rgb(0%,0%,0%);
       stroke-width:  0.50;
       fill: none;
       stroke-dasharray: none;
  " />
<line x1="70" y1="182" x2="490" y2="182"
 style=" 
       stroke: rgb(0%,0%,0%);
       stroke-width:  0.50;
       fill: none;
       stroke-dasharray: none;
  " />
<line x1="70" y1="126" x2="490" y2="126"
 style=" 
       stroke: rgb(0%,0%,0%);
       stroke-width:  0.50;
       fill: none;
       stroke-dasharray: none;
  " />
<line x1="140" y1="630" x2="140" y2="70"
 style=" 
       stroke: rgb(0%,0%,0%);
       stroke-width:  0.50;
       fill: none;
       stroke-dasharray: none;
  " />
<line x1="210" y1="630" x2="210" y2="70"
 style=" 
       stroke: rgb(0%,0%,0%);
       stroke-width:  0.50;
       fill: none;
       stroke-dasharray: none;
  " />
<line x1="280" y1="630" x2="280" y2="70"
 style=" 
       stroke: rgb(0%,0%,0%);
       stroke-width:  0.50;
       fill: none;
       stroke-dasharray: none;
  " />
<line x1="350" y1="630" x2="350" y2="70"
 style=" 
       stroke: rgb(0%,0%,0%);
       stroke-width:  0.50;
       fill: none;
       stroke-dasharray: none;
  " />
<line x1="420" y1="630" x2="420" y2="70"
 style=" 
       stroke: rgb(0%,0%,0%);
       stroke-width:  0.50;
       fill: none;
       stroke-dasharray: none;
  " />
 <polygon points=" 
   70,630
   490,630
   490,70
   70,70
  " 
 style=" 
       stroke: rgb(0%,0%,0%);
       stroke-width:  0.50;
       fill: none;
       stroke-dasharray: none;
  " />
<path d= "M 70,642" />
 <text x="70" y="642"
 style=" 
 font-family: sans-serif; 
 font-weight: normal;
 font-style: normal;
  font-size: 12;
  stroke: none; 
  fill: rgb(0%,0%,0%);
 text-anchor: start; 
  ">
 0
 </text>
<path d= "M 140,642" />
 <text x="140" y="642"
 style=" 
 font-family: sans-serif; 
 font-weight: normal;
 font-style: normal;
  font-size: 12;
  stroke: none; 
  fill: rgb(0%,0%,0%);
 text-anchor: middle; 
  ">
 2
 </text>
<path d= "M 210,642" />
 <text x="210" y="642"
 style=" 
 font-family: sans-serif; 
 font-weight: normal;
 font-style: normal;
  font-size: 12;
  stroke: none; 
  fill: rgb(0%,0%,0%);
 text-anchor: middle; 
  ">
 4
 </text>
<path d= "M 280,642" />
 <text x="280" y="642"
 style=" 
 font-family: sans-serif; 
 font-weight: normal;
 font-style: normal;
  font-size: 12;
  stroke: none; 
  fill: rgb(0%,0%,0%);
 text-anchor: middle; 
  ">
 6
 </text>
<path d= "M 350,642" />
 <text x="350" y="642"
 style=" 
 font-family: sans-serif; 
 font-weight: normal;
 font-style: normal;
  font-size: 12;
  stroke: none; 
  fill: rgb(0%,0%,0%);
 text-anchor: middle; 
  ">
 8
 </text>
<path d= "M 420,642" />
 <text x="420" y="642"
 style=" 
 font-family: sans-serif; 
 font-weight: normal;
 font-style: normal;
  font-size: 12;
  stroke: none; 
  fill: rgb(0%,0%,0%);
 text-anchor: middle; 
  ">
 10
 </text>
<path d= "M 490,642" />
 <text x="490" y="642"
 style=" 
 font-family: sans-serif; 
 font-weight: normal;
 font-style: normal;
  font-size: 12;
  stroke: none; 
  fill: rgb(0%,0%,0%);
 text-anchor: middle; 
  ">
 12
 </text>
<path d= "M 280,653" />
 <text x="280" y="653"
 style=" 
 font-family: sans-serif; 
 font-weight: normal;
 font-style: normal;
  font-size: 12;
  stroke: none; 
  fill: rgb(0%,0%,0%);
 text-anchor: middle; 
  ">
 time
 </text>
<path d= "M 69,636" />
 <text x="69" y="636"
 style=" 
 font-family: sans-serif; 
 font-weight: normal;
 font-style: normal;
  font-size: 12;
  stroke: none; 
  fill: rgb(0%,0%,0%);
 text-anchor: end; 
  ">
 0
 </text>
<path d= "M 69,580" />
 <text x="69" y="580"
 style=" 
 font-family: sans-serif; 
 font-weight: normal;
 font-style: normal;
  font-size: 12;
  stroke: none; 
  fill: rgb(0%,0%,0%);
 text-anchor: end; 
  ">
 10
 </text>
<path d= "M 69,524" />
 <text x="69" y="524"
 style=" 
 font-family: sans-serif; 
 font-weight: normal;
 font-style: normal;
  font-size: 12;
  stroke: none; 
  fill: rgb(0%,0%,0%);
 text-anchor: end; 
  ">
 20
 </text>
<path d= "M 69,468" />
 <text x="69" y="468"
 style=" 
 font-family: sans-serif; 
 font-weight: normal;
 font-style: normal;
  font-size: 12;
  stroke: none; 
  fill: rgb(0%,0%,0%);
 text-anchor: end; 
  ">
 30
 </text>
<path d= "M 69,412" />
 <text x="69" y="412"
 style=" 
 font-family: sans-serif; 
 font-weight: normal;
 font-style: normal;
  font-size: 12;
  stroke: none; 
  fill: rgb(0%,0%,0%);
 text-anchor: end; 
  ">
 40
 </text>
<path d= "M 69,356" />
 <text x="69" y="356"
 style=" 
 font-family: sans-serif; 
 font-weight: normal;
 font-style: normal;
  font-size: 12;
  stroke: none; 
  fill: rgb(0%,0%,0%);
 text-anchor: end; 
  ">
 50
 </text>
<path d= "M 69,300" />
 <text x="69" y="300"
 style=" 
 font-family: sans-serif; 
 font-weight: normal;
 font-style: normal;
  font-size: 12;
  stroke: none; 
  fill: rgb(0%,0%,0%);
 text-anchor: end; 
  ">
 60
 </text>
<path d= "M 69,244" />
 <text x="69" y="244"
 style=" 
 font-family: sans-serif; 
 font-weight: normal;
 font-style: normal;
  font-size: 12;
  stroke: none; 
  fill: rgb(0%,0%,0%);
 text-anchor: end; 
  ">
 70
 </text>
<path d= "M 69,188" />
 <text x="69" y="188"
 style=" 
 font-family: sans-serif; 
 font-weight: normal;
 font-style: normal;
  font-size: 12;
  stroke: none; 
  fill: rgb(0%,0%,0%);
 text-anchor: end; 
  ">
 80
 </text>
<path d= "M 69,132" />
 <text x="69" y="132"
 style=" 
 font-family: sans-serif; 
 font-weight: normal;
 font-style: normal;
  font-size: 12;
  stroke: none; 
  fill: rgb(0%,0%,0%);
 text-anchor: end; 
  ">
 90
 </text>
<path d= "M 69,76" />
 <text x="69" y="76"
 style=" 
 font-family: sans-serif; 
 font-weight: normal;
 font-style: normal;
  font-size: 12;
  stroke: none; 
  fill: rgb(0%,0%,0%);
 text-anchor: end; 
  ">
 100
 </text>
<path d= "M 35,350" />
 <g transform="translate(          35 ,         350 )">
 <g transform="rotate(-90)">
 <text x="0" y="0" 
 style=" 
 font-family: sans-serif; 
 font-weight: normal;
 font-style: normal;
  font-size: 12;
  stroke: none; 
  fill: rgb(0%,0%,0%);
 text-anchor: middle; 
  ">
 altitude
 </text>
 </g></g>
 <polyline points=" 
   70,70
   74,70
   77,71
   81,72
   84,74
   88,77
   91,80
   95,83
   98,87
   102,91
   105,97
   109,102
   112,108
   115,115
   119,122
   123,129
   126,138
   130,146
   133,155
   137,165
   140,174
   143,184
   147,195
   150,206
   154,217
   158,229
   161,241
   165,253
   168,266
   172,279
   175,292
   179,306
   182,320
   185,334
   189,348
   192,362
   196,377
   200,393
   203,408
   206,423
   210,438
   213,454
   217,470
   221,487
   224,503
   227,519
   231,536
   234,552
   238,569
   242,586
   245,603
   249,620
   251,630
  " 
 style=" 
       stroke: rgb(100%,  0%,  0%);
       stroke-width:  2.00;
       fill: none;
       stroke-dasharray: none;
  " />
 <polyline points=" 
   70,70
   74,70
   77,71
   81,72
   84,74
   88,77
   91,80
   95,83
   98,87
   102,92
   105,97
   109,102
   112,109
   115,116
   119,123
   123,132
   126,140
   130,149
   133,158
   137,169
   140,180
   143,191
   147,203
   150,215
   154,228
   158,242
   161,256
   165,270
   168,286
   172,301
   175,318
   179,335
   182,352
   185,370
   189,389
   192,408
   196,427
   200,447
   203,468
   206,489
   210,511
   213,533
   217,556
   221,579
   224,603
   227,627
   228,630
  " 
 style=" 
       stroke: rgb(  0%,100%,  0%);
       stroke-width:  2.00;
       fill: none;
       stroke-dasharray: none;
  " />
 <polyline points=" 
   70,70
   74,70
   77,71
   81,72
   84,74
   88,77
   91,80
   95,83
   98,87
   102,92
   105,97
   109,102
   112,109
   115,116
   119,123
   123,131
   126,139
   130,148
   133,158
   137,168
   140,179
   143,190
   147,202
   150,214
   154,227
   158,240
   161,254
   165,268
   168,283
   172,298
   175,315
   179,331
   182,348
   185,366
   189,384
   192,403
   196,422
   200,442
   203,463
   206,483
   210,505
   213,527
   217,549
   221,572
   224,596
   227,620
   229,630
  " 
 style=" 
       stroke: rgb(  0%,  0%,100%);
       stroke-width:  2.00;
       fill: none;
       stroke-dasharray: none;
  " />
 <polyline points=" 
   70,70
   74,70
   77,71
   81,72
   84,74
   88,76
   91,79
   95,82
   98,85
   102,88
   105,92
   109,96
   112,101
   115,105
   119,109
   123,114
   126,118
   130,123
   133,127
   137,132
   140,137
   143,141
   147,146
   150,151
   154,155
   158,160
   161,165
   165,170
   168,174
   172,179
   175,184
   179,188
   182,193
   185,198
   189,203
   192,207
   196,212
   200,217
   203,222
   206,226
   210,231
   213,236
   217,240
   221,245
   224,250
   227,255
   231,259
   234,264
   238,269
   242,274
   245,278
   249,283
   252,288
   256,292
   259,297
   263,302
   266,307
   269,311
   273,316
   277,321
   280,326
   283,330
   287,335
   291,340
   294,344
   298,349
   301,354
   304,359
   308,363
   312,368
   315,373
   319,378
   322,382
   326,388
   329,392
   332,396
   336,402
   339,406
   343,411
   346,416
   350,421
   354,425
   357,430
   361,435
   364,440
   367,444
   371,449
   374,454
   378,458
   381,463
   385,468
   389,473
   392,477
   396,482
   399,487
   403,491
   406,496
   410,501
   413,506
   416,510
   420,515
   424,520
   427,525
   431,529
   434,534
   438,539
   441,543
   444,548
   448,553
   451,558
   455,562
   458,567
   462,572
   465,576
   469,581
   472,586
   476,591
   479,595
   483,600
   486,605
   490,609
   494,614
   497,619
   500,624
   504,628
   505,630
  " 
 style=" 
       stroke: rgb(100%, 50%,  0%);
       stroke-width:  2.00;
       fill: none;
       stroke-dasharray: none;
  " />
 <polyline points=" 
   70,70
   74,70
   77,71
   81,72
   84,74
   88,77
   91,80
   95,83
   98,87
   102,91
   105,96
   109,101
   112,107
   115,114
   119,120
   123,127
   126,134
   130,142
   133,150
   137,158
   140,167
   143,176
   147,185
   150,194
   154,203
   158,213
   161,223
   165,233
   168,243
   172,254
   175,264
   179,274
   182,285
   185,296
   189,307
   192,318
   196,329
   200,340
   203,351
   206,362
   210,374
   213,385
   217,396
   221,408
   224,419
   227,431
   231,442
   234,454
   238,465
   242,477
   245,489
   249,500
   252,512
   256,524
   259,535
   263,547
   266,559
   269,571
   273,582
   277,594
   280,606
   283,618
   287,629
   287,630
  " 
 style=" 
       stroke: rgb(100%,100%, 50%);
       stroke-width:  2.00;
       fill: none;
       stroke-dasharray: none;
  " />
 <polyline points=" 
   70,70
   74,70
   77,71
   81,72
   84,74
   88,77
   91,80
   95,83
   98,87
   102,92
   105,97
   109,103
   112,110
   115,116
   119,124
   123,132
   126,141
   130,150
   133,159
   137,169
   140,180
   143,191
   147,203
   150,215
   154,228
   158,241
   161,255
   165,270
   168,285
   172,301
   175,317
   179,334
   182,351
   185,369
   189,388
   192,407
   196,426
   200,446
   203,466
   206,488
   210,510
   213,531
   217,554
   221,578
   224,601
   227,626
   231,651
  " 
 style=" 
       stroke: rgb(  0%,  0%,  0%);
       stroke-width:  2.00;
       fill: none;
       stroke-dasharray: none;
  " />
<path d= "M 263,28" />
 <text x="263" y="28"
 style=" 
 font-family: sans-serif; 
 font-weight: bold;
 font-style: normal;
  font-size: 16;
  stroke: none; 
  fill: rgb(  0%,  0%,  0%);
 text-anchor: middle; 
  ">
 ALTITUDE HISTORY
 </text>
<path d= "M 263,56" />
 <text x="263" y="56"
 style=" 
 font-family: sans-serif; 
 font-weight: bold;
 font-style: normal;
  font-size: 14;
  stroke: none; 
  fill: rgb(  0%,  0%,  0%);
 text-anchor: middle; 
  ">
 initial altitude= 100 meters
 </text>
 </svg>
